<svg xmlns="http://www.w3.org/2000/svg" viewBox="0 0 18 16.29"><path d="M8.878,16.29l3.706-9.774h1.71l3.706,9.774h-1.71l-.855-2.484h-3.95l-.896,2.484h-1.71ZM11.973,12.38h2.932l-1.425-4.032h-.081l-1.425,4.032ZM2.443,13.846l-1.14-1.14,4.113-4.113c-.516-.57-.967-1.161-1.354-1.771-.387-.611-.723-1.256-1.008-1.934h1.71c.244.489.506.93.784,1.324.278.394.614.808,1.008,1.242.597-.652,1.093-1.32,1.486-2.005.394-.686.726-1.416.998-2.189H0v-1.629h5.701V0h1.629v1.629h5.701v1.629h-2.362c-.285.964-.672,1.9-1.161,2.81-.489.91-1.093,1.765-1.812,2.566l1.955,1.995-.611,1.67-2.525-2.525-4.072,4.072Z" stroke-width="0"/></svg>
