<svg viewBox="0 0 22 22" fill="none" xmlns="http://www.w3.org/2000/svg">
<g id="Group 11">
<path id="subscription-page" d="M10.4227 16.75C8.82266 16.6667 7.47266 16.05 6.37266 14.9C5.27266 13.75 4.72266 12.3667 4.72266 10.75C4.72266 9.08333 5.30599 7.66667 6.47266 6.5C7.63932 5.33333 9.05599 4.75 10.7227 4.75C12.3393 4.75 13.7227 5.3 14.8727 6.4C16.0227 7.5 16.6393 8.85 16.7227 10.45L14.6227 9.825C14.406 8.925 13.9393 8.1875 13.2227 7.6125C12.506 7.0375 11.6727 6.75 10.7227 6.75C9.62266 6.75 8.68099 7.14167 7.89766 7.925C7.11432 8.70833 6.72266 9.65 6.72266 10.75C6.72266 11.7 7.01016 12.5333 7.58516 13.25C8.16016 13.9667 8.89766 14.4333 9.79766 14.65L10.4227 16.75ZM11.6227 20.7C11.4727 20.7333 11.3227 20.75 11.1727 20.75H10.7227C9.33932 20.75 8.03932 20.4875 6.82266 19.9625C5.60599 19.4375 4.54766 18.725 3.64766 17.825C2.74766 16.925 2.03516 15.8667 1.51016 14.65C0.985156 13.4333 0.722656 12.1333 0.722656 10.75C0.722656 9.36667 0.985156 8.06667 1.51016 6.85C2.03516 5.63333 2.74766 4.575 3.64766 3.675C4.54766 2.775 5.60599 2.0625 6.82266 1.5375C8.03932 1.0125 9.33932 0.75 10.7227 0.75C12.106 0.75 13.406 1.0125 14.6227 1.5375C15.8393 2.0625 16.8977 2.775 17.7977 3.675C18.6977 4.575 19.4102 5.63333 19.9352 6.85C20.4602 8.06667 20.7227 9.36667 20.7227 10.75V11.2C20.7227 11.35 20.706 11.5 20.6727 11.65L18.7227 11.05V10.75C18.7227 8.51667 17.9477 6.625 16.3977 5.075C14.8477 3.525 12.956 2.75 10.7227 2.75C8.48932 2.75 6.59766 3.525 5.04766 5.075C3.49766 6.625 2.72266 8.51667 2.72266 10.75C2.72266 12.9833 3.49766 14.875 5.04766 16.425C6.59766 17.975 8.48932 18.75 10.7227 18.75H11.0227L11.6227 20.7ZM19.2477 21.25L14.9727 16.975L13.7227 20.75L10.7227 10.75L20.7227 13.75L16.9477 15L21.2227 19.275L19.2477 21.25Z"/>
</g>
</svg>
