<svg viewBox="0 0 24 24" xmlns="http://www.w3.org/2000/svg">
  <path d="M11.2169 17.241H7.12051C5.70383 17.241 4.49625 16.7418 3.49775 15.7433C2.49925 14.7448 2 13.5372 2 12.1205C2 10.7038 2.49925 9.49625 3.49775 8.49775C4.49625 7.49925 5.70383 7 7.12051 7H11.2169V9.0482H7.12051C6.26709 9.0482 5.54168 9.3469 4.94429 9.94429C4.3469 10.5417 4.0482 11.2671 4.0482 12.1205C4.0482 12.9739 4.3469 13.6993 4.94429 14.2967C5.54168 14.8941 6.26709 15.1928 7.12051 15.1928H11.2169V17.241ZM8.14461 13.1446V11.0964H16.3374V13.1446H8.14461ZM13.2651 17.241V15.1928H17.3615C18.2149 15.1928 18.9403 14.8941 19.5377 14.2967C20.1351 13.6993 20.4338 12.9739 20.4338 12.1205C20.4338 11.2671 20.1351 10.5417 19.5377 9.94429C18.9403 9.3469 18.2149 9.0482 17.3615 9.0482H13.2651V7H17.3615C18.7782 7 19.9858 7.49925 20.9843 8.49775C21.9828 9.49625 22.482 10.7038 22.482 12.1205C22.482 13.5372 21.9828 14.7448 20.9843 15.7433C19.9858 16.7418 18.7782 17.241 17.3615 17.241H13.2651Z"/>
</svg>
