<svg viewBox="0 0 24 24" xmlns="http://www.w3.org/2000/svg">
<path id="Vector" d="M12 22.5L11 19.5H4C3.45 19.5 2.97917 19.3042 2.5875 18.9125C2.19583 18.5208 2 18.05 2 17.5V4.5C2 3.95 2.19583 3.47917 2.5875 3.0875C2.97917 2.69583 3.45 2.5 4 2.5H10L10.875 5.5H20C20.5833 5.5 21.0625 5.6875 21.4375 6.0625C21.8125 6.4375 22 6.91667 22 7.5V20.5C22 21.05 21.8125 21.5208 21.4375 21.9125C21.0625 22.3042 20.5833 22.5 20 22.5H12ZM7.15 15.1C8.3 15.1 9.24583 14.7292 9.9875 13.9875C10.7292 13.2458 11.1 12.2833 11.1 11.1C11.1 10.9667 11.0958 10.8458 11.0875 10.7375C11.0792 10.6292 11.0583 10.5167 11.025 10.4H7.075V11.95H9.3C9.16667 12.4167 8.9125 12.7792 8.5375 13.0375C8.1625 13.2958 7.70833 13.425 7.175 13.425C6.525 13.425 5.96667 13.1917 5.5 12.725C5.03333 12.2583 4.8 11.6833 4.8 11C4.8 10.3167 5.03333 9.74167 5.5 9.275C5.96667 8.80833 6.525 8.575 7.175 8.575C7.475 8.575 7.75833 8.62917 8.025 8.7375C8.29167 8.84583 8.53333 9.00833 8.75 9.225L9.975 8.05C9.625 7.68333 9.20417 7.4 8.7125 7.2C8.22083 7 7.7 6.9 7.15 6.9C6.03333 6.9 5.07917 7.29583 4.2875 8.0875C3.49583 8.87917 3.1 9.85 3.1 11C3.1 12.15 3.49583 13.1208 4.2875 13.9125C5.07917 14.7042 6.03333 15.1 7.15 15.1ZM13.85 15.6L14.4 15.075C14.1667 14.7917 13.9542 14.5167 13.7625 14.25C13.5708 13.9833 13.3833 13.7 13.2 13.4L13.85 15.6ZM15.1 14.325C15.5667 13.775 15.9208 13.25 16.1625 12.75C16.4042 12.25 16.5667 11.8583 16.65 11.575H12.675L12.975 12.625H13.975C14.1083 12.875 14.2667 13.1458 14.45 13.4375C14.6333 13.7292 14.85 14.025 15.1 14.325ZM13 21.5H20C20.3 21.5 20.5417 21.4042 20.725 21.2125C20.9083 21.0208 21 20.7833 21 20.5V7.5C21 7.2 20.9083 6.95833 20.725 6.775C20.5417 6.59167 20.3 6.5 20 6.5H11.175L12.35 10.55H14.325V9.5H15.35V10.55H19V11.575H17.725C17.5583 12.2083 17.3083 12.825 16.975 13.425C16.6417 14.025 16.25 14.5833 15.8 15.1L18.525 17.775L17.8 18.5L15.1 15.8L14.2 16.725L15 19.5L13 21.5Z" />
</svg>
