<svg viewBox="0 0 138 97" fill="none" xmlns="http://www.w3.org/2000/svg">
<g clip-path="url(#clip0_134_1658)">
<path d="M28.0771 39.6719H61.2074V50.2651L81.1054 21.1328V1.2207H95.7099L101.003 6.51791V21.1328L96.9845 39.6719H131.488L136.782 43.6936V50.3639L131.488 54.3857L136.782 57.9167V63.7034L131.488 67.7251L136.782 71.7468V77.1417L131.488 81.0658L136.782 85.0875V91.7579L131.488 95.7796H74.5386L61.2074 86.4606V95.7796H28.0771V40.0649V39.6731V39.6719Z" fill="#E4EFFB" stroke="#212121" stroke-width="2" stroke-linecap="round" stroke-linejoin="round"/>
<path d="M43.7323 87.7854C45.8792 87.7854 47.6196 86.0483 47.6196 83.9054C47.6196 81.7625 45.8792 80.0254 43.7323 80.0254C41.5854 80.0254 39.845 81.7625 39.845 83.9054C39.845 86.0483 41.5854 87.7854 43.7323 87.7854Z" fill="#4343F0"/>
<path d="M61.2075 50.2651V86.0677" stroke="#212121" stroke-width="2" stroke-linecap="round" stroke-linejoin="round"/>
<path d="M127.469 54.2866H131.391" stroke="#212121" stroke-width="2" stroke-linecap="round" stroke-linejoin="round"/>
<path d="M127.469 67.5298H131.391" stroke="#212121" stroke-width="2" stroke-linecap="round" stroke-linejoin="round"/>
<path d="M127.469 80.7715H131.391" stroke="#212121" stroke-width="2" stroke-linecap="round" stroke-linejoin="round"/>
<path d="M1.21973 29.1763H59.7378" stroke="#212121" stroke-width="2" stroke-linecap="round" stroke-linejoin="round"/>
<path d="M65.1289 20.2505H24.1572" stroke="#212121" stroke-width="2" stroke-linecap="round" stroke-linejoin="round"/>
</g>
<defs>
<clipPath id="clip0_134_1658">
<rect width="138" height="97" fill="white"/>
</clipPath>
</defs>
</svg>
