<?xml version="1.0" encoding="UTF-8"?><svg id="uuid-230f1236-1100-41fc-a884-b0ed5d8f817b" xmlns="http://www.w3.org/2000/svg" viewBox="0 0 230 138.77"><g id="uuid-e933051d-6cef-4557-99da-b28ff9881113"><g opacity=".2"><rect width="230" height="138.77" rx="1.45" ry="1.45" fill="#fff" stroke-width="0"/></g><circle cx="8.15" cy="8.09" r="2.42" fill="#232639" stroke-width="0"/><circle cx="15.52" cy="8.09" r="2.42" fill="#232639" stroke-width="0"/><circle cx="22.9" cy="8.09" r="2.42" fill="#232639" stroke-width="0"/><circle cx="22.5" cy="29.71" r="6.98" fill="#dfecfc" stroke-width="0"/><path d="M197.94,26.27c0-.12-.06-.23-.15-.31-.09-.08-.2-.13-.32-.13h-1.4v-1.4c0-.37-.15-.73-.41-.99-.26-.26-.62-.41-.99-.41h-.93c-.37,0-.73.15-.99.41-.26.26-.41.62-.41.99v1.4h-1.4c-.12,0-.23.04-.32.13-.09.08-.14.19-.15.31l-.47,7.48c0,.13.04.25.13.35.09.09.21.15.34.15h7.48c.13,0,.25-.05.34-.15.09-.09.13-.22.13-.35l-.47-7.48ZM193.27,24.43c0-.12.05-.24.14-.33.09-.09.21-.14.33-.14h.93c.12,0,.24.05.33.14.09.09.14.21.14.33v1.4h-1.87v-1.4ZM190.96,33.31l.41-6.54h.96v.47c0,.17.09.32.23.4.14.08.32.08.47,0,.14-.08.23-.24.23-.4v-.47h1.87v.47c0,.17.09.32.23.4.14.08.32.08.47,0,.14-.08.23-.24.23-.4v-.47h.96l.41,6.54h-6.49Z" fill="#232639" stroke-width="0"/><rect x="122.34" y="52.31" width="76.08" height="62.43" rx="3.39" ry="3.39" fill="#eee0fa" stroke-width="0"/><path d="M137.43,98.21l-1.57-.59.77,9.36,6.09,2.28,57.19-.52,22.33-6.01-1.83-7.7-1.45.41" fill="#f5f6fa" stroke-width="0"/><path d="M142.71,110.25c-.12,0-.24-.02-.35-.06l-6.09-2.27c-.36-.14-.61-.47-.65-.85l-.77-9.36c-.03-.34.12-.67.4-.88.27-.21.64-.26.96-.14l1.57.59c.52.2.78.77.58,1.29s-.77.78-1.29.58l-.09-.04.59,7.15,5.32,1.99,56.88-.52,21.27-5.72-1.36-5.74-.45.13c-.53.15-1.08-.16-1.23-.69-.15-.53.16-1.08.69-1.23l1.45-.41c.26-.07.54-.04.78.1.23.14.4.37.47.63l1.83,7.7c.12.53-.19,1.06-.71,1.2l-22.33,6.01c-.08.02-.17.03-.25.03l-57.19.52h0Z" fill="#232639" stroke-width="0"/><path d="M199.9,109.73c-.45,0-.86-.31-.97-.77l-2.03-8.4c-.13-.54.2-1.08.74-1.21.53-.13,1.08.2,1.21.74l2.03,8.4c.13.54-.2,1.08-.74,1.21-.08.02-.16.03-.24.03Z" fill="#232639" stroke-width="0"/><path d="M218.94,95.43l-7.55-4.59-8.88,1.57s-17.73-7.63-18.25-8.02c-.52-.39-11.76-9.94-11.76-9.94l-3.24-10.93-20.02,4.69-9.14-.26,1.96,10.84-4.31,11.55-.32,7.89,6.05,2.49,54.39-.37,21.07-4.9h0Z" fill="#fff" stroke-width="0"/><path d="M143.48,101.7c-.13,0-.26-.03-.38-.08l-6.05-2.49c-.39-.16-.64-.55-.62-.96l.32-7.89c0-.11.03-.21.06-.31l4.21-11.29-1.91-10.57c-.05-.3.03-.6.23-.83.2-.23.47-.36.79-.35l9.01.26,19.89-4.66c.52-.12,1.04.18,1.19.69l3.16,10.65c4.48,3.81,11.08,9.41,11.48,9.71.67.38,10.9,4.83,17.77,7.79l8.58-1.52c.24-.04.49,0,.69.13l7.55,4.59c.35.21.53.61.47,1.01-.06.4-.36.72-.76.82l-21.07,4.9c-.07.02-.15.03-.22.03l-54.39.37h0ZM138.45,97.55l5.22,2.15,54.08-.37,18.57-4.32-5.14-3.12-8.51,1.5c-.19.03-.39.01-.57-.07-8.14-3.5-17.94-7.76-18.46-8.14-.53-.4-10.65-9-11.81-9.98-.15-.13-.26-.29-.31-.48l-2.97-10.03-19.1,4.47c-.08.02-.17.03-.26.03l-7.91-.23,1.74,9.62c.03.18.02.36-.05.53l-4.25,11.4-.29,7.03Z" fill="#232639" stroke-width="0"/><path d="M161.09,74.3c-1.41,0-2.56-1.15-2.56-2.56s1.15-2.56,2.56-2.56,2.56,1.15,2.56,2.56-1.15,2.56-2.56,2.56ZM161.09,71.19c-.31,0-.56.25-.56.56s.25.56.56.56.56-.25.56-.56-.25-.56-.56-.56Z" fill="#232639" stroke-width="0"/><path d="M202.51,93.4s-.03,0-.04,0l-7.51-.3c-.1,0-.2-.02-.3-.06l-8.99-3.24c-.06-.02-.12-.05-.17-.08l-9.37-5.58s-.07-.05-.11-.08l-8.3-6.57c-.12-.09-.21-.21-.27-.34l-5.79-11.64c-.25-.49-.04-1.09.45-1.34.49-.25,1.09-.04,1.34.45l5.69,11.44,8.07,6.39,9.23,5.5,8.76,3.15,7.35.3c.55.02.98.49.96,1.04-.02.54-.46.96-1,.96Z" fill="#232639" stroke-width="0"/><rect x="24.46" y="95.71" width="39.68" height="15.72" rx="7.75" ry="7.75" fill="#eab3ff" stroke-width="0"/><circle cx="153.48" cy="84.64" r="7.25" fill="#eab3ff" stroke-width="0"/><path d="M124.62,31.53h-15.52c-.8,0-1.45-.65-1.45-1.45h0c0-.8.65-1.45,1.45-1.45h15.52c.8,0,1.45.65,1.45,1.45h0c0,.8-.65,1.45-1.45,1.45Z" fill="#dfecfc" stroke-width="0"/><path d="M153.83,30.08h0c0-.8-.65-1.45-1.45-1.45h-15.52c-.8,0-1.45.65-1.45,1.45h0c0,.8.65,1.45,1.45,1.45h15.52c.8,0,1.45-.65,1.45-1.45Z" fill="#dfecfc" stroke-width="0"/><path d="M96.86,31.53c.8,0,1.45-.65,1.45-1.45h0c0-.8-.65-1.45-1.45-1.45h-15.52c-.8,0-1.45.65-1.45,1.45h0c0,.8.65,1.45,1.45,1.45h15.52Z" fill="#dfecfc" stroke-width="0"/><path d="M181.6,30.08h0c0-.8-.65-1.45-1.45-1.45h-15.52c-.8,0-1.45.65-1.45,1.45h0c0,.8.65,1.45,1.45,1.45h15.52c.8,0,1.45-.65,1.45-1.45Z" fill="#dfecfc" stroke-width="0"/><rect x="24.46" y="66.57" width="79.34" height="3.46" rx="1.73" ry="1.73" fill="#232639" stroke-width="0"/><rect x="24.46" y="53.66" width="79.34" height="3.46" rx="1.73" ry="1.73" fill="#232639" stroke-width="0"/><path d="M81.75,79.49H26.19c-.96,0-1.73.78-1.73,1.73h0c0,.96.78,1.73,1.73,1.73h53.83c.96,0,1.73-.78,1.73-1.73v-1.73h0Z" fill="#232639" stroke-width="0"/><path d="M172.04,72.11l-5.07,4.25c-.77.65-.87,1.8-.23,2.58h0c.65.77,1.8.87,2.58.23l5.07-4.25c.77-.65.87-1.8.23-2.58h0c-.65-.77-1.8-.87-2.58-.23Z" fill="#232639" stroke-width="0"/><path d="M178.45,78.54l-3.7,4.04c-.68.75-.63,1.9.11,2.58h0c.75.68,1.9.63,2.58-.11l3.7-4.04c.68-.75.63-1.9-.11-2.58h0c-.75-.68-1.9-.63-2.58.11Z" fill="#232639" stroke-width="0"/><path d="M185.36,84.9l-1.26,3.84c-.31.96.21,1.99,1.17,2.31h0c.96.31,1.99-.21,2.31-1.17l1.26-3.84c.31-.96-.21-1.99-1.17-2.31h0c-.96-.31-1.99.21-2.31,1.17Z" fill="#232639" stroke-width="0"/><polyline points="202.51 92.4 204.4 98.81 218.94 95.43 211.39 90.84 202.51 92.4" fill="#232639" stroke-width="0"/></g></svg>