<?xml version="1.0" encoding="UTF-8"?><svg id="uuid-f77afd87-19e3-42a9-a4c7-99f3afe2caae" xmlns="http://www.w3.org/2000/svg" viewBox="0 0 142.68 86.88"><rect x="1" y="1" width="140.68" height="84.88" fill="#fff" opacity=".2" stroke-width="0"/><path d="M141.68,86.88H1c-.55,0-1-.45-1-1V1C0,.45.45,0,1,0h140.68c.55,0,1,.45,1,1v84.88c0,.55-.45,1-1,1ZM2,84.88h138.68V2H2v82.88Z" fill="#232639" stroke-width="0"/><rect x="86.77" y="11.57" width="54.9" height="74.31" fill="#fff" stroke-width="0"/><path d="M141.68,86.88h-54.9c-.55,0-1-.45-1-1V11.57c0-.55.45-1,1-1h54.9c.55,0,1,.45,1,1v74.31c0,.55-.45,1-1,1ZM87.77,84.88h52.9V12.57h-52.9v72.31Z" fill="#232639" stroke-width="0"/><circle cx="6.13" cy="6.44" r="1.69" fill="#232639" stroke-width="0"/><circle cx="11.28" cy="6.44" r="1.69" fill="#232639" stroke-width="0"/><circle cx="16.42" cy="6.44" r="1.69" fill="#232639" stroke-width="0"/><rect x="10.19" y="33.67" width="46.21" height="33.28" rx="4.73" ry="4.73" fill="#f5f6fa" stroke-width="0"/><path d="M12.75,74.54h41.11c1.41,0,2.55,1.14,2.55,2.55v7.11H10.19v-7.11c0-1.41,1.14-2.55,2.55-2.55Z" fill="#f5f6fa" stroke-width="0"/><rect x="1" y="10.57" width="140.68" height="2" fill="#232639" stroke-width="0"/><rect x="67.12" y="21.91" width="11.22" height="1.76" rx=".84" ry=".84" fill="#98b7ff" stroke-width="0"/><circle cx="13.06" cy="22.79" r="2.86" fill="#98b7ff" stroke-width="0"/><rect x="49.44" y="21.91" width="11.22" height="1.76" rx=".84" ry=".84" fill="#98b7ff" stroke-width="0"/><rect x="31.76" y="21.91" width="11.22" height="1.76" rx=".84" ry=".84" fill="#98b7ff" stroke-width="0"/><path d="M16.16,55.19l-.65-.24.32,3.86,2.51.94,23.56-.22,9.2-2.47-.75-3.17-.6.17" fill="#f5f6fa" stroke-width="0"/><path d="M18.34,60.23c-.06,0-.12-.01-.18-.03l-2.51-.94c-.18-.07-.31-.23-.32-.43l-.32-3.86c-.01-.17.06-.34.2-.44s.32-.13.48-.07l.65.25c.26.1.39.39.29.64-.09.23-.32.36-.55.32l.23,2.76,2.12.79,23.4-.21,8.67-2.33-.52-2.19-.1.03c-.27.08-.54-.08-.62-.35-.07-.27.08-.54.35-.62l.6-.17c.13-.04.27-.02.39.05.12.07.2.18.23.32l.75,3.17c.06.26-.1.53-.36.6l-9.2,2.47s-.08.02-.13.02l-23.56.21h0Z" fill="#232639" stroke-width="0"/><path d="M41.89,60.02c-.23,0-.43-.15-.49-.38l-.83-3.46c-.06-.27.1-.54.37-.6.27-.06.54.1.6.37l.83,3.46c.06.27-.1.54-.37.6-.04,0-.08.01-.12.01Z" fill="#232639" stroke-width="0"/><path d="M49.74,54.04l-3.11-1.89-3.66.65s-7.3-3.14-7.52-3.3c-.22-.16-4.84-4.1-4.84-4.1l-1.34-4.5-8.25,1.93-3.76-.11.81,4.46-1.77,4.76-.13,3.25,2.49,1.03,22.4-.15,8.68-2.02h0Z" fill="#fff" stroke-width="0"/><path d="M18.65,56.71c-.07,0-.13-.01-.19-.04l-2.49-1.03c-.19-.08-.32-.27-.31-.48l.13-3.25c0-.05.01-.1.03-.15l1.73-4.63-.78-4.33c-.03-.15.01-.3.11-.42.1-.11.24-.18.39-.17l3.7.11,8.18-1.92c.26-.06.52.09.59.34l1.29,4.36c1.84,1.56,4.53,3.85,4.71,3.98.28.16,4.56,2.02,7.28,3.19l3.51-.62c.12-.02.24,0,.35.06l3.11,1.89c.17.11.27.31.23.51-.03.2-.18.36-.38.41l-8.68,2.02s-.07.01-.11.01l-22.4.15h0ZM16.67,54.86l2.08.86,22.25-.15,7.43-1.73-1.9-1.16-3.47.61c-.1.02-.2,0-.28-.03-4.88-2.1-7.45-3.23-7.62-3.36-.22-.16-4.09-3.46-4.87-4.11-.07-.06-.13-.15-.16-.24l-1.2-4.05-7.79,1.82s-.09.01-.13.01l-3.15-.09.7,3.86c.02.09,0,.18-.02.26l-1.75,4.68-.12,2.82Z" fill="#232639" stroke-width="0"/><path d="M25.91,45.93c-.9,0-1.64-.74-1.64-1.64s.74-1.64,1.64-1.64,1.64.74,1.64,1.64-.74,1.64-1.64,1.64ZM25.91,43.93c-.2,0-.36.16-.36.36s.16.36.36.36.36-.16.36-.36-.16-.36-.36-.36Z" fill="#232639" stroke-width="0"/><path d="M42.97,53.3h-.02l-3.09-.12c-.05,0-.1-.01-.15-.03l-3.7-1.33-3.94-2.34-3.47-2.75c-.06-.05-.1-.1-.14-.17l-2.39-4.79c-.12-.25-.02-.55.23-.67s.55-.02.67.23l2.34,4.69,3.33,2.64,3.8,2.26,3.54,1.27,3.02.12c.28.01.49.24.48.52-.01.27-.23.48-.5.48Z" fill="#232639" stroke-width="0"/><path d="M30.42,44.44l-2.09,1.75c-.32.27-.36.74-.09,1.06h0c.27.32.74.36,1.06.09l2.09-1.75c.32-.27.36-.74.09-1.06h0c-.27-.32-.74-.36-1.06-.09Z" fill="#232639" stroke-width="0"/><path d="M33.06,47.09l-1.52,1.66c-.28.31-.26.78.05,1.06h0c.31.28.78.26,1.06-.05l1.52-1.66c.28-.31.26-.78-.05-1.06h0c-.31-.28-.78-.26-1.06.05Z" fill="#232639" stroke-width="0"/><path d="M35.9,49.7l-.52,1.58c-.13.4.09.82.48.95h0c.4.13.82-.09.95-.48l.52-1.58c.13-.4-.09-.82-.48-.95h0c-.4-.13-.82.09-.95.48Z" fill="#232639" stroke-width="0"/><polyline points="42.97 52.8 43.75 55.43 49.74 54.04 46.62 52.15 42.97 52.8" fill="#232639" stroke-width="0"/><circle cx="22.77" cy="49.6" r="2.98" fill="#98b7ff" stroke-width="0"/><rect x="85.77" y="11.57" width="2" height="74.31" fill="#232639" stroke-width="0"/><path d="M79,44.52h-14.96c-.55,0-1-.45-1-1s.45-1,1-1h14.96c.55,0,1,.45,1,1s-.45,1-1,1Z" fill="#232639" stroke-width="0"/><path d="M79,54.12h-14.96c-.55,0-1-.45-1-1s.45-1,1-1h14.96c.55,0,1,.45,1,1s-.45,1-1,1Z" fill="#232639" stroke-width="0"/><path d="M78.58,36.95h-14.55c-.83,0-1.5-.67-1.5-1.5s.67-1.5,1.5-1.5h14.55c.83,0,1.5.67,1.5,1.5s-.67,1.5-1.5,1.5Z" fill="#232639" stroke-width="0"/><path d="M79,49.32h-14.96c-.55,0-1-.45-1-1s.45-1,1-1h14.96c.55,0,1,.45,1,1s-.45,1-1,1Z" fill="#232639" stroke-width="0"/><rect x="63.62" y="60.86" width="15.37" height="6.09" rx="2.92" ry="2.92" fill="#9b50d7" stroke-width="0"/><path d="M95.42,28.87l-3.35-3.31,3.35-3.31h2.1l-3.37,3.31,3.37,3.31h-2.1Z" fill="#232639" stroke-width="0"/><path d="M104.68,17.06l-3.96,16.31h-1.63l3.95-16.31h1.65Z" fill="#232639" stroke-width="0"/><path d="M105.96,22.25h2.1l3.35,3.31-3.35,3.31h-2.1l3.37-3.31-3.37-3.31Z" fill="#232639" stroke-width="0"/><path d="M136.38,26.56h-19.02c-.55,0-1-.45-1-1s.45-1,1-1h19.02c.55,0,1,.45,1,1s-.45,1-1,1Z" fill="#232639" stroke-width="0"/><path d="M136.38,33.06h-4.41c-.55,0-1-.45-1-1s.45-1,1-1h4.41c.55,0,1,.45,1,1s-.45,1-1,1Z" fill="#232639" stroke-width="0"/><path d="M129.37,33.06h-4.41c-.55,0-1-.45-1-1s.45-1,1-1h4.41c.55,0,1,.45,1,1s-.45,1-1,1Z" fill="#232639" stroke-width="0"/><path d="M122.36,33.06h-12.79c-.55,0-1-.45-1-1s.45-1,1-1h12.79c.55,0,1,.45,1,1s-.45,1-1,1Z" fill="#232639" stroke-width="0"/><path d="M136.38,59.24h-11.57c-.55,0-1-.45-1-1s.45-1,1-1h11.57c.55,0,1,.45,1,1s-.45,1-1,1Z" fill="#232639" stroke-width="0"/><path d="M122.21,59.24h-3.76c-.55,0-1-.45-1-1s.45-1,1-1h3.76c.55,0,1,.45,1,1s-.45,1-1,1Z" fill="#232639" stroke-width="0"/><path d="M115.84,59.24h-16.84c-.55,0-1-.45-1-1s.45-1,1-1h16.84c.55,0,1,.45,1,1s-.45,1-1,1Z" fill="#232639" stroke-width="0"/><path d="M124.52,52.72h-25.35c-.55,0-1-.45-1-1s.45-1,1-1h25.35c.55,0,1,.45,1,1s-.45,1-1,1Z" fill="#232639" stroke-width="0"/><path d="M125.08,39.69h-3.76c-.55,0-1-.45-1-1s.45-1,1-1h3.76c.55,0,1,.45,1,1s-.45,1-1,1Z" fill="#232639" stroke-width="0"/><path d="M106.57,39.69h-14.21c-.55,0-1-.45-1-1s.45-1,1-1h14.21c.55,0,1,.45,1,1s-.45,1-1,1Z" fill="#232639" stroke-width="0"/><path d="M118.76,39.69h-3.51c-.55,0-1-.45-1-1s.45-1,1-1h3.51c.55,0,1,.45,1,1s-.45,1-1,1Z" fill="#232639" stroke-width="0"/><path d="M112.64,39.69h-3.31c-.55,0-1-.45-1-1s.45-1,1-1h3.31c.55,0,1,.45,1,1s-.45,1-1,1Z" fill="#232639" stroke-width="0"/><path d="M133.35,52.72h-1.73c-.55,0-1-.45-1-1s.45-1,1-1h1.73c.55,0,1,.45,1,1s-.45,1-1,1Z" fill="#232639" stroke-width="0"/><path d="M129.01,52.72h-1.73c-.55,0-1-.45-1-1s.45-1,1-1h1.73c.55,0,1,.45,1,1s-.45,1-1,1Z" fill="#232639" stroke-width="0"/><path d="M122.69,46.21h-3.76c-.55,0-1-.45-1-1s.45-1,1-1h3.76c.55,0,1,.45,1,1s-.45,1-1,1Z" fill="#232639" stroke-width="0"/><path d="M111.99,46.21h-19.63c-.55,0-1-.45-1-1s.45-1,1-1h19.63c.55,0,1,.45,1,1s-.45,1-1,1Z" fill="#232639" stroke-width="0"/><path d="M130.31,46.21h-5.01c-.55,0-1-.45-1-1s.45-1,1-1h5.01c.55,0,1,.45,1,1s-.45,1-1,1Z" fill="#232639" stroke-width="0"/><path d="M116.33,46.21h-1.73c-.55,0-1-.45-1-1s.45-1,1-1h1.73c.55,0,1,.45,1,1s-.45,1-1,1Z" fill="#232639" stroke-width="0"/><path d="M106.17,78.78h-10.27c-.55,0-1-.45-1-1s.45-1,1-1h10.27c.55,0,1,.45,1,1s-.45,1-1,1Z" fill="#232639" stroke-width="0"/><path d="M113.83,78.78h-5.06c-.55,0-1-.45-1-1s.45-1,1-1h5.06c.55,0,1,.45,1,1s-.45,1-1,1Z" fill="#232639" stroke-width="0"/><path d="M122.89,78.78h-6.45c-.55,0-1-.45-1-1s.45-1,1-1h6.45c.55,0,1,.45,1,1s-.45,1-1,1Z" fill="#232639" stroke-width="0"/><path d="M125.73,65.75h-21.51c-.55,0-1-.45-1-1s.45-1,1-1h21.51c.55,0,1,.45,1,1s-.45,1-1,1Z" fill="#232639" stroke-width="0"/><path d="M96.48,65.75h-1.73c-.55,0-1-.45-1-1s.45-1,1-1h1.73c.55,0,1,.45,1,1s-.45,1-1,1Z" fill="#232639" stroke-width="0"/><path d="M101.47,65.75h-2.38c-.55,0-1-.45-1-1s.45-1,1-1h2.38c.55,0,1,.45,1,1s-.45,1-1,1Z" fill="#232639" stroke-width="0"/><path d="M99.16,72.26h-3.76c-.55,0-1-.45-1-1s.45-1,1-1h3.76c.55,0,1,.45,1,1s-.45,1-1,1Z" fill="#232639" stroke-width="0"/><path d="M125.73,72.26h-19.63c-.55,0-1-.45-1-1s.45-1,1-1h19.63c.55,0,1,.45,1,1s-.45,1-1,1Z" fill="#232639" stroke-width="0"/><path d="M103.49,72.26h-1.73c-.55,0-1-.45-1-1s.45-1,1-1h1.73c.55,0,1,.45,1,1s-.45,1-1,1Z" fill="#232639" stroke-width="0"/></svg>