<?xml version="1.0" encoding="UTF-8"?><svg id="uuid-46cc9fdc-2f4b-4cb5-b39a-bdcd1a2a0a95" xmlns="http://www.w3.org/2000/svg" viewBox="0 0 230 138.8"><g id="uuid-4f415590-47c3-43c6-88ac-a687df5b2b87"><path d="M2.25,0h225.5c1.24,0,2.25,1.01,2.25,2.25v136.55H0V2.25C0,1.01,1.01,0,2.25,0Z" fill="#fff" opacity=".2" stroke-width="0"/><circle cx="8.15" cy="7.7" r="2.42" fill="#232639" stroke-width="0"/><circle cx="15.52" cy="7.7" r="2.42" fill="#232639" stroke-width="0"/><circle cx="22.9" cy="7.7" r="2.42" fill="#232639" stroke-width="0"/><rect x="114.48" y="27.87" width="18.42" height="2.89" rx="1.45" ry="1.45" fill="#232639" stroke-width="0"/><rect x="141.73" y="27.87" width="18.42" height="2.89" rx="1.45" ry="1.45" fill="#232639" stroke-width="0"/><rect x="169.59" y="27.87" width="18.42" height="2.89" rx="1.45" ry="1.45" fill="#232639" stroke-width="0"/><rect x="196.84" y="27.87" width="18.42" height="2.89" rx="1.45" ry="1.45" fill="#232639" stroke-width="0"/><rect x="87.23" y="41.42" width="127.86" height="67.25" rx="4.06" ry="4.06" fill="#f5f6fa" stroke-width="0"/><rect x="15.52" y="41.42" width="91.01" height="67.25" rx="3.73" ry="3.73" fill="#c6d4f4" stroke-width="0"/><polygon points="34 89.97 84.52 89.97 71.32 69.16 64.54 78.62 49.21 60.45 34 89.97" fill="#fff" stroke-width="0"/><circle cx="76.77" cy="60.45" r="5.78" fill="#fff" stroke-width="0"/><path d="M15.52,137.84v-13.78c0-3.81,3.61-6.9,8.07-6.9h111.73c4.45,0,8.07,3.09,8.07,6.9v13.78H15.52Z" fill="#f5f6fa" stroke-width="0"/><path d="M125.32,137.84v-11.8c0-4.91,4.38-8.88,9.79-8.88h71.69c5.4,0,9.79,3.98,9.79,8.88v11.8h-91.26Z" fill="#dfecfc" stroke-width="0"/><circle cx="22.5" cy="29.32" r="6.98" fill="#dfecfc" stroke-width="0"/><rect x="120.47" y="83.81" width="31.1" height="12.32" rx="6.16" ry="6.16" fill="#98b7ff" stroke-width="0"/><rect x="120.47" y="71.74" width="79.34" height="3.46" rx="1.73" ry="1.73" fill="#232639" stroke-width="0"/><rect x="120.47" y="58.83" width="79.34" height="3.46" rx="1.73" ry="1.73" fill="#232639" stroke-width="0"/></g></svg>