<?xml version="1.0" encoding="UTF-8"?><svg id="uuid-132d377f-9fc7-4a0a-a7ac-9736de3ae426" xmlns="http://www.w3.org/2000/svg" viewBox="0 0 421.713 404.498"><path d="m29.987,333.124l7.641-26.314,37.3,7.132-4.595,27.22-7.325,5.638-33.021-13.676Zm363.313.786l-6.222-20.632-36.614,6.347,1.967,21.538,7.325,5.638,33.544-12.89Z" fill="#fff2aa" stroke="#232639" stroke-linecap="round" stroke-linejoin="round" stroke-width="2"/><rect x="112.03" y="171.166" width="203.839" height="122.988" rx="2.6" ry="2.6" fill="#98b7ff" stroke="#98b7ff" stroke-linecap="round" stroke-linejoin="round" stroke-width="2"/><rect x="106.917" y="165.322" width="203.839" height="122.988" rx="2.948" ry="2.948" fill="#fff" stroke="#232639" stroke-linecap="round" stroke-linejoin="round" stroke-width="2"/><path d="m120.802,213.963h63.108c1.771,0,3.207,1.311,3.207,2.928v50.097c0,1.617-1.436,2.928-3.207,2.928h-63.108c-1.771,0-3.207-1.311-3.207-2.928v-50.097c0-1.617,1.436-2.928,3.207-2.928Z" fill="#dfecfc" stroke-width="0"/><line x1="106.917" y1="179.399" x2="310.756" y2="179.399" fill="none" stroke="#232639" stroke-linecap="round" stroke-linejoin="round" stroke-width="2"/><rect x="198.054" y="250.149" width="31.62" height="12.528" rx="6.264" ry="6.264" fill="#98b7ff" stroke-width="0"/><path d="m173.482,194.904h-13.757c-.708,0-1.283-.574-1.283-1.283h0c0-.708.574-1.283,1.283-1.283h13.757c.708,0,1.283.574,1.283,1.283h0c0,.708-.574,1.283-1.283,1.283Zm25.431-1.283h0c0-.708-.574-1.283-1.283-1.283h-13.757c-.708,0-1.283.574-1.283,1.283h0c0,.708.574,1.283,1.283,1.283h13.757c.708,0,1.283-.574,1.283-1.283Zm24.693,0h0c0-.708-.574-1.283-1.283-1.283h-13.757c-.708,0-1.283.574-1.283,1.283h0c0,.708.574,1.283,1.283,1.283h13.757c.708,0,1.283-.574,1.283-1.283Zm24.148,0h0c0-.708-.574-1.283-1.283-1.283h-13.757c-.708,0-1.283.574-1.283,1.283h0c0,.708.574,1.283,1.283,1.283h13.757c.708,0,1.283-.574,1.283-1.283Zm-123.582,6.853c3.785,0,6.853-3.068,6.853-6.853s-3.068-6.853-6.853-6.853-6.853,3.068-6.853,6.853,3.068,6.853,6.853,6.853Z" fill="#98e5b9" stroke-width="0"/><path d="m25.54,330.383l37.468,16.417,8.792-6.655-1.759,30.937-24.192,15.876-31.234-25.311,10.925-31.264Zm371.966,1.097l-37.734,11.959-10.95-3.717,2.126,29.396,20.536,9.653,35.81-17.682-9.789-29.608Z" fill="#46d98d" stroke="#232639" stroke-linecap="round" stroke-linejoin="round" stroke-width="2"/><path d="m116.364,172.064c.253,1.651-1.149,3.053-2.8,2.8-1.029-.157-1.87-.998-2.027-2.027-.253-1.651,1.149-3.053,2.8-2.8,1.029.157,1.87.998,2.027,2.027Zm5.432-2.027c-1.651-.253-3.053,1.149-2.8,2.8.157,1.029.998,1.87,2.027,2.027,1.651.253,3.053-1.149,2.8-2.8-.157-1.029-.998-1.87-2.027-2.027Zm7.459,0c-1.651-.253-3.053,1.149-2.8,2.8.157,1.029.998,1.87,2.027,2.027,1.651.253,3.053-1.149,2.8-2.8-.157-1.029-.998-1.87-2.027-2.027Zm116.62,54.286h-47.821v3.069h47.821v-3.069Zm-17.026,11.445h-30.795v3.069h40.718v-3.069h-9.923Z" fill="#232639" stroke-width="0"/><rect x="258.61" y="179.358" width="52.15" height="108.951" fill="#162d59" stroke="#232639" stroke-linecap="round" stroke-linejoin="round" stroke-width="2"/><path d="m300.636,219.269h3.005v2.758h-3.005v-2.758Zm-36.645-23.973h8.626v-2.758h-8.626v2.758Zm0,77.435h8.626v2.758h-8.626v-2.758Zm0-60.145h8.626v2.758h-8.626v-2.758Zm26.161,0h8.127v2.758h-8.127v-2.758Zm-26.161,6.683h13.673v2.758h-13.673v-2.758Zm16.326,0h17.963v2.758h-17.963v-2.758Zm2.325,13.366h5.998v2.758h-5.998v-2.758Zm-18.651,13.366h9.296v2.758h-9.296v-2.758Zm0,20.048h5.142v2.758h-5.142v-2.758Z" fill="#46d98d" stroke-width="0"/><path d="m297.472,225.952h3.066v2.758h-3.066v-2.758Zm-7.319-30.656h8.127v-2.758h-8.127v2.758Zm-14.829-2.758h12.123v2.758h-12.123v-2.758Zm.663,13.366h11.453v2.758h-11.453v-2.758Zm-11.995,0h9.296v2.758h-9.296v-2.758Zm0-6.683h13.673v2.758h-13.673v-2.758Zm16.326,0h17.963v2.758h-17.963v-2.758Zm9.835,73.51h8.127v2.758h-8.127v-2.758Zm-14.829,0h12.123v2.758h-12.123v-2.758Zm0-60.145h12.123v2.758h-12.123v-2.758Zm7.982,13.366h11.453v2.758h-11.453v-2.758Zm-11.995,0h9.296v2.758h-9.296v-2.758Zm0,6.683h8.626v2.758h-8.626v-2.758Zm4.675,13.366h11.453v2.758h-11.453v-2.758Zm-11.995-6.683h13.673v2.758h-13.673v-2.758Zm7.319,13.366h8.626v2.758h-8.626v-2.758Zm11.332,0h12.123v2.758h-12.123v-2.758Zm-11.332,6.683h11.086v2.758h-11.086v-2.758Z" fill="#98b7ff" stroke-width="0"/><path d="m133.13,143.644c15.367-25.847,43.573-43.168,75.824-43.168s60.457,17.321,75.824,43.168" fill="none" stroke="#fff" stroke-linecap="round" stroke-linejoin="round" stroke-width="2"/><path id="uuid-e4215530-a509-4552-8dfe-876b466809db" d="m176.192,11.34L210.985,1l33.65,10.34-4.937,39.285-28.714,37.273-28.734-37.271-6.059-39.287h0Z" fill="#fff" stroke="#232639" stroke-linecap="round" stroke-linejoin="round" stroke-width="2"/><path d="m227.854,43.09l11.845,7.537m-63.507-39.287l19.326,12.94m-13.267,26.347l11.862-7.537m50.522-31.75l-18.214,12.897m-15.437,29.303v34.361m0-86.9v15.207" fill="none" stroke="#232639" stroke-linecap="round" stroke-linejoin="round" stroke-width="2"/><path id="uuid-b78792cd-f1d7-496d-9b9c-a7f874aa16b9" d="m229.769,34.873c.066,10.374-8.291,18.837-18.665,18.903-10.374.066-18.837-8.291-18.903-18.665-.066-10.374,8.291-18.837,18.665-18.903h.118c10.342-.032,18.751,8.324,18.785,18.666h0Z" fill="#98e5b9" stroke="#232639" stroke-linecap="round" stroke-linejoin="round" stroke-width="2"/><polyline id="uuid-b6f09b14-0add-4844-98f7-0b409f932738" points="218.802 29.372 208.586 40.374 203.168 34.711" fill="none" stroke="#232639" stroke-linecap="round" stroke-linejoin="round" stroke-width="2"/><path d="m106.766,53.901c-6.89-.02-13.124,2.063-18.54,6.254-4.236,3.278-7.441,7.422-9.481,12.476-1.487,3.683-2.284,7.443-2.266,11.386.029,6.251,1.735,11.982,5.316,17.151,4.212,6.08,9.845,10.114,16.975,12.08,6.21,1.712,12.369,1.409,18.379-.746,5.924-2.123,10.737-5.857,14.391-10.992,3.118-4.382,4.946-9.306,5.395-14.653.333-3.962-.07-7.887-1.277-11.73-1.677-5.342-4.605-9.847-8.733-13.578-4.024-3.637-8.762-5.946-14.037-7.081-1.966-.423-3.997-.645-6.034-.567" fill="#fff" stroke="#232639" stroke-linecap="round" stroke-linejoin="round" stroke-width="2"/><path d="m106.766,53.901c-6.89-.02-13.124,2.063-18.54,6.254-4.236,3.278-7.441,7.422-9.481,12.476-1.487,3.683-2.284,7.443-2.266,11.386.029,6.251,1.735,11.982,5.316,17.151,4.212,6.08,9.845,10.114,16.975,12.08,6.21,1.712,12.369,1.409,18.379-.746,5.924-2.123,10.737-5.857,14.391-10.992,3.118-4.382,4.946-9.306,5.395-14.653.333-3.962-.07-7.887-1.277-11.73-1.677-5.342-4.605-9.847-8.733-13.578-4.024-3.637-8.762-5.946-14.037-7.081-1.966-.423-3.997-.645-6.034-.567" fill="#98e5b9" stroke="#232639" stroke-linecap="round" stroke-linejoin="round" stroke-width="2"/><path d="m94.52,86.069v15.46m0-35.46v11.871m12.331,17.975v5.613m0-35.46v21.717m12.331-10.644v24.386m0-35.46v2.853" fill="#fff" stroke="#232639" stroke-linecap="round" stroke-linejoin="round" stroke-width="2"/><path d="m98.56,81.998c0,2.267-1.838,4.105-4.105,4.105s-4.105-1.838-4.105-4.105,1.838-4.105,4.105-4.105,4.105,1.838,4.105,4.105Zm8.193,5.753c-2.267,0-4.105,1.838-4.105,4.105s1.838,4.105,4.105,4.105,4.105-1.838,4.105-4.105-1.838-4.105-4.105-4.105Zm12.317-18.779c-2.267,0-4.105,1.838-4.105,4.105s1.838,4.105,4.105,4.105,4.105-1.838,4.105-4.105-1.838-4.105-4.105-4.105Z" fill="#fff" stroke="#232639" stroke-linecap="round" stroke-linejoin="round" stroke-width="2"/><path d="m32.918,313.944l8.176-21.87-4.728-44.861,22.083-35.675,3.647-1.773,6.493,3.974.105,24.261,5.326,16.923,7.313-35.099,11.777-7.003.325,60.859-16.055,27.223-1.228,22.305-43.233-9.264Zm355.489-1.452l-6.271-19.04,5.198-43.338-24.032-41.503-3.647-1.773-6.493,3.974-.522,25.037-3.895,19.073-4.597-37.114-12.065-8.862-2.752,64.733,16.055,27.223,2.359,19.869,40.664-8.281Z" fill="#fff" stroke="#232639" stroke-linecap="round" stroke-linejoin="round" stroke-width="2"/><path d="m83.081,207.475l1.723-.584-2.995,9.98-15.672,5.585m-3.575,12.779l14.192-10.362,2.101-6.949-12.718,4.532m2.863-4.567l17.651-13.054,2.346-13.406-30.549,20.109" fill="#fff" stroke="#232639" stroke-linecap="round" stroke-linejoin="round" stroke-width="2"/><polyline points="68.694 238 72.146 214.021 83.547 201.236 79.882 187.426 59.96 209.209 50.442 238.815" fill="#fff" stroke="#232639" stroke-linecap="round" stroke-linejoin="round" stroke-width="2"/><line x1="70.947" y1="300.562" x2="77.38" y2="300.903" fill="#fff" stroke="#232639" stroke-linecap="round" stroke-linejoin="round" stroke-width="2"/><polyline points="48.227 290.744 39.523 289.656 37.979 297.388 45.325 296.546" fill="#fff" stroke="#232639" stroke-linecap="round" stroke-linejoin="round" stroke-width="2"/><path d="m355.613,219.529l-15.672-5.585-2.995-9.98,14.159,5.221m6.366,10.816l-14.576-5.005,2.82,8.014,14.487,12.224" fill="#fff" stroke="#232639" stroke-linecap="round" stroke-linejoin="round" stroke-width="2"/><polyline points="363.302 208.611 330.27 190.954 332.616 204.36 352.75 214.962" fill="#fff" stroke="#232639" stroke-linecap="round" stroke-linejoin="round" stroke-width="2"/><polyline points="352.519 235.608 349.369 211.308 337.968 198.522 344.133 185.274 361.791 206.282 370.281 238.924" fill="#fff" stroke="#232639" stroke-linecap="round" stroke-linejoin="round" stroke-width="2"/><path d="m1,403.498l15.957-41.201,30.048,14.687,23.713-6.26,1.492,32.775m348.503,0l-14.144-41.685-36.613,11.152-19.685-4.206-.147,34.739" fill="#46d98d" stroke="#232639" stroke-linecap="round" stroke-linejoin="round" stroke-width="2"/><polyline points="371.74 293.21 384.312 289.583 384.444 297.303 377.239 296.96" fill="#fff" stroke="#232639" stroke-linecap="round" stroke-linejoin="round" stroke-width="2"/><path d="m16.397,357.485l30.625,19.498-32.407-15.337,1.782-4.161Zm13.737-25.168l3.872,1.775,3.26-19.062-2.055-.604-5.077,17.891Zm320.239,41.464l19.584-.816-19.584-3.717v4.533Zm6.377-32.035l-3.868-22.606-2.418.484,2.176,20.551,4.11,1.572Zm-3.385-22.606c-.605-1.261-6.759-22.261-6.759-22.261l-17.276-23.199,16.055,27.223,2.722,19.506,5.259-1.269Z" fill="#232639" stroke="#232639" stroke-linecap="round" stroke-linejoin="round" stroke-width="2"/><path d="m29.65,353.593c0,1.602-1.299,2.901-2.901,2.901s-2.901-1.299-2.901-2.901,1.299-2.901,2.901-2.901,2.901,1.299,2.901,2.901Zm364.943-.967c-1.602,0-2.901,1.299-2.901,2.901s1.299,2.901,2.901,2.901,2.901-1.299,2.901-2.901-1.299-2.901-2.901-2.901Z" fill="#46d98d" stroke="#232639" stroke-linecap="round" stroke-linejoin="round" stroke-width="2"/><path d="m326.834,60.631v-3.61c-.753-.753-1.175-1.175-1.928-1.928h-10.542c-.753.753-1.175,1.175-1.928,1.928v3.61h-5.722v-3.61c-.753-.753-1.175-1.175-1.928-1.928h-10.542c-.753.753-1.175,1.175-1.928,1.928v3.61h-3.322v13.105h40.977v-13.105h-3.138Z" fill="#98e5b9" stroke="#232639" stroke-linecap="round" stroke-linejoin="round" stroke-width="2"/><line x1="292.318" y1="60.631" x2="326.834" y2="60.631" fill="#98e5b9" stroke="#232639" stroke-linecap="round" stroke-linejoin="round" stroke-width="2"/><path d="m326.834,86.931v-3.61c-.753-.753-1.175-1.175-1.928-1.928h-10.542c-.753.753-1.175,1.175-1.928,1.928v3.61h-5.722v-3.61c-.753-.753-1.175-1.175-1.928-1.928h-10.542c-.753.753-1.175,1.175-1.928,1.928v3.61h-3.322v26.213h40.977v-26.213h-3.138Z" fill="#fff" stroke="#232639" stroke-linecap="round" stroke-linejoin="round" stroke-width="2"/><rect x="288.995" y="86.931" width="40.977" height="13.105" fill="#fff" stroke="#232639" stroke-linecap="round" stroke-linejoin="round" stroke-width="2"/><path d="m320.991,305.744l4.57-.895-.319-7.882-4.498-.724c-.417-1.354-1.21-2.819-1.816-4.229l2.418-3.994-5.769-5.406-3.7,2.793c-1.45-.637-2.712-1.217-4.218-1.665l-.95-4.381-7.882.319-.724,4.498c-1.542.361-2.819,1.21-4.229,1.816l-3.994-2.418-5.406,5.769,2.793,3.7c-.825,1.394-1.273,2.9-1.665,4.218l-4.381.95.319,7.882,4.498.724c.361,1.542,1.21,2.819,1.816,4.229l-2.418,3.994,5.769,5.405,3.7-2.793c1.394.825,2.712,1.217,4.218,1.665l.95,4.382,7.882-.319.724-4.498c1.354-.417,2.819-1.21,4.229-1.815l3.994,2.418,5.406-5.769-2.793-3.7c.636-1.45,1.217-2.712,1.477-4.274Zm-19.632,2.614c-3.77-1.122-5.917-5.088-4.795-8.859,1.122-3.77,5.088-5.917,8.858-4.795,3.77,1.122,5.917,5.088,4.795,8.859s-5.088,5.917-8.858,4.795Zm-22.53,19.028l3.126-.612-.218-5.391-3.077-.495c-.285-.926-.828-1.928-1.242-2.893l1.654-2.732-3.946-3.697-2.531,1.91c-.992-.435-1.855-.832-2.885-1.139l-.65-2.997-5.392.218-.495,3.077c-1.055.247-1.928.828-2.893,1.242l-2.732-1.654-3.697,3.946,1.91,2.531c-.564.954-.871,1.984-1.139,2.885l-2.997.65.218,5.392,3.077.495c.247,1.055.828,1.928,1.242,2.893l-1.654,2.732,3.946,3.697,2.531-1.91c.954.564,1.855.832,2.885,1.139l.65,2.997,5.392-.218.495-3.077c.926-.285,1.928-.828,2.893-1.242l2.732,1.654,3.697-3.946-1.91-2.531c.435-.992.832-1.855,1.01-2.923Zm-12.866-.103c-1.535-.457-2.409-2.071-1.952-3.606s2.071-2.409,3.606-1.952,2.409,2.071,1.952,3.606-2.071,2.409-3.606,1.952Z" fill="#cef4e0" stroke="#232639" stroke-linecap="round" stroke-linejoin="round" stroke-width="2"/></svg>