<?xml version="1.0" encoding="UTF-8"?>
<svg id="Layer_1" xmlns="http://www.w3.org/2000/svg" version="1.1" viewBox="0 0 156 120">
  <!-- Generator: Adobe Illustrator 29.1.0, SVG Export Plug-In . SVG Version: 2.1.0 Build 142)  -->
  <defs>
    <style>
      .st0 {
        fill: none;
      }

      .st1 {
        fill: #dfecfc;
      }

      .st2 {
        fill: #232639;
      }

      .st3 {
        fill: #4343f0;
      }

      .st4 {
        fill: #f9f9f9;
      }
    </style>
  </defs>
  <polygon class="st1" points="117.1 13.1 117.1 45.1 117.1 82 55.5 82 29.7 104.2 29.7 82 13.7 82 13.7 71 1.3 71 1.3 2 104.8 2 104.8 13.1 117.1 13.1"/>
  <path class="st2" d="M98.6,37.5H32.1c-.6,0-1-.4-1-1s.4-1,1-1h66.5c.6,0,1,.4,1,1s-.4,1-1,1Z"/>
  <path class="st2" d="M76.5,49.8h-44.4c-.6,0-1-.4-1-1s.4-1,1-1h44.4c.6,0,1,.4,1,1s-.4,1-1,1Z"/>
  <path class="st2" d="M50.8,62.1h-18.7c-.6,0-1-.4-1-1s.4-1,1-1h18.7c.6,0,1,.4,1,1s-.4,1-1,1Z"/>
  <path class="st2" d="M102.2,90s0-.2,0-.2h0c0,0,0,.2,0,.2Z"/>
  <path class="st2" d="M124.6,66.9h-.2s.2,0,.2,0h0Z"/>
  <g>
    <path class="st0" d="M133.1,73.6l-6.2-6.4c-6.9-4.2-16-3.3-21.9,2.6-6.1,6.1-6.9,15.6-2.2,22.5l4.1,4.3c6.5,4.9,15.4,4.8,21.8-.2l4.5-5.4h0c3-5.4,3-12.1-.1-17.6v.2Z"/>
    <path class="st4" d="M133.2,73.7h-.1c3.1,5.3,3.2,12,.1,17.5l17.1,8.6c7.4-14,5.2-31.6-6.6-43.4-.4-.4-.9-.9-1.4-1.3,3.6,4.1,6.8,9.7,6.8,9.7l-16,9h0Z"/>
    <path class="st4" d="M134.7,114.9l-8.3-15.8,2.2-2.6c-6.4,5-15.4,5.1-21.8.2l1.3,1.3-8.5,15c-4.8,1.7-13.9-13.9-13.9-13.9l15.7-8.2,1.4,1.5c-4.6-6.9-3.9-16.4,2.2-22.5s15-6.8,21.9-2.6l-1.6-1.6,10-14.7c.4-.2.9-.2,1.4,0-14.2-8.6-33-6.8-45.2,5.5-14.4,14.4-14.4,37.8,0,52.3,14.4,14.4,37.8,14.4,52.3,0,1-1,2-2.1,2.8-3.2-2.5,2.9-6.3,6.5-11.8,9.5v-.2ZM101.3,50.2l7.9,15.2-6.8,6.6-16-8.9s3.3-6.5,14.9-13h0Z"/>
    <path class="st3" d="M104.9,95.1c.6.6,1.2,1.1,1.9,1.6l-4.1-4.3c.6,1,1.4,1.9,2.2,2.7Z"/>
    <path class="st3" d="M103.3,93l-1.4-1.5-15.7,8.2s9.1,15.7,13.9,13.9l8.5-15-1.3-1.3c-.6-.5-1.3-1-1.9-1.6-.9-.9-1.6-1.8-2.2-2.7h0Z"/>
    <path class="st3" d="M110.3,66.4l-9-16.3c-11.5,6.4-14.9,13-14.9,13l16,8.9,7.8-5.6h0Z"/>
    <path class="st3" d="M136.7,50.8c2,1.2,3.9,2.6,5.6,4.2-1.9-2.1-3.9-3.9-5.6-4.2Z"/>
    <path class="st3" d="M130.2,69.8c-1-1-2.2-1.9-3.4-2.6l6.2,6.4c-.8-1.3-1.7-2.6-2.8-3.7h0Z"/>
    <path class="st3" d="M135.3,50.9l-10,14.7,1.6,1.6c1.2.7,2.3,1.6,3.4,2.6,1.1,1.1,2.1,2.4,2.8,3.7h.1c0,0,17.8-8.4,17.8-8.4,0,0-5.1-6-8.7-10.1-1.8-1.6-3.7-3-5.6-4.2h-1.4Z"/>
    <path class="st3" d="M150.3,99.7c-1,2-2.3,3.9-3.7,5.7,2.8-3.2,3.9-5.6,3.9-5.6h-.2Z"/>
    <path class="st3" d="M133.6,90.9c-.8,1.4-1.8,2.7-3,3.9-.5.5-1,1-1.6,1.4l-2.2,2.6,8.3,15.8c5.5-3,9.3-6.6,11.8-9.5,1.4-1.8,2.7-3.7,3.7-5.7l-17.1-8.6h.1Z"/>
  </g>
  <path class="st2" d="M151,63.8c-1.7-3.2-3.9-6.1-6.4-8.7-1.9-1.9-4-3.7-6.4-5.2-1.6-1-3.3-1.9-5-2.7-4.2-1.9-8.8-3-13.5-3.2-.5,0-1,0-1.6,0V12.6c0-.5-.5-1-1-1h-11.3V1.5c0-.5-.4-1-1-1H1.4C.9.5.4,1,.4,1.5v69c0,.6.5,1,1,1h11.3v10.1c0,.6.5,1,1,1h15v21.2c0,.4.2.8.6.9h.4c.2,0,.5,0,.7-.2l25.6-21.9h23.8c.2,9.8,4,19.2,11.1,26.1,7.4,7.4,17.1,11.1,26.8,11.1s13.2-1.7,18.9-5c5.6-3.2,10.4-8,13.7-13.5,3.6-6.1,5.4-13.2,5.3-20.2-.1-6-1.7-11.9-4.6-17.2ZM143.2,56.4s0,0,0,0c1.1,1.1,2.1,2.3,3.1,3.5.3.3,2.9,4.2,2.8,4.3,0,0-15.1,8-15.1,8-.8-1.3-1.7-2.5-2.9-3.7-1.2-1.2-2.7-2.3-4.2-3.1l8.4-14.9c2.8,1.6,5.5,3.6,7.8,5.8ZM105.8,70.5c.1-.1.3-.3.4-.4,2.8-2.7,6.4-4.3,10.1-4.7v15.2h-15c.3-3.7,1.8-7.3,4.5-10.1ZM87.3,62.8c-.1,0,3.1-4.2,3.4-4.6.5-.6,1.1-1.2,1.7-1.8,1-1,2.1-2,3.3-2.9.4-.3,5.6-3.8,5.7-3.6,0,0,7.5,15.3,7.5,15.3-1.5.8-3,1.9-4.3,3.2-.8.8-1.6,1.7-2.2,2.6,0,0-15-8.3-15-8.3ZM117.2,82.6c.6,0,1-.4,1-1v-16.4c3.6,0,7.2,1.1,10.2,3.4.5.4,1.1.9,1.5,1.4,1.3,1.4,2.2,2.6,3,4,1.3,2.3,1.9,5.1,1.9,7.9,0,3.5-1.2,7-3.1,9.7-3.1,4.4-8.4,7.2-13.8,7.2s-8.8-1.8-11.9-4.9c-3.1-3.1-4.7-7.2-4.8-11.4h16ZM131.6,48.7c.7.3,1.4.6,2.1,1l-8.5,14.9c-2.2-1-4.6-1.4-7-1.5-.7,0-1.3,0-2,0-1.9.2-3.8.6-5.6,1.4,0,0-7.5-15.3-7.5-15.3-.2-.4,7.5-2.4,8.1-2.6,1.6-.3,3.3-.5,5-.6.5,0,1.1,0,1.6,0,.1,0,.3,0,.4,0,4.6,0,9.1.8,13.4,2.6ZM12.8,12.6v56.9H2.4V2.5h101.5v9.1H13.8c-.5,0-1,.5-1,1ZM79.9,80.6h-24.1c-.2,0-.5,0-.7.2l-24.2,20.8v-20c0-.5-.4-1-1-1h-15V13.6h101.4v30.4c-8.3.4-16.3,3.4-22.7,8.8-7.6,6.3-12.5,15.4-13.5,25.3,0,.8-.1,1.7-.2,2.5ZM82,82.6c0-.2,0-.5,0-.7,0-.4,0-.9,0-1.3.2-5.6,1.7-11.2,4.4-16l14.9,8.3c-1.3,2.4-2,5-2.2,7.7,0,.7,0,1.3,0,2,0,2.5.7,4.9,1.7,7.2l-15.1,8c-2.3-4.7-3.6-9.9-3.7-15.2ZM92.4,107.4c-2.3-2.3-4.3-5-5.9-7.8l15.1-8c.8,1.3,1.7,2.6,2.9,3.7,1,1,2.1,1.9,3.3,2.6l-8.6,14.8c-2.4-1.5-4.7-3.2-6.8-5.3ZM101,113.7h-.1l8.6-14.8c2.5,1.2,5.4,1.9,8.3,1.9s5.5-.6,7.9-1.7l8,15.1c-10.3,5.1-22.6,4.9-32.7-.5ZM145.7,104.5c-.8,1-1.6,1.9-2.5,2.8-2.3,2.3-4.8,4.4-7.7,6l-8-15.1c1.3-.8,2.6-1.8,3.7-2.9,1.1-1.1,2.3-2.7,3.1-4.2,0,0,14.9,8.4,14.9,8.4.2,0-3.1,4.6-3.5,5ZM150.1,97.9s-14.9-8.5-14.9-8.5c2.1-4.9,2-10.5-.2-15.3,0,0,15.1-8,15.1-8,0,0,1.7,4.2,1.9,4.5.5,1.6,1,3.3,1.3,5,1.3,7.1.4,14.5-2.5,21-.2.4-.4.8-.6,1.2Z"/>
</svg>