<svg viewBox="0 0 20 20" fill="none" xmlns="http://www.w3.org/2000/svg">
<g id="Group 12">
<path id="ai-image-gallery" d="M2.30469 19.6452C1.70469 19.6452 1.30469 19.4452 0.904687 19.0452C0.504687 18.6452 0.304688 18.1452 0.304688 17.6452V3.64516C0.304688 3.04516 0.504687 2.64516 0.904687 2.24516C1.30469 1.84516 1.80469 1.64516 2.30469 1.64516H10.3047V3.64516H2.30469V17.6452H16.3047V9.64516H18.3047V17.6452C18.3047 18.2452 18.1047 18.6452 17.7047 19.0452C17.3047 19.4452 16.8047 19.6452 16.3047 19.6452H2.30469ZM3.30469 15.6452H15.3047L11.5047 10.6452L8.50469 14.6452L6.20469 11.6452L3.20469 15.6452H3.30469ZM14.7047 9.14516C14.2047 7.34516 12.8047 5.84516 10.9047 5.34516C9.00469 4.84516 10.7047 5.04516 10.9047 5.04516C12.7047 4.54516 14.2047 3.14516 14.7047 1.24516C15.2047 -0.654836 15.0047 1.04516 15.0047 1.24516C15.5047 3.04516 16.9047 4.54516 18.8047 5.04516C20.7047 5.54516 19.0047 5.34516 18.8047 5.34516C17.0047 5.84516 15.5047 7.24516 15.0047 9.14516C14.5047 11.0452 14.7047 9.34516 14.7047 9.14516Z"/>
</g>
</svg>
