<svg viewBox="0 0 21 16" fill="none" xmlns="http://www.w3.org/2000/svg">
<g id="Group 11">
<path id="web-version" d="M2.22266 16C1.67266 16 1.20182 15.8042 0.810156 15.4125C0.41849 15.0208 0.222656 14.55 0.222656 14V2C0.222656 1.45 0.41849 0.979167 0.810156 0.5875C1.20182 0.195833 1.67266 0 2.22266 0H18.2227C18.7727 0 19.2435 0.195833 19.6352 0.5875C20.0268 0.979167 20.2227 1.45 20.2227 2V14C20.2227 14.55 20.0268 15.0208 19.6352 15.4125C19.2435 15.8042 18.7727 16 18.2227 16H2.22266ZM2.22266 14H12.7227V10.5H2.22266V14ZM14.7227 14H18.2227V5H14.7227V14ZM2.22266 8.5H12.7227V5H2.22266V8.5Z"/>
</g>
</svg>
