<svg xmlns="http://www.w3.org/2000/svg" xmlns:xlink="http://www.w3.org/1999/xlink" width="22.285" height="24.991" viewBox="0 0 22.285 24.991">
  <g id="Group_10137" data-name="Group 10137" transform="translate(539.185 -4.938)">
    <g id="Group_10136" data-name="Group 10136" transform="translate(-539.185 4.938)" clip-path="url(#clip-path)">
      <path id="Path_161677" data-name="Path 161677" d="M12.976,20.713c.332,0,.664.009,1,0,.666-.023.813-.2.586-.768-.439-1.1-.824-2.219-1.373-3.272-1.285-2.465-2.653-4.9-3.989-7.34-.2-.363-.421-.716-.607-1.084-.046-.091,0-.221.01-.332.126.024.292.011.37.079.685.6,1.394,1.178,2.022,1.821a23.322,23.322,0,0,1,4.678,7.445A37.423,37.423,0,0,1,17.6,23.883c.037.168.094.332.143.5a.764.764,0,0,0,.938.587.693.693,0,0,0,.51-.963c-.47-1.285-.942-2.569-1.443-3.844a.9.9,0,0,1,.226-1.069A6.9,6.9,0,0,0,19.8,13.205a10.431,10.431,0,0,0-1.259-4.064A13.316,13.316,0,0,0,14.9,5.275,27.04,27.04,0,0,0,7.254,1.289,21.036,21.036,0,0,0,.7,0C.047-.012-.042.078.015.669c.164,1.673.268,3.352.5,5.018a27.716,27.716,0,0,0,.749,3.426,22.417,22.417,0,0,0,2.067,5.115A12.5,12.5,0,0,0,9.18,20.006a8.117,8.117,0,0,0,3.8.707" transform="translate(-0.001 0)" fill="#363636"/>
    </g>
  </g>
</svg>
