<svg viewBox="0 0 70 40" fill="none" xmlns="http://www.w3.org/2000/svg">
<path fill-rule="evenodd" clip-rule="evenodd" d="M18.0599 13.2115C17.3705 12.7375 16.471 12.5 15.3612 12.5H11.0647C10.7245 12.5 10.5365 12.6701 10.5008 13.0101L8.75548 23.9659C8.73734 24.0735 8.76426 24.172 8.836 24.2614C8.90732 24.351 8.99704 24.3956 9.10448 24.3956H11.1453C11.5032 24.3956 11.7 24.2259 11.7361 23.8855L12.2194 20.9318C12.237 20.7887 12.3 20.6723 12.4074 20.5827C12.5148 20.4932 12.649 20.4347 12.8102 20.4079C12.9713 20.3813 13.1232 20.3679 13.2667 20.3679C13.4097 20.3679 13.5797 20.377 13.777 20.3948C13.9737 20.4126 14.0991 20.4214 14.1529 20.4214C15.6924 20.4214 16.9007 19.9876 17.7781 19.119C18.655 18.251 19.0939 17.0472 19.0939 15.5073C19.0939 14.4511 18.749 13.6859 18.0599 13.2112V13.2115ZM15.8447 16.5012C15.7549 17.1278 15.5224 17.5394 15.1465 17.7364C14.7705 17.9336 14.2335 18.0318 13.5354 18.0318L12.6492 18.0585L13.1058 15.1852C13.1414 14.9885 13.2577 14.89 13.4548 14.89H13.9652C14.6809 14.89 15.2004 14.9931 15.5226 15.1987C15.8447 15.4047 15.9521 15.8389 15.8447 16.5012ZM39.3945 16.8236C39.3945 16.7343 39.3585 16.6492 39.2874 16.5688C39.2156 16.4883 39.135 16.4478 39.0457 16.4478H36.978C36.7807 16.4478 36.6196 16.5377 36.4945 16.7162L33.6482 20.9054L32.4666 16.8775C32.3767 16.5913 32.18 16.4478 31.8759 16.4478H29.8616C29.7719 16.4478 29.6914 16.4881 29.6202 16.5688C29.5484 16.6492 29.5128 16.7345 29.5128 16.8237C29.5128 16.8597 29.6874 17.3876 30.0364 18.408C30.3854 19.4288 30.7613 20.5298 31.1641 21.7114C31.567 22.8927 31.7772 23.5196 31.7951 23.5906C30.3271 25.596 29.5934 26.67 29.5934 26.813C29.5934 27.046 29.7095 27.1622 29.9425 27.1622H32.0101C32.2069 27.1622 32.368 27.0729 32.4936 26.8938L39.3412 17.0116C39.3767 16.9761 39.3945 16.9137 39.3945 16.8236ZM26.1021 16.4479H28.1429C28.2502 16.4479 28.3396 16.4928 28.4113 16.5821C28.4827 16.6717 28.5094 16.7699 28.4918 16.8775L27.3909 23.8862C27.3371 24.2265 27.14 24.3963 26.8001 24.3963H24.9472C24.7145 24.3963 24.5982 24.2535 24.5982 23.9667C24.5982 23.8057 24.6338 23.6177 24.7056 23.4031C24.3834 23.7612 23.9537 24.0475 23.4166 24.2623C22.8797 24.477 22.3602 24.5846 21.8592 24.5846C20.8208 24.5846 19.993 24.2717 19.3754 23.6447C18.7577 23.0183 18.4489 22.177 18.4489 21.1206C18.4489 19.8139 18.9007 18.6768 19.8049 17.7101C20.7088 16.7433 21.8055 16.2599 23.0944 16.2599C24.3117 16.2599 25.1621 16.6183 25.6455 17.3342C25.6992 16.7433 25.8511 16.4479 26.1021 16.4479ZM22.9604 22.4094C23.6223 22.4094 24.182 22.1906 24.6386 21.7515C25.0951 21.3133 25.3233 20.7627 25.3234 20.1003C25.3234 19.581 25.1576 19.1737 24.8267 18.8782C24.4952 18.583 24.0789 18.4352 23.5779 18.4352C22.9153 18.4352 22.3603 18.6635 21.9131 19.12C21.4653 19.5765 21.2417 20.1364 21.2417 20.7983C21.2417 21.3001 21.3982 21.694 21.7116 21.9798C22.0247 22.2664 22.4409 22.4094 22.9604 22.4094Z" fill="#003087"/>
<path fill-rule="evenodd" clip-rule="evenodd" d="M45.8666 12.5C46.9766 12.5 47.8759 12.7375 48.5652 13.2115V13.2112C49.2543 13.6858 49.5991 14.4511 49.599 15.5073C49.599 17.0472 49.1605 18.251 48.2832 19.119C47.4059 19.9876 46.1978 20.4214 44.658 20.4214C44.6046 20.4214 44.4789 20.4126 44.2821 20.3948C44.085 20.377 43.9151 20.3679 43.7719 20.3679C43.6284 20.3679 43.4765 20.3813 43.3155 20.4079C43.1542 20.4347 43.0201 20.4932 42.9127 20.5827C42.8051 20.6723 42.7424 20.7887 42.7246 20.9318L42.2413 24.0466C42.1694 24.2794 42.0263 24.3956 41.8115 24.3956H39.6097C39.5022 24.3956 39.4123 24.351 39.3413 24.2614C39.2694 24.172 39.2425 24.0735 39.2607 23.9659L41.0061 13.0101C41.0417 12.6701 41.2388 12.5 41.5969 12.5H45.8666ZM44.0407 18.0315C44.8281 18.0315 45.419 17.8973 45.8129 17.6288C46.2065 17.3601 46.4036 16.8502 46.4036 16.098C46.4036 15.7401 46.2963 15.467 46.0814 15.2789C45.8666 15.091 45.6424 14.9793 45.4101 14.9434C45.177 14.9077 44.8638 14.8897 44.4699 14.8897H43.9867C43.7896 14.8897 43.6732 14.9884 43.6377 15.185L43.1812 18.0584L44.0407 18.0315ZM63.4006 12.5H61.4138C61.2163 12.5 61.1 12.5985 61.0646 12.7956L59.3191 23.9664L59.2922 24.0201C59.2922 24.1101 59.328 24.1947 59.3998 24.2753C59.471 24.3557 59.5609 24.396 59.6682 24.396H61.4408C61.7803 24.396 61.9684 24.2263 62.0047 23.8859L63.75 12.903V12.8763C63.75 12.6256 63.6332 12.5003 63.4006 12.5003V12.5ZM58.6486 16.4479H56.6077C56.3568 16.4479 56.2052 16.7433 56.1515 17.3342C55.6854 16.6183 54.8357 16.2599 53.6002 16.2599C52.3113 16.2599 51.2147 16.7433 50.3108 17.7101C49.4066 18.6768 48.9548 19.8139 48.9548 21.1206C48.9548 22.177 49.2636 23.0183 49.8811 23.6447C50.4987 24.2717 51.3265 24.5846 52.3652 24.5846C52.8843 24.5846 53.4124 24.477 53.9494 24.2623C54.4864 24.0475 54.9067 23.7612 55.2117 23.4031C55.2117 23.421 55.1934 23.5013 55.158 23.6444C55.1218 23.7879 55.1041 23.8957 55.1041 23.9667C55.1041 24.2535 55.2202 24.3963 55.4533 24.3963H57.3063C57.646 24.3963 57.8432 24.2265 57.8967 23.8862L58.9978 16.8775C59.0155 16.7699 58.9887 16.6717 58.9172 16.5821C58.8452 16.4928 58.7559 16.4479 58.6486 16.4479ZM55.1444 21.7382C54.6878 22.1857 54.1373 22.4094 53.4929 22.4094C52.9735 22.4094 52.5532 22.2664 52.2308 21.9798C51.9084 21.694 51.7472 21.3001 51.7472 20.7983C51.7472 20.1364 51.9711 19.5765 52.4188 19.12C52.8657 18.6635 53.4212 18.4353 54.0836 18.4353C54.5844 18.4353 55.0007 18.583 55.3322 18.8782C55.6631 19.1737 55.8292 19.581 55.8292 20.1003C55.829 20.7447 55.6008 21.2908 55.1444 21.7382Z" fill="#009CDE"/>
</svg>
