<svg width="338" height="50" viewBox="0 0 338 50" fill="none" xmlns="http://www.w3.org/2000/svg">
<path d="M87.2129 31.7852C87.2129 34.1411 86.3584 35.9783 84.6494 37.2966C82.9404 38.615 80.6211 39.2742 77.6914 39.2742C74.5176 39.2742 72.0762 38.8652 70.3672 38.0474V35.0444C71.4658 35.5083 72.6621 35.8745 73.9561 36.1431C75.25 36.4116 76.5317 36.5459 77.8013 36.5459C79.8765 36.5459 81.439 36.1553 82.4888 35.374C83.5386 34.5806 84.0635 33.4819 84.0635 32.0781C84.0635 31.1504 83.8743 30.3936 83.4958 29.8076C83.1296 29.2095 82.5071 28.6602 81.6282 28.1597C80.7615 27.6592 79.437 27.0916 77.6548 26.4568C75.1646 25.5657 73.3823 24.5098 72.3081 23.2891C71.2461 22.0684 70.7151 20.4753 70.7151 18.51C70.7151 16.447 71.4902 14.8052 73.0405 13.5845C74.5908 12.3638 76.6416 11.7534 79.1929 11.7534C81.854 11.7534 84.3015 12.2417 86.5354 13.2183L85.5649 15.9282C83.3555 15.0005 81.207 14.5366 79.1196 14.5366C77.4717 14.5366 76.1838 14.8906 75.2561 15.5986C74.3284 16.3066 73.8645 17.2893 73.8645 18.5466C73.8645 19.4744 74.0354 20.2373 74.3772 20.8354C74.719 21.4214 75.2927 21.9646 76.0984 22.4651C76.9163 22.9534 78.1614 23.4966 79.8337 24.0947C82.6414 25.0957 84.5701 26.1699 85.6199 27.3174C86.6819 28.4648 87.2129 29.9541 87.2129 31.7852Z" fill="#1F2530"/>
<path d="M105.736 38.908H90.8127V12.1379H105.736V14.9028H93.9255V23.5271H105.022V26.2737H93.9255V36.1248H105.736V38.908Z" fill="#1F2530"/>
<path d="M133.048 25.4863C133.048 29.771 131.961 33.1401 129.789 35.5938C127.628 38.0474 124.619 39.2742 120.761 39.2742C116.819 39.2742 113.773 38.0718 111.625 35.667C109.488 33.25 108.42 29.8442 108.42 25.4497C108.42 21.0918 109.494 17.7166 111.643 15.324C113.791 12.9192 116.843 11.7168 120.798 11.7168C124.643 11.7168 127.646 12.9375 129.807 15.3789C131.968 17.8203 133.048 21.1895 133.048 25.4863ZM111.716 25.4863C111.716 29.1118 112.485 31.8645 114.023 33.7444C115.573 35.6121 117.82 36.5459 120.761 36.5459C123.728 36.5459 125.968 35.6121 127.481 33.7444C128.995 31.8767 129.752 29.124 129.752 25.4863C129.752 21.8853 128.995 19.157 127.481 17.3015C125.98 15.4338 123.752 14.5 120.798 14.5C117.832 14.5 115.573 15.4399 114.023 17.3198C112.485 19.1875 111.716 21.9097 111.716 25.4863Z" fill="#1F2530"/>
<path d="M150.392 24.7356H152.259C154.005 24.7356 155.311 24.3938 156.178 23.7102C157.044 23.0144 157.478 22.0073 157.478 20.689C157.478 19.3584 157.112 18.3757 156.379 17.741C155.659 17.1062 154.524 16.7888 152.973 16.7888H150.392V24.7356ZM163.209 20.4875C163.209 23.3684 162.306 25.5718 160.499 27.0977C158.705 28.6235 156.147 29.3865 152.827 29.3865H150.392V38.908H144.715V12.1379H153.266C156.513 12.1379 158.979 12.8398 160.664 14.2437C162.361 15.6353 163.209 17.7166 163.209 20.4875Z" fill="#1F2530"/>
<path d="M170.398 28.6357C170.398 30.6621 170.727 32.1941 171.386 33.2317C172.058 34.2693 173.144 34.7881 174.646 34.7881C176.135 34.7881 177.203 34.2754 177.85 33.25C178.509 32.2124 178.839 30.6743 178.839 28.6357C178.839 26.6094 178.509 25.0896 177.85 24.0764C177.191 23.0632 176.111 22.5566 174.609 22.5566C173.12 22.5566 172.046 23.0632 171.386 24.0764C170.727 25.0774 170.398 26.5972 170.398 28.6357ZM184.552 28.6357C184.552 31.9683 183.673 34.5745 181.915 36.4543C180.157 38.3342 177.71 39.2742 174.573 39.2742C172.607 39.2742 170.874 38.8469 169.372 37.9924C167.871 37.1257 166.717 35.8867 165.912 34.2754C165.106 32.6641 164.703 30.7842 164.703 28.6357C164.703 25.291 165.576 22.6909 167.322 20.8354C169.067 18.98 171.521 18.0522 174.682 18.0522C176.648 18.0522 178.381 18.4795 179.883 19.334C181.384 20.1885 182.538 21.4153 183.343 23.0144C184.149 24.6135 184.552 26.4873 184.552 28.6357Z" fill="#1F2530"/>
<path d="M204.118 38.908L202.544 31.7485L200.42 22.7031H200.292L196.556 38.908H190.55L184.728 18.4368H190.294L192.656 27.5005C193.034 29.124 193.419 31.364 193.81 34.2205H193.919C193.968 33.2927 194.182 31.8218 194.56 29.8076L194.853 28.2512L197.38 18.4368H203.532L205.931 28.2512C205.98 28.5198 206.053 28.9165 206.151 29.4414C206.261 29.9663 206.365 30.5278 206.462 31.126C206.56 31.7119 206.645 32.2917 206.719 32.8655C206.804 33.427 206.853 33.8787 206.865 34.2205H206.975C207.085 33.3416 207.28 32.1392 207.561 30.6133C207.842 29.0752 208.043 28.0376 208.165 27.5005L210.619 18.4368H216.094L210.198 38.908H204.118Z" fill="#1F2530"/>
<path d="M226.01 22.0256C224.826 22.0256 223.899 22.4041 223.227 23.1609C222.556 23.9055 222.171 24.9675 222.074 26.3469H229.911C229.886 24.9675 229.526 23.9055 228.83 23.1609C228.135 22.4041 227.195 22.0256 226.01 22.0256ZM226.798 39.2742C223.502 39.2742 220.926 38.3647 219.071 36.5459C217.215 34.7271 216.288 32.1514 216.288 28.8188C216.288 25.3887 217.142 22.7397 218.851 20.8721C220.572 18.9922 222.947 18.0522 225.974 18.0522C228.867 18.0522 231.119 18.8762 232.73 20.5242C234.342 22.1721 235.147 24.4487 235.147 27.354V30.064H221.946C222.007 31.6509 222.477 32.8899 223.355 33.781C224.234 34.6721 225.467 35.1177 227.054 35.1177C228.287 35.1177 229.453 34.9895 230.552 34.7332C231.65 34.4768 232.798 34.0679 233.994 33.5063V37.8276C233.017 38.3159 231.974 38.676 230.863 38.908C229.752 39.1521 228.397 39.2742 226.798 39.2742Z" fill="#1F2530"/>
<path d="M249.239 18.0522C249.996 18.0522 250.625 18.1072 251.125 18.217L250.704 23.4539C250.252 23.3318 249.703 23.2708 249.056 23.2708C247.274 23.2708 245.882 23.7285 244.881 24.644C243.893 25.5596 243.398 26.8413 243.398 28.4893V38.908H237.813V18.4368H242.043L242.867 21.8792H243.142C243.777 20.7317 244.631 19.8101 245.705 19.1143C246.792 18.4063 247.97 18.0522 249.239 18.0522Z" fill="#1F2530"/>
<path d="M269.209 31.4739C269.209 33.8909 268.336 35.7952 266.59 37.1868C264.857 38.5784 262.44 39.2742 259.339 39.2742C256.483 39.2742 253.956 38.7371 251.759 37.6628V32.3894C253.565 33.1951 255.091 33.7627 256.336 34.0923C257.594 34.4219 258.741 34.5867 259.779 34.5867C261.024 34.5867 261.976 34.3486 262.635 33.8726C263.307 33.3965 263.642 32.6885 263.642 31.7485C263.642 31.2236 263.496 30.7598 263.203 30.3569C262.91 29.9419 262.477 29.5452 261.903 29.1667C261.341 28.7883 260.188 28.1841 258.442 27.354C256.806 26.585 255.58 25.8464 254.762 25.1384C253.944 24.4304 253.291 23.6064 252.802 22.6665C252.314 21.7266 252.07 20.6279 252.07 19.3706C252.07 17.0024 252.87 15.1409 254.469 13.7859C256.08 12.4309 258.302 11.7534 261.134 11.7534C262.525 11.7534 263.85 11.9182 265.107 12.2478C266.377 12.5774 267.701 13.0413 269.081 13.6394L267.25 18.0522C265.821 17.4663 264.637 17.0574 263.697 16.8254C262.77 16.5935 261.854 16.4775 260.951 16.4775C259.876 16.4775 259.052 16.7278 258.479 17.2283C257.905 17.7288 257.618 18.3818 257.618 19.1875C257.618 19.688 257.734 20.1274 257.966 20.5059C258.198 20.8721 258.564 21.2322 259.065 21.5862C259.577 21.928 260.78 22.5505 262.672 23.4539C265.174 24.6501 266.889 25.8525 267.817 27.061C268.745 28.2573 269.209 29.7283 269.209 31.4739Z" fill="#1F2530"/>
<path d="M286.249 38.908L285.498 36.2896H285.205C284.607 37.2417 283.758 37.9802 282.66 38.5051C281.561 39.0178 280.31 39.2742 278.906 39.2742C276.501 39.2742 274.688 38.6333 273.468 37.3516C272.247 36.0576 271.637 34.2021 271.637 31.7852V18.4368H277.221V30.3936C277.221 31.8706 277.484 32.9814 278.009 33.7261C278.534 34.4585 279.37 34.8247 280.517 34.8247C282.08 34.8247 283.209 34.3059 283.905 33.2683C284.601 32.2185 284.948 30.4851 284.948 28.0681V18.4368H290.533V38.908H286.249Z" fill="#1F2530"/>
<path d="M294.28 13.145C294.28 11.3262 295.293 10.4167 297.319 10.4167C299.345 10.4167 300.359 11.3262 300.359 13.145C300.359 14.0117 300.102 14.6892 299.59 15.1775C299.089 15.6536 298.332 15.8916 297.319 15.8916C295.293 15.8916 294.28 14.9761 294.28 13.145ZM300.102 38.908H294.518V18.4368H300.102V38.908Z" fill="#1F2530"/>
<path d="M312.729 34.8247C313.706 34.8247 314.878 34.6111 316.245 34.1838V38.3403C314.853 38.9629 313.144 39.2742 311.118 39.2742C308.884 39.2742 307.254 38.7126 306.229 37.5896C305.216 36.4543 304.709 34.7576 304.709 32.4993V22.6299H302.036V20.2678L305.112 18.4001L306.723 14.0789H310.294V18.4368H316.025V22.6299H310.294V32.4993C310.294 33.2927 310.514 33.8787 310.953 34.2571C311.405 34.6355 311.997 34.8247 312.729 34.8247Z" fill="#1F2530"/>
<path d="M327.004 22.0256C325.82 22.0256 324.892 22.4041 324.221 23.1609C323.55 23.9055 323.165 24.9675 323.067 26.3469H330.904C330.88 24.9675 330.52 23.9055 329.824 23.1609C329.128 22.4041 328.188 22.0256 327.004 22.0256ZM327.792 39.2742C324.496 39.2742 321.92 38.3647 320.064 36.5459C318.209 34.7271 317.281 32.1514 317.281 28.8188C317.281 25.3887 318.136 22.7397 319.845 20.8721C321.566 18.9922 323.94 18.0522 326.968 18.0522C329.861 18.0522 332.113 18.8762 333.724 20.5242C335.335 22.1721 336.141 24.4487 336.141 27.354V30.064H322.939C323 31.6509 323.47 32.8899 324.349 33.781C325.228 34.6721 326.461 35.1177 328.048 35.1177C329.281 35.1177 330.447 34.9895 331.545 34.7332C332.644 34.4768 333.791 34.0679 334.988 33.5063V37.8276C334.011 38.3159 332.967 38.676 331.856 38.908C330.746 39.1521 329.391 39.2742 327.792 39.2742Z" fill="#1F2530"/>
<g clip-path="url(#clip0_3075_47369)">
<path fill-rule="evenodd" clip-rule="evenodd" d="M0 19.2598V3.65691C0 1.70656 1.71569 0 3.67647 0H19.2402C21.3235 0 22.9167 1.58466 22.9167 3.65691V22.9167H3.67647C1.71569 22.9167 0 21.2101 0 19.2598Z" fill="#FC4304"/>
<path fill-rule="evenodd" clip-rule="evenodd" d="M50.0007 19.2598V3.65691C50.0007 1.70656 48.285 0 46.3242 0H30.7605C28.6771 0 27.084 1.58466 27.084 3.65691V22.9167H46.3242C48.285 22.9167 50.0007 21.2101 50.0007 19.2598Z" fill="#FF8800"/>
<path fill-rule="evenodd" clip-rule="evenodd" d="M10.3151 27.0833C8.14704 27.0833 6.25 28.8592 6.25 31.045V39.7882C6.25 41.974 8.01154 43.7499 10.3151 43.7499H18.8518C21.0198 43.7499 22.9169 41.974 22.9169 39.7882V27.0833H10.3151Z" fill="#2C86D5"/>
<path fill-rule="evenodd" clip-rule="evenodd" d="M1.52439 43.75C0.711382 43.75 0 44.416 0 45.2357V48.5143C0 49.334 0.660569 50 1.52439 50H4.72561C5.53862 50 6.25 49.334 6.25 48.5143V43.75H1.52439Z" fill="#2C86D5"/>
<path fill-rule="evenodd" clip-rule="evenodd" d="M50.0007 30.7402V46.343C50.0007 48.2934 48.285 49.9999 46.3242 49.9999H30.7605C28.6771 49.9999 27.084 48.4153 27.084 46.343V27.0833H46.3242C48.285 27.0833 50.0007 28.6679 50.0007 30.7402Z" fill="#6DBC00"/>
</g>
<defs>
<clipPath id="clip0_3075_47369">
<rect width="50" height="50" fill="white"/>
</clipPath>
</defs>
</svg>
