<svg viewBox="0 0 70 40" fill="none" xmlns="http://www.w3.org/2000/svg">
<g clip-path="url(#clip0_89_188)">
<path d="M24.8901 19.9803C24.8901 22.573 26.9261 24.5834 29.5459 24.5834C30.2867 24.5834 30.9209 24.4378 31.7032 24.0695V22.044C31.0152 22.7324 30.406 23.0101 29.6262 23.0101C27.8933 23.0101 26.6635 21.7537 26.6635 19.9674C26.6635 18.274 27.9322 16.9379 29.5462 16.9379C30.3669 16.9379 30.988 17.2308 31.7034 17.9305V15.906C30.9481 15.5228 30.3273 15.3641 29.5868 15.3641C26.9798 15.3646 24.8901 17.4158 24.8901 19.9803Z" fill="#231F20"/>
<path d="M20.4746 17.8384C20.4746 18.3148 20.7778 18.5669 21.8102 18.9488C23.7674 19.6645 24.3472 20.299 24.3472 21.7005C24.3472 23.408 23.093 24.5968 21.3051 24.5968C19.996 24.5968 19.044 24.0809 18.2512 22.9175L19.3627 21.8471C19.7587 22.6131 20.4197 23.0234 21.2404 23.0234C22.0081 23.0234 22.5762 22.494 22.5762 21.7793C22.5762 21.409 22.4041 21.0911 22.0604 20.8667C21.8873 20.7602 21.5445 20.6019 20.8709 20.3644C19.255 19.7829 18.7007 19.1608 18.7007 17.9455C18.7007 16.5018 19.8912 15.418 21.4519 15.418C22.4189 15.418 23.3041 15.7489 24.0438 16.396L23.1436 17.5748C22.6953 17.0723 22.2719 16.8606 21.7562 16.8606C21.0148 16.8606 20.4746 17.2826 20.4746 17.8384Z" fill="#231F20"/>
<path fill-rule="evenodd" clip-rule="evenodd" d="M10.3555 15.5639H7.82996V24.3846H10.3422C11.678 24.3846 12.6427 24.0695 13.4894 23.3662C14.4955 22.5336 15.0907 21.2784 15.0907 19.9803C15.0909 17.3774 13.1459 15.5639 10.3555 15.5639ZM12.3655 22.1901C11.8248 22.6783 11.1228 22.8912 10.0111 22.8912H9.54941V17.0585H10.0111C11.1228 17.0585 11.7974 17.2573 12.3655 17.7717C12.9606 18.3015 13.3185 19.1226 13.3185 19.9674C13.3185 20.8144 12.9606 21.6606 12.3655 22.1901Z" fill="#231F20"/>
<path d="M17.6031 15.5639H15.8825V24.3846H17.6031V15.5639Z" fill="#231F20"/>
<path d="M42.9927 15.5639L45.345 21.4888L47.7278 15.5639H49.5929L45.7823 24.6109H44.8566L41.1131 15.5639H42.9927Z" fill="#231F20"/>
<path d="M50.3709 24.3846H55.2504V22.8914H52.0901V20.5105H55.1339V19.0164H52.0901V17.0585H55.2504V15.5639H50.3709V24.3846Z" fill="#231F20"/>
<path fill-rule="evenodd" clip-rule="evenodd" d="M58.9408 15.5639C60.925 15.5639 62.0625 16.5166 62.0625 18.168C62.0625 19.5187 61.3489 20.405 60.0532 20.6685L62.8299 24.3846H60.714L58.3326 20.8411H58.1082V24.3846H56.3897V15.5639H58.9408ZM58.1084 19.6249H58.6109C59.7097 19.6249 60.2922 19.1475 60.2922 18.2606C60.2922 17.4022 59.7097 16.9532 58.6381 16.9532H58.1084V19.6249Z" fill="#231F20"/>
<path d="M36.9572 24.6973C39.5488 24.6973 41.6496 22.5964 41.6496 20.0049C41.6496 17.4134 39.5488 15.3125 36.9572 15.3125C34.3657 15.3125 32.2648 17.4134 32.2648 20.0049C32.2648 22.5964 34.3657 24.6973 36.9572 24.6973Z" fill="#F48120"/>
</g>
</svg>
