<svg viewBox="0 0 70 40" fill="none" xmlns="http://www.w3.org/2000/svg">
<path d="M51.6582 11.4782L50.3037 14.464H53.02L51.6582 11.4782ZM36.029 13.3284C36.2843 13.2072 36.4346 12.9437 36.4346 12.6164C36.4346 12.2956 36.2767 12.0633 36.0214 11.9542C35.7889 11.8332 35.4312 11.8192 35.0882 11.8192H32.665V13.4828H35.0557C35.4385 13.4829 35.7585 13.4778 36.029 13.3284ZM4.97971 11.4782L3.64062 14.464H6.32688L4.97971 11.4782ZM67.3259 30.606H63.5258V28.9996H67.3106C67.6858 28.9996 67.9486 28.9548 68.1068 28.814C68.2564 28.6884 68.341 28.511 68.3394 28.3255C68.3394 28.1072 68.2441 27.9339 68.0989 27.8302C67.9564 27.7158 67.7483 27.6638 67.4055 27.6638C65.5579 27.6067 63.2528 27.7156 63.2528 25.345C63.2528 24.2585 64.0112 23.1148 66.0762 23.1148H69.9961V21.6243H66.3542C65.2552 21.6243 64.4566 21.8637 63.8913 22.2362V21.6243H58.5046C57.6433 21.6243 56.6322 21.8185 56.1541 22.2362V21.6243H46.5342V22.2362C45.7688 21.7337 44.4768 21.6243 43.8809 21.6243H37.5357V22.2362C36.9302 21.7026 35.583 21.6243 34.7624 21.6243H27.6611L26.0364 23.2241L24.5144 21.6243H13.9064V32.0782H24.3142L25.9884 30.4527L27.5657 32.0782L33.9811 32.0833V29.6242H34.612C35.4631 29.6366 36.467 29.6052 37.353 29.2568V32.0779H42.6446V29.3531H42.8998C43.2254 29.3531 43.2577 29.3655 43.2577 29.6617V32.0773H59.3329C60.3535 32.0773 61.4204 31.8399 62.011 31.4081V32.0773H67.1101C68.1711 32.0773 69.2074 31.942 69.9958 31.5956V29.6482C69.518 30.2841 68.5863 30.606 67.3259 30.606ZM34.6963 28.1376H32.2408V30.6504H28.416L25.9929 28.1705L23.4748 30.6504H15.6801V23.159H23.5947L26.0157 25.6146L28.5187 23.159H34.8066C36.3683 23.159 38.1229 23.5524 38.1229 25.627C38.1229 27.7081 36.4163 28.1376 34.6963 28.1376ZM46.5032 27.798C46.7811 28.1636 46.8212 28.505 46.8293 29.1654V30.6505H44.8535V29.7133C44.8535 29.2626 44.9013 28.5952 44.5354 28.2469C44.2482 27.9786 43.8097 27.9145 43.0916 27.9145H40.9887V30.6505H39.0115V23.159H43.5544C44.551 23.159 45.2764 23.1993 45.9223 23.5125C46.5433 23.8539 46.9341 24.3215 46.9341 25.1761C46.934 26.3717 46.0574 26.9817 45.5394 27.1692C45.9772 27.3162 46.3351 27.5797 46.5032 27.798ZM54.6319 24.7083H50.0238V26.0702H54.5193V27.5987H50.0238V29.0893L54.6319 29.0959V30.6504H48.0641V23.159H54.6319V24.7083ZM59.6885 30.6503H55.8559V29.0439H59.6733C60.0466 29.0439 60.3112 28.999 60.4771 28.8583C60.6123 28.7425 60.7096 28.574 60.7096 28.37C60.7096 28.1515 60.6043 27.9782 60.4695 27.8742C60.3189 27.76 60.1111 27.7083 59.7687 27.7083C57.9283 27.6509 55.6237 27.7599 55.6237 25.3894C55.6237 24.3028 56.3742 23.159 58.4372 23.159H62.3824V24.7533H58.7724C58.4146 24.7533 58.1819 24.7657 57.9841 24.889C57.7683 25.0103 57.6884 25.1902 57.6884 25.4277C57.6884 25.7102 57.8715 25.9026 58.1189 25.9857C58.3266 26.0514 58.5495 26.0706 58.8847 26.0706L59.9442 26.0969C61.0121 26.1202 61.7457 26.2887 62.1914 26.6992C62.5743 27.0598 62.7801 27.5154 62.7801 28.2863C62.7799 29.898 61.673 30.6503 59.6885 30.6503ZM44.4264 24.8291C44.1886 24.7006 43.8377 24.6938 43.4876 24.6938H41.0643V26.3763H43.4552C43.8379 26.3763 44.1634 26.3639 44.4264 26.2219C44.6814 26.0816 44.8341 25.8232 44.8341 25.5028C44.8341 25.1824 44.6814 24.9505 44.4264 24.8291ZM66.4131 24.6936C66.0552 24.6936 65.8171 24.706 65.6168 24.829C65.4092 24.9505 65.3295 25.1304 65.3295 25.368C65.3295 25.6504 65.5047 25.8428 65.7597 25.9261C65.9675 25.9918 66.1901 26.011 66.5179 26.011L67.5847 26.0368C68.6607 26.0611 69.3794 26.2295 69.8175 26.6401C69.8972 26.697 69.9452 26.7611 70 26.8253V24.6938L66.4131 24.6936ZM34.7644 24.6936H32.1985V26.6017H34.7416C35.4976 26.6017 35.9678 26.2603 35.9681 25.6122C35.9678 24.9571 35.4748 24.6936 34.7644 24.6936ZM17.64 24.6936V26.0557H21.96V27.5842H17.64V29.0746H22.4781L24.726 26.8769L22.5736 24.6936H17.64ZM30.2735 29.9325V23.9265L27.2523 26.8812L30.2735 29.9325ZM17.8052 17.9046V19.1954H34.2456L34.238 16.4647H34.5562C34.779 16.4718 34.8438 16.4904 34.8438 16.8251V19.1955H43.347V18.5597C44.0328 18.8941 45.0995 19.1955 46.5032 19.1955H50.0804L50.8461 17.532H52.5434L53.2921 19.1955H60.1855V17.6153L61.2292 19.1954H66.7535V8.75H61.2866V9.98363L60.5211 8.75H54.9114V9.98363L54.2084 8.75H46.6308C45.3622 8.75 44.2476 8.91105 43.3469 9.35996V8.75H38.1176V9.35996C37.5444 8.89725 36.7635 8.75 35.8953 8.75H16.7912L15.5095 11.448L14.1931 8.75H8.17591V9.98363L7.51475 8.75H2.3831L8.97456e-05 13.7166V17.6893L3.52386 10.1996H6.44768L9.79429 17.2907V10.1996H13.0062L15.5814 15.2804L17.9473 10.1996H21.2237V17.6893H19.2066L19.1993 11.8235L16.3457 17.6893H14.6179L11.7571 11.8183V17.6893H7.75446L6.99836 16.0187H2.90111L2.1372 17.6893H8.97456e-05L0 19.196H3.36241L4.12049 17.5324H5.81793L6.57404 19.196H13.1895V17.9241L13.7799 19.2013H17.2141L17.8052 17.9046ZM43.712 11.0726C44.3479 10.4748 45.3443 10.1991 46.7004 10.1991H48.6054V11.804H46.7403C46.0225 11.804 45.6166 11.9011 45.2262 12.2477C44.8905 12.563 44.6604 13.1592 44.6604 13.9442C44.6604 14.7466 44.8359 15.3251 45.2014 15.7031C45.5044 15.9994 46.0552 16.0893 46.573 16.0893H47.4571L50.2304 10.1994H53.1788L56.5105 17.2835V10.1995H59.5068L62.9658 15.4156V10.1995H64.9815V17.6889H62.1929L58.4629 12.0676V17.6889H54.4553L53.6896 16.0183H49.6017L48.8587 17.6889H46.5559C45.5994 17.6889 44.3884 17.4965 43.7026 16.8605C43.0109 16.2246 42.6514 15.3632 42.6514 14.0013C42.651 12.8904 42.8658 11.875 43.712 11.0726ZM39.6644 10.1992H41.6722V17.6889H39.6644V10.1992ZM30.6118 10.1992H35.1378C36.1432 10.1992 36.8846 10.2235 37.5208 10.558C38.1433 10.8925 38.5165 11.381 38.5165 12.2162C38.5165 13.4105 37.6404 14.0273 37.1302 14.2127C37.5606 14.3618 37.9285 14.6252 38.1038 14.8433C38.3817 15.2159 38.4295 15.5486 38.4295 16.2175V17.6889H36.4448L36.4373 16.7444C36.4373 16.2936 36.4847 15.6455 36.1267 15.2853C35.8393 15.022 35.4008 14.9647 34.6923 14.9647H32.5799V17.6889H30.612L30.6118 10.1992ZM22.6789 10.1992H29.2527V11.7589H24.6469V13.1089H29.1421V14.6442H24.6469V16.1399H29.2527V17.6889H22.6789V10.1992Z" fill="#016FD0"/>
</svg>
