<svg viewBox="0 0 24 25" xmlns="http://www.w3.org/2000/svg">
<g clip-path="url(#clip0_2908_45212)">
<path d="M22.2283 0.800049H1.77167C1.30179 0.800049 0.851161 0.986706 0.518909 1.31896C0.186657 1.65121 0 2.10184 0 2.57172V23.0284C0 23.4983 0.186657 23.9489 0.518909 24.2811C0.851161 24.6134 1.30179 24.8 1.77167 24.8H22.2283C22.6982 24.8 23.1488 24.6134 23.4811 24.2811C23.8133 23.9489 24 23.4983 24 23.0284V2.57172C24 2.10184 23.8133 1.65121 23.4811 1.31896C23.1488 0.986706 22.6982 0.800049 22.2283 0.800049ZM7.15333 21.245H3.545V9.78338H7.15333V21.245ZM5.34667 8.19505C4.93736 8.19274 4.53792 8.06924 4.19873 7.84014C3.85955 7.61103 3.59584 7.28658 3.44088 6.90774C3.28591 6.5289 3.24665 6.11264 3.32803 5.7115C3.40941 5.31037 3.6078 4.94233 3.89816 4.65383C4.18851 4.36534 4.55782 4.16932 4.95947 4.09051C5.36112 4.0117 5.77711 4.05364 6.15495 4.21103C6.53279 4.36843 6.85554 4.63422 7.08247 4.97486C7.30939 5.31551 7.43032 5.71574 7.43 6.12505C7.43386 6.39908 7.38251 6.67109 7.27901 6.92485C7.17551 7.17862 7.02198 7.40895 6.82757 7.60212C6.63316 7.79528 6.40185 7.94733 6.14742 8.0492C5.893 8.15107 5.62067 8.20067 5.34667 8.19505ZM20.4533 21.255H16.8467V14.9934C16.8467 13.1467 16.0617 12.5767 15.0483 12.5767C13.9783 12.5767 12.9283 13.3834 12.9283 15.04V21.255H9.32V9.79172H12.79V11.38H12.8367C13.185 10.675 14.405 9.47005 16.2667 9.47005C18.28 9.47005 20.455 10.665 20.455 14.165L20.4533 21.255Z"/>
</g>
<defs>
<clipPath id="clip0_2908_45212">
<rect width="24" height="24" transform="translate(0 0.800049)"/>
</clipPath>
</defs>
</svg>
