<svg viewBox="0 0 70 40" fill="none" xmlns="http://www.w3.org/2000/svg">
<path d="M35.3507 28.5625C33.3625 30.2383 30.7836 31.25 27.9654 31.25C21.6774 31.25 16.58 26.2132 16.58 20C16.58 13.7868 21.6774 8.75 27.9654 8.75C30.7836 8.75 33.3625 9.76167 35.3507 11.4375C37.3388 9.76167 39.9178 8.75 42.7359 8.75C49.0239 8.75 54.1214 13.7868 54.1214 20C54.1214 26.2132 49.0239 31.25 42.7359 31.25C39.9178 31.25 37.3388 30.2383 35.3507 28.5625Z" fill="#ED0006"/>
<path d="M35.3507 28.5624C37.7987 26.499 39.3509 23.4286 39.3509 20C39.3509 16.5714 37.7987 13.501 35.3507 11.4376C37.3389 9.76169 39.9179 8.75 42.736 8.75C49.024 8.75 54.1215 13.7868 54.1215 20C54.1215 26.2132 49.024 31.25 42.736 31.25C39.9179 31.25 37.3389 30.2383 35.3507 28.5624Z" fill="#F9A000"/>
<path d="M35.3507 28.5625C37.7987 26.4991 39.3509 23.4287 39.3509 20C39.3509 16.5714 37.7987 13.501 35.3507 11.4376C32.9027 13.501 31.3504 16.5714 31.3504 20C31.3504 23.4287 32.9027 26.4991 35.3507 28.5625Z" fill="#FF5E00"/>
</svg>
