<svg viewBox="0 0 70 40" fill="none" xmlns="http://www.w3.org/2000/svg">
<path d="M37.0506 10.5143H49.603C50.7661 10.5143 51.8815 10.9872 52.7039 11.829C53.5263 12.6707 53.9883 13.8123 53.9883 15.0028C53.9883 16.1932 53.5263 17.3348 52.7039 18.1766C51.8815 19.0183 50.7661 19.4912 49.603 19.4912H37.0506V10.5143ZM37.0506 20.5088H49.603C50.7661 20.5088 51.8815 20.9817 52.7039 21.8234C53.5263 22.6652 53.9883 23.8068 53.9883 24.9972C53.9883 26.1877 53.5263 27.3293 52.7039 28.1711C51.8815 29.0128 50.7661 29.4857 49.603 29.4857H37.0506V20.5088ZM26.1139 20.5088V19.4912H36.2162C35.9609 16.9616 34.7748 14.6262 32.8986 12.959C31.0225 11.2918 28.5968 10.4178 26.1139 10.5143C23.5465 10.4059 21.0418 11.3433 19.1483 13.1212C17.2548 14.8991 16.1269 17.3727 16.0117 20C16.1269 22.6273 17.2548 25.1009 19.1483 26.8788C21.0418 28.6567 23.5465 29.5941 26.1139 29.4857C28.5968 29.5822 31.0225 28.7082 32.8986 27.041C34.7748 25.3738 35.9609 23.0384 36.2162 20.5088H26.1139Z" fill="#212121"/>
</svg>
