<svg viewBox="0 0 70 40" fill="none" xmlns="http://www.w3.org/2000/svg">
<path d="M43.7625 11.25C45.4076 11.25 46.7381 11.6285 47.577 11.9712L46.9986 15.6293L46.6139 15.4494C45.8444 15.1069 44.8285 14.7646 43.4459 14.8008C41.7668 14.8008 41.0138 15.5392 40.9964 16.2602C40.9964 17.0533 41.9073 17.576 43.3948 18.3511C45.8451 19.5585 46.9816 21.0362 46.9646 22.9647C46.9302 26.479 44.025 28.75 39.5626 28.75C37.6547 28.7318 35.817 28.3165 34.8195 27.8484L35.4146 24.0456L35.9746 24.3163C37.3572 24.9477 38.267 25.2174 39.9649 25.2174C41.1894 25.2174 42.5022 24.6943 42.5189 23.5594C42.5189 22.8205 41.9596 22.2794 40.3142 21.4503C38.7044 20.6391 36.5521 19.2876 36.587 16.8545C36.6051 13.5567 39.5626 11.25 43.7625 11.25Z" fill="#00579F"/>
<path d="M27.907 28.4975H32.1599L34.8197 11.5571H30.5671L27.907 28.4975Z" fill="#00579F"/>
<path fill-rule="evenodd" clip-rule="evenodd" d="M58.4789 11.5571H55.1894C54.1749 11.5571 53.4042 11.8632 52.9665 12.9626L46.6494 28.4973H51.1118C51.1118 28.4973 51.8465 26.4064 52.0044 25.9561H57.4647C57.5868 26.5509 57.9722 28.4973 57.9722 28.4973H61.9099L58.4789 11.5571ZM53.2293 22.4961C53.5796 21.5229 54.9273 17.7563 54.9273 17.7563C54.9201 17.7709 54.9758 17.6121 55.0585 17.3759C55.1806 17.0273 55.3616 16.5104 55.4868 16.1345L55.784 17.5942C55.784 17.5942 56.5894 21.6492 56.7643 22.4961H53.2293Z" fill="#00579F"/>
<path d="M20.1899 23.1089L24.3548 11.5571H28.8519L22.1671 28.4796H17.6698L13.8549 13.6652C16.5498 15.1256 18.9647 18.0627 19.7347 20.766L20.1899 23.1089Z" fill="#00579F"/>
<path d="M16.3224 11.5571H9.47991L9.40991 11.8994C14.7475 13.3052 18.2824 16.6938 19.7348 20.7667L18.2473 12.9811C18.0024 11.8991 17.2498 11.5928 16.3224 11.5571Z" fill="#FAA61A"/>
</svg>
