<svg xmlns="http://www.w3.org/2000/svg" width="197.738" height="52.692" viewBox="0 0 197.738 52.692">
  <g id="g10" transform="translate(0 140.371)">
    <g id="g12" transform="translate(0 -140.371)">
      <path id="path14" d="M23.729-140.366H8.348a2.137,2.137,0,0,0-2.112,1.8L.016-99.123a1.28,1.28,0,0,0,1.268,1.48H8.627a2.137,2.137,0,0,0,2.112-1.806l1.678-10.637a2.135,2.135,0,0,1,2.109-1.806h4.869c10.131,0,15.978-4.9,17.506-14.618.688-4.25.029-7.59-1.961-9.929-2.186-2.568-6.063-3.927-11.211-3.927Zm1.774,14.4c-.841,5.519-5.058,5.519-9.135,5.519H14.047l1.628-10.307a1.281,1.281,0,0,1,1.266-1.082h1.064c2.777,0,5.4,0,6.751,1.583.807.945,1.055,2.348.747,4.287" transform="translate(0 140.368)" fill="#283b82"/>
      <path id="path16" d="M127.722-103.618h-7.365a1.284,1.284,0,0,0-1.266,1.082l-.326,2.06-.515-.747c-1.594-2.314-5.15-3.088-8.7-3.088-8.139,0-15.09,6.164-16.444,14.811a13.9,13.9,0,0,0,2.744,11.314c2.244,2.645,5.456,3.747,9.277,3.747a14.093,14.093,0,0,0,10.194-4.216l-.328,2.046a1.281,1.281,0,0,0,1.264,1.484h6.634A2.137,2.137,0,0,0,125-76.93l3.98-25.208A1.276,1.276,0,0,0,127.722-103.618ZM117.456-89.284a8.208,8.208,0,0,1-8.309,7.032,6.213,6.213,0,0,1-4.946-1.986,6.262,6.262,0,0,1-1.156-5.175A8.244,8.244,0,0,1,111.3-96.5a6.214,6.214,0,0,1,4.912,2.006,6.375,6.375,0,0,1,1.246,5.211" transform="translate(-58.019 117.847)" fill="#283b82"/>
      <path id="path18" d="M233.084-102.466h-7.4a2.144,2.144,0,0,0-1.77.938L213.705-86.492l-4.327-14.449a2.144,2.144,0,0,0-2.051-1.525h-7.273a1.283,1.283,0,0,0-1.217,1.7l8.152,23.924-7.664,10.82A1.282,1.282,0,0,0,200.372-64h7.392a2.133,2.133,0,0,0,1.756-.918l24.616-35.533a1.281,1.281,0,0,0-1.052-2.013" transform="translate(-124.156 116.695)" fill="#283b82"/>
      <path id="path20" d="M315.978-140.366H300.6a2.137,2.137,0,0,0-2.11,1.8l-6.22,39.439a1.28,1.28,0,0,0,1.264,1.48h7.894a1.5,1.5,0,0,0,1.475-1.264l1.765-11.179a2.135,2.135,0,0,1,2.11-1.806h4.867c10.133,0,15.978-4.9,17.508-14.618.691-4.25.027-7.59-1.963-9.929-2.184-2.568-6.059-3.927-11.206-3.927Zm1.775,14.4c-.839,5.519-5.055,5.519-9.135,5.519H306.3l1.631-10.307a1.277,1.277,0,0,1,1.264-1.082h1.064c2.775,0,5.4,0,6.751,1.583.808.945,1.052,2.348.745,4.287" transform="translate(-182.546 140.368)" fill="#469bdb"/>
      <path id="path22" d="M419.982-103.618h-7.361a1.275,1.275,0,0,0-1.264,1.082l-.326,2.06-.517-.747c-1.594-2.314-5.148-3.088-8.7-3.088-8.139,0-15.088,6.164-16.442,14.811a13.909,13.909,0,0,0,2.742,11.314c2.249,2.645,5.456,3.747,9.276,3.747a14.093,14.093,0,0,0,10.194-4.216l-.328,2.046a1.282,1.282,0,0,0,1.269,1.484h6.632a2.137,2.137,0,0,0,2.11-1.806l3.983-25.208A1.284,1.284,0,0,0,419.982-103.618ZM409.716-89.284a8.205,8.205,0,0,1-8.309,7.032,6.219,6.219,0,0,1-4.946-1.986,6.278,6.278,0,0,1-1.156-5.175,8.247,8.247,0,0,1,8.254-7.088,6.213,6.213,0,0,1,4.911,2.006,6.343,6.343,0,0,1,1.246,5.211" transform="translate(-240.577 117.847)" fill="#469bdb"/>
      <path id="path24" d="M490.532-139.287l-6.313,40.161a1.28,1.28,0,0,0,1.264,1.48h6.346a2.134,2.134,0,0,0,2.112-1.806l6.225-39.437a1.281,1.281,0,0,0-1.264-1.482H491.8a1.284,1.284,0,0,0-1.264,1.084" transform="translate(-302.444 140.371)" fill="#469bdb"/>
    </g>
  </g>
</svg>
