<svg viewBox="0 0 20 20" xmlns="http://www.w3.org/2000/svg">
  <path d="M15.0066 9.26961C14.9165 9.22832 14.8249 9.18858 14.7322 9.15053C14.5707 6.30606 12.9448 4.6776 10.2147 4.66094C10.2023 4.66086 10.19 4.66086 10.1776 4.66086C8.54465 4.66086 7.18653 5.32718 6.35062 6.53966L7.8521 7.52425C8.47656 6.61857 9.45659 6.4255 10.1783 6.4255C10.1867 6.4255 10.195 6.4255 10.2033 6.42557C11.1022 6.43105 11.7806 6.6809 12.2196 7.16813C12.5391 7.52284 12.7528 8.01302 12.8586 8.63165C12.0616 8.50216 11.1996 8.46234 10.2782 8.51284C7.68251 8.65577 6.0138 10.1029 6.12588 12.1137C6.18275 13.1337 6.71432 14.0112 7.62261 14.5845C8.39057 15.0691 9.37964 15.306 10.4076 15.2524C11.7651 15.1813 12.83 14.6861 13.573 13.7808C14.1372 13.0933 14.4941 12.2024 14.6517 11.0798C15.2986 11.453 15.7781 11.9442 16.0429 12.5346C16.4932 13.5382 16.5194 15.1875 15.1116 16.5321C13.8782 17.71 12.3956 18.2196 10.1549 18.2353C7.66938 18.2177 5.78962 17.4557 4.56745 15.9705C3.42299 14.5798 2.83152 12.571 2.80946 10C2.83152 7.42894 3.42299 5.42017 4.56745 4.02945C5.78962 2.54426 7.66935 1.78229 10.1549 1.76464C12.6584 1.78243 14.5709 2.54806 15.8399 4.04042C16.4621 4.77225 16.9312 5.69258 17.2405 6.76566L19 6.3169C18.6251 4.99606 18.0353 3.85789 17.2326 2.91396C15.6058 1.0007 13.2266 0.0203279 10.161 0H10.1487C7.08938 0.0202573 4.73679 1.00435 3.15632 2.92493C1.74992 4.634 1.02445 7.01205 1.00008 9.99297L1 10L1.00008 10.007C1.02445 12.9879 1.74992 15.366 3.15632 17.0751C4.73679 18.9956 7.08938 19.9798 10.1487 20H10.161C12.8809 19.982 14.7981 19.3013 16.3775 17.7928C18.4439 15.8194 18.3817 13.3457 17.7006 11.8272C17.212 10.7382 16.2805 9.85377 15.0066 9.26961ZM10.3104 13.4903C9.17276 13.5516 7.99087 13.0634 7.93259 12.0179C7.88939 11.2427 8.50971 10.3777 10.3802 10.2747C10.5944 10.2629 10.8046 10.2571 11.0111 10.2571C11.6906 10.2571 12.3262 10.3202 12.904 10.4409C12.6885 13.0141 11.4242 13.4319 10.3104 13.4903Z" />
</svg>
