<?xml version="1.0" encoding="UTF-8"?>
<svg id="Layer_1" data-name="Layer 1" xmlns="http://www.w3.org/2000/svg" viewBox="0 0 342.84 100">
  <defs>
    <style>
      .cls-1 {
        fill-rule: evenodd;
      }

      .cls-1, .cls-2 {
        fill: #873eff;
      }

      .cls-3 {
        fill: #068db9;
      }
    </style>
  </defs>
  <g>
    <path class="cls-1" d="M227.07,24.11c-4.69,0-7.74,1.53-10.46,6.65l-12.43,23.44v-20.82c0-6.21-2.94-9.27-8.39-9.27s-7.74,1.85-10.46,7.09l-11.77,23v-20.6c0-6.65-2.73-9.48-9.37-9.48h-13.52c-5.12,0-7.96,2.4-7.96,6.76s2.73,6.98,7.74,6.98h5.56v26.27c0,7.41,5.01,11.77,12.21,11.77s10.46-2.83,14.06-9.48l7.85-14.72v12.43c0,7.3,4.8,11.77,12.1,11.77s10.03-2.51,14.17-9.48l18.1-30.52c3.92-6.65,1.2-11.77-7.52-11.77h.11Z"/>
    <path class="cls-1" d="M261.08,24.11c-14.83,0-26.05,11.01-26.05,25.94s11.34,25.84,26.05,25.84,25.94-11.01,26.05-25.84c0-14.93-11.34-25.94-26.05-25.94ZM261.08,59.97c-5.56,0-9.37-4.14-9.37-9.92s3.82-10.03,9.37-10.03,9.37,4.25,9.37,10.03-3.71,9.92-9.37,9.92Z"/>
    <path class="cls-1" d="M316.78,24.11c-14.72,0-26.05,11.01-26.05,25.94s11.34,25.84,26.05,25.84,26.05-11.01,26.05-25.84-11.34-25.94-26.05-25.94ZM316.78,59.97c-5.67,0-9.27-4.14-9.27-9.92s3.71-10.03,9.27-10.03,9.37,4.25,9.37,10.03-3.71,9.92-9.37,9.92Z"/>
  </g>
  <g id="logo-wp-wordpress">
    <g>
      <path class="cls-3" d="M7.11,50c0,16.98,9.87,31.65,24.17,38.6L10.82,32.54c-2.38,5.33-3.71,11.24-3.71,17.46Z"/>
      <path class="cls-3" d="M78.96,47.84c0-5.3-1.9-8.97-3.54-11.83-2.17-3.54-4.21-6.53-4.21-10.06,0-3.94,2.99-7.61,7.2-7.61.19,0,.37.02.56.04-7.63-6.99-17.8-11.26-28.96-11.26-14.98,0-28.17,7.69-35.84,19.33,1.01.03,1.96.05,2.76.05,4.49,0,11.43-.55,11.43-.55,2.31-.14,2.58,3.26.27,3.53,0,0-2.32.27-4.91.41l15.62,46.46,9.39-28.15-6.68-18.31c-2.31-.14-4.5-.41-4.5-.41-2.31-.14-2.04-3.67.27-3.53,0,0,7.08.55,11.3.55,4.48,0,11.43-.55,11.43-.55,2.31-.14,2.58,3.26.27,3.53,0,0-2.33.27-4.91.41l15.5,46.11,4.28-14.29c1.85-5.94,3.26-10.2,3.26-13.87Z"/>
      <path class="cls-3" d="M50.75,53.75l-12.87,37.4c3.84,1.13,7.91,1.75,12.12,1.75,5,0,9.79-.86,14.24-2.43-.11-.18-.22-.38-.31-.59l-13.18-36.12Z"/>
      <path class="cls-3" d="M87.64,29.42c.18,1.37.29,2.83.29,4.41,0,4.35-.81,9.24-3.26,15.36l-13.1,37.88c12.75-7.44,21.33-21.25,21.33-37.08,0-7.46-1.91-14.47-5.25-20.58Z"/>
      <path class="cls-3" d="M50,0C22.43,0,0,22.43,0,50s22.43,50,50,50,50-22.43,50-50S77.57,0,50,0ZM50,97.71c-26.31,0-47.71-21.4-47.71-47.71S23.69,2.29,50,2.29s47.71,21.4,47.71,47.7-21.4,47.71-47.71,47.71Z"/>
    </g>
  </g>
  <path class="cls-2" d="M135.74,51.92h-10.5v10.64h-4.19v-10.64h-10.45v-3.79h10.45v-10.69h4.19v10.69h10.5v3.79Z"/>
</svg>