<svg viewBox="0 0 70 40" fill="none" xmlns="http://www.w3.org/2000/svg">
<path d="M26.4007 20.4607C27.9861 20.4607 29.2714 19.1361 29.2714 17.5022C29.2714 15.8682 27.9861 14.5436 26.4007 14.5436C24.8154 14.5436 23.5301 15.8682 23.5301 17.5022C23.5301 19.1361 24.8154 20.4607 26.4007 20.4607Z" fill="black"/>
<path d="M24.0948 21.7218H28.7066V30.1609H24.0948V21.7218Z" fill="black"/>
<path fill-rule="evenodd" clip-rule="evenodd" d="M20.6599 6.25H36.5188C47.2954 6.25 51.4366 12.3126 51.4366 19.9757C51.4366 29.1424 45.6483 33.75 36.5188 33.75H20.6599V6.25ZM22.1659 7.89903V32.198H36.5189C45.1778 32.198 49.8837 28.0269 49.8837 20.0243C49.8837 11.7791 44.8013 7.89903 36.5189 7.89903H22.1659Z" fill="black"/>
<path fill-rule="evenodd" clip-rule="evenodd" d="M44.6601 14.7861H45.9777V18.8602H47.9072C47.3895 11.4396 41.6954 9.79053 36.5188 9.79053H31.0129V14.7861H31.8129C33.3188 14.7861 34.213 15.8046 34.213 17.5022C34.213 19.1997 33.3188 20.2182 31.86 20.2182H31.0129V30.1609H36.5188C44.9424 30.1609 47.813 26.1353 47.9542 20.2182H44.6601V14.7861ZM38.3072 18.8602V20.2182H35.013V14.7861H38.213V16.1441H36.3307V16.7746H38.1189V18.1327H36.3777V18.8602H38.3072ZM38.8716 20.2182L40.4716 14.7861H42.3539L43.9539 20.2182H42.5892L42.3069 19.1997H40.5657L40.2833 20.2182H38.8716ZM40.957 17.7931H40.9423V17.8417L40.957 17.7931ZM40.957 17.7931H41.8834L41.4599 16.2896H41.4128L40.957 17.7931ZM31.0128 18.8602V16.1441H31.8128C32.3305 16.1441 32.8952 16.2896 32.8952 17.5022C32.8952 18.7147 32.3775 18.8602 31.8128 18.8602H31.0128Z" fill="#D50072"/>
</svg>
