<svg viewBox="0 0 24 16" xmlns="http://www.w3.org/2000/svg">
<g id="Asset 1 1" clip-path="url(#clip0_2165_4760)">
<g id="Layer 1">
<g id="Clip path group">
<mask id="mask0_2165_4760" style="mask-type:luminance" maskUnits="userSpaceOnUse" x="0" y="0" width="24" height="16">
<g id="clippath">
<path id="Vector" d="M22 0H2C0.89543 0 0 0.89543 0 2V14C0 15.1046 0.89543 16 2 16H22C23.1046 16 24 15.1046 24 14V2C24 0.89543 23.1046 0 22 0Z" fill="white"/>
</g>
</mask>
<g mask="url(#mask0_2165_4760)">
<g id="Group">
<g id="Group_2">
<path id="Vector_2" fill-rule="evenodd" clip-rule="evenodd" d="M0 0H32V32H0V0Z" fill="url(#paint0_linear_2165_4760)"/>
<path id="Vector_3" fill-rule="evenodd" clip-rule="evenodd" d="M13.0604 3.50977V7.71977H19.7704C20.9304 7.71977 21.8704 6.77977 21.8704 5.61977C21.8704 4.45977 20.9304 3.51977 19.7704 3.51977H13.0604V3.50977ZM12.4904 7.70977C12.4504 6.87977 12.2504 6.13977 11.9004 5.50977C11.5204 4.80977 10.9504 4.23977 10.2504 3.85977C9.55039 3.46977 8.71039 3.25977 7.77039 3.25977H6.88039C5.94039 3.25977 5.10039 3.46977 4.40039 3.85977C3.70039 4.23977 3.13039 4.80977 2.75039 5.50977C2.36039 6.20977 2.15039 7.04977 2.15039 7.98977C2.15039 8.92977 2.36039 9.76977 2.75039 10.4698C3.14039 11.1698 3.70039 11.7298 4.40039 12.1198C5.10039 12.5098 5.94039 12.7198 6.88039 12.7198H7.77039C8.71039 12.7198 9.55039 12.5098 10.2504 12.1198C10.9504 11.7398 11.5204 11.1698 11.9004 10.4698C12.2504 9.83977 12.4504 9.09977 12.4904 8.26977H7.48039V7.69977H12.4904V7.70977ZM13.0604 8.27977V12.4898H19.7704C20.9304 12.4898 21.8704 11.5498 21.8704 10.3898C21.8704 9.22977 20.9304 8.28977 19.7704 8.28977H13.0604V8.27977Z" fill="white"/>
</g>
</g>
</g>
</g>
</g>
</g>
<defs>
<linearGradient id="paint0_linear_2165_4760" x1="26.68" y1="-0.85" x2="6.2" y2="31.79" gradientUnits="userSpaceOnUse">
<stop stop-color="#002253"/>
<stop offset="0.24" stop-color="#0082B1"/>
<stop offset="1" stop-color="#0E9641"/>
</linearGradient>
<clipPath id="clip0_2165_4760">
<rect width="24" height="16" fill="white"/>
</clipPath>
</defs>
</svg>

