<svg viewBox="0 0 20 18" fill="none" xmlns="http://www.w3.org/2000/svg">
<g id="Group 11">
<g id="email-pers">
<path d="M10 7.7998L18 2.7998H2L10 7.7998ZM10 9.7998L2 4.7998V14.7998H9.2V16.7998H2C1.4 16.7998 1 16.5998 0.6 16.1998C0.2 15.7998 0 15.2998 0 14.7998V2.7998C0 2.1998 0.2 1.7998 0.6 1.3998C1 0.999805 1.5 0.799805 2 0.799805H18C18.6 0.799805 19 0.999805 19.4 1.3998C19.8 1.7998 20 2.2998 20 2.7998V9.1998H18V4.7998L10 9.7998Z"/>
<path d="M14.9 13.1998C15.5 13.1998 15.9 12.9998 16.3 12.5998C16.7 12.1998 16.9 11.6998 16.9 11.1998C16.9 10.6998 16.7 10.1998 16.3 9.7998C15.9 9.39981 15.4 9.1998 14.9 9.1998C14.4 9.1998 13.9 9.39981 13.5 9.7998C13.1 10.1998 12.9 10.6998 12.9 11.1998C12.9 11.6998 13.1 12.1998 13.5 12.5998C13.9 12.9998 14.4 13.1998 14.9 13.1998ZM14.9 17.1998C15.7 17.1998 16.4 16.9998 17 16.6998C17.7 16.3998 18.2 15.8998 18.7 15.2998C18.1 14.8998 17.5 14.5998 16.9 14.3998C16.3 14.1998 15.6 14.0998 14.9 14.0998C14.2 14.0998 13.6 14.1998 12.9 14.3998C12.2 14.5998 11.6 14.8998 11.1 15.2998C11.6 15.8998 12.2 16.2998 12.8 16.6998C13.4 17.0998 14.2 17.1998 14.9 17.1998Z"/>
</g>
</g>
</svg>
