<svg viewBox="0 0 22 20" fill="none" xmlns="http://www.w3.org/2000/svg">
<g id="Group 11">
<path id="unsubscribe" d="M10 9.5L2 4.5V14.5H10C10 14.85 10.025 15.1875 10.075 15.5125C10.125 15.8375 10.2 16.1667 10.3 16.5H2C1.45 16.5 0.979167 16.3042 0.5875 15.9125C0.195833 15.5208 0 15.05 0 14.5V2.5C0 1.95 0.195833 1.47917 0.5875 1.0875C0.979167 0.695833 1.45 0.5 2 0.5H18C18.55 0.5 19.0208 0.695833 19.4125 1.0875C19.8042 1.47917 20 1.95 20 2.5V8.2C19.7 8.05 19.3792 7.925 19.0375 7.825C18.6958 7.725 18.35 7.65 18 7.6V4.5L10 9.5ZM10 7.5L18 2.5H2L10 7.5ZM17 19.5C15.6167 19.5 14.4375 19.0125 13.4625 18.0375C12.4875 17.0625 12 15.8833 12 14.5C12 13.1167 12.4875 11.9375 13.4625 10.9625C14.4375 9.9875 15.6167 9.5 17 9.5C18.3833 9.5 19.5625 9.9875 20.5375 10.9625C21.5125 11.9375 22 13.1167 22 14.5C22 15.8833 21.5125 17.0625 20.5375 18.0375C19.5625 19.0125 18.3833 19.5 17 19.5ZM14 15H20V14H14V15Z"/>
</g>
</svg>
