<svg xmlns="http://www.w3.org/2000/svg" viewBox="0 0 24 24"><path d="m21,11.05v7.95c0,.55-.2,1.02-.59,1.41-.39.39-.86.59-1.41.59H5c-.55,0-1.02-.2-1.41-.59-.39-.39-.59-.86-.59-1.41v-7.95c-.38-.35-.68-.8-.89-1.35s-.21-1.15-.01-1.8l1.05-3.4c.13-.43.37-.79.71-1.08s.74-.43,1.19-.43h13.9c.45,0,.84.14,1.18.41s.58.64.73,1.09l1.05,3.4c.2.65.2,1.24-.01,1.78s-.5.99-.89,1.38Zm-6.8-1.05c.45,0,.79-.15,1.03-.46s.33-.65.28-1.04l-.55-3.5h-1.95v3.7c0,.35.12.65.35.91s.52.39.85.39Zm-4.5,0c.38,0,.7-.13.94-.39s.36-.56.36-.91v-3.7h-1.95l-.55,3.5c-.07.4.02.75.26,1.05s.55.45.94.45Zm-4.45,0c.3,0,.56-.11.79-.33s.36-.49.41-.83l.55-3.85h-1.95l-1,3.35c-.1.33-.05.69.16,1.08s.55.58,1.04.58Zm13.5,0c.48,0,.83-.19,1.05-.58s.27-.74.15-1.08l-1.05-3.35h-1.9l.55,3.85c.05.33.19.61.41.83s.49.33.79.33Zm-13.75,9h14v-7.05c-.08.03-.14.05-.16.05h-.09c-.45,0-.85-.08-1.19-.23s-.68-.39-1.01-.73c-.3.3-.64.53-1.03.7s-.79.25-1.23.25-.87-.08-1.26-.25c-.39-.17-.74-.4-1.04-.7-.28.3-.61.53-.99.7s-.78.25-1.21.25c-.48,0-.92-.08-1.31-.25s-.74-.4-1.04-.7c-.35.35-.7.6-1.04.74-.34.14-.73.21-1.16.21h-.11s-.09-.02-.14-.05v7.05Zm14,0H5h14Z"/></svg>