<svg xmlns="http://www.w3.org/2000/svg" viewBox="0 0 18 18">
    <path d="M8.75 17.0002C7.9875 17.0002 7.20625 16.8627 6.40625 16.5877C5.60625 16.3127 4.88125 15.9377 4.23125 15.4627C3.58125 14.9877 3.04688 14.4314 2.62813 13.7939C2.20937 13.1564 2 12.4752 2 11.7502V9.5002L5 11.7502L3.8375 12.9127C4.2 13.5502 4.775 14.1002 5.5625 14.5627C6.35 15.0252 7.1625 15.3189 8 15.4439V8.7502H5.75V7.2502H8V6.36895C7.5625 6.20645 7.20312 5.93457 6.92188 5.55332C6.64062 5.17207 6.5 4.7377 6.5 4.2502C6.5 3.6252 6.71875 3.09395 7.15625 2.65645C7.59375 2.21895 8.125 2.0002 8.75 2.0002C9.375 2.0002 9.90625 2.21895 10.3438 2.65645C10.7812 3.09395 11 3.6252 11 4.2502C11 4.7377 10.8594 5.17207 10.5781 5.55332C10.2969 5.93457 9.9375 6.20645 9.5 6.36895V7.2502H11.75V8.7502H9.5V15.4439C10.3375 15.3189 11.15 15.0252 11.9375 14.5627C12.725 14.1002 13.3 13.5502 13.6625 12.9127L12.5 11.7502L15.5 9.5002V11.7502C15.5 12.4752 15.2906 13.1564 14.8719 13.7939C14.4531 14.4314 13.9188 14.9877 13.2688 15.4627C12.6188 15.9377 11.8938 16.3127 11.0938 16.5877C10.2938 16.8627 9.5125 17.0002 8.75 17.0002ZM8.75 5.0002C8.9625 5.0002 9.14063 4.92832 9.28438 4.78457C9.42813 4.64082 9.5 4.4627 9.5 4.2502C9.5 4.0377 9.42813 3.85957 9.28438 3.71582C9.14063 3.57207 8.9625 3.5002 8.75 3.5002C8.5375 3.5002 8.35938 3.57207 8.21563 3.71582C8.07188 3.85957 8 4.0377 8 4.2502C8 4.4627 8.07188 4.64082 8.21563 4.78457C8.35938 4.92832 8.5375 5.0002 8.75 5.0002Z"/>
</svg>
