<svg viewBox="0 0 18 18" xmlns="http://www.w3.org/2000/svg">
<path d="M8.75 12.5H5.75C4.7125 12.5 3.82813 12.1344 3.09688 11.4031C2.36563 10.6719 2 9.7875 2 8.75C2 7.7125 2.36563 6.82813 3.09688 6.09688C3.82813 5.36563 4.7125 5 5.75 5H8.75V6.5H5.75C5.125 6.5 4.59375 6.71875 4.15625 7.15625C3.71875 7.59375 3.5 8.125 3.5 8.75C3.5 9.375 3.71875 9.90625 4.15625 10.3438C4.59375 10.7813 5.125 11 5.75 11H8.75V12.5ZM6.5 9.5V8H12.5V9.5H6.5ZM10.25 12.5V11H13.25C13.875 11 14.4063 10.7813 14.8438 10.3438C15.2813 9.90625 15.5 9.375 15.5 8.75C15.5 8.125 15.2813 7.59375 14.8438 7.15625C14.4063 6.71875 13.875 6.5 13.25 6.5H10.25V5H13.25C14.2875 5 15.1719 5.36563 15.9031 6.09688C16.6344 6.82813 17 7.7125 17 8.75C17 9.7875 16.6344 10.6719 15.9031 11.4031C15.1719 12.1344 14.2875 12.5 13.25 12.5H10.25Z"/>
</svg>
