<svg viewBox="0 0 24 24" xmlns="http://www.w3.org/2000/svg">
<path d="M12.265 21.946C10.9049 21.946 9.62689 21.6878 8.43073 21.1718C7.23458 20.6556 6.1941 19.955 5.30926 19.0703C4.42444 18.1855 3.72396 17.1449 3.20781 15.9488C2.69166 14.7526 2.43359 13.4746 2.43359 12.1145C2.43359 10.7546 2.69166 9.47649 3.20781 8.28034C3.72396 7.08419 4.42444 6.04371 5.30926 5.15888C6.1941 4.27405 7.23458 3.57357 8.43073 3.05742C9.62689 2.54128 10.9049 2.2832 12.265 2.2832C13.625 2.2832 14.9031 2.54128 16.0992 3.05742C17.2954 3.57357 18.3358 4.27405 19.2207 5.15888C20.1055 6.04371 20.806 7.08419 21.3221 8.28034C21.8383 9.47649 22.0963 10.7546 22.0963 12.1145C22.0963 13.4746 21.8383 14.7526 21.3221 15.9488C20.806 17.1449 20.1055 18.1855 19.2207 19.0703C18.3358 19.955 17.2954 20.6556 16.0992 21.1718C14.9031 21.6878 13.625 21.946 12.265 21.946ZM11.2818 19.9305V18.0134C10.7411 18.0134 10.2783 17.8209 9.8931 17.4358C9.50808 17.0508 9.31555 16.5878 9.31555 16.0471V15.0639L4.59649 10.345C4.54734 10.6399 4.50228 10.9348 4.46132 11.2298C4.42035 11.5247 4.39987 11.8196 4.39987 12.1145C4.39987 14.0972 5.0512 15.8342 6.35385 17.3252C7.65651 18.8163 9.29917 19.6847 11.2818 19.9305ZM18.0655 17.4235C18.7373 16.6862 19.2494 15.8628 19.6016 14.9534C19.9539 14.0439 20.1301 13.0977 20.1301 12.1145C20.1301 10.5087 19.6836 9.04228 18.7906 7.71504C17.8975 6.3878 16.7055 5.42924 15.2144 4.83936V5.23261C15.2144 5.77334 15.0218 6.23623 14.6367 6.6213C14.2517 7.00636 13.7888 7.19889 13.2481 7.19889H11.2818V9.16517C11.2818 9.44372 11.1876 9.67719 10.9992 9.86564C10.8108 10.0541 10.5773 10.1483 10.2987 10.1483H8.33242V12.1145H14.2312C14.5098 12.1145 14.7433 12.2088 14.9318 12.3973C15.1202 12.5857 15.2144 12.8192 15.2144 13.0977V16.0471H16.1975C16.6236 16.0471 17.0086 16.1741 17.3527 16.4281C17.6968 16.682 17.9343 17.0139 18.0655 17.4235Z" />
</svg>
