<svg viewBox="0 0 18 18" xmlns="http://www.w3.org/2000/svg">
<g id="Icon">
<path id="Vector" d="M8.25 14.75H9.75V11.6188L10.95 12.8188L12 11.75L9 8.75L6 11.75L7.06875 12.8L8.25 11.6188V14.75ZM4.5 17C4.0875 17 3.73438 16.8531 3.44063 16.5594C3.14687 16.2656 3 15.9125 3 15.5V3.5C3 3.0875 3.14687 2.73438 3.44063 2.44063C3.73438 2.14687 4.0875 2 4.5 2H10.5L15 6.5V15.5C15 15.9125 14.8531 16.2656 14.5594 16.5594C14.2656 16.8531 13.9125 17 13.5 17H4.5ZM9.75 7.25V3.5H4.5V15.5H13.5V7.25H9.75Z"/>
</g>
</svg>
