<svg viewBox="0 0 24 24" xmlns="http://www.w3.org/2000/svg">
<path d="M6.76471 21C5.24804 21 3.95221 20.475 2.87721 19.425C1.80221 18.375 1.26471 17.0917 1.26471 15.575C1.26471 14.275 1.65638 13.1167 2.43971 12.1C3.22304 11.0833 4.24804 10.4333 5.51471 10.15C5.93138 8.61667 6.76471 7.375 8.01471 6.425C9.26471 5.475 10.6814 5 12.2647 5C14.2147 5 15.8689 5.67917 17.2272 7.0375C18.5855 8.39583 19.2647 10.05 19.2647 12C20.4147 12.1333 21.3689 12.6292 22.1272 13.4875C22.8855 14.3458 23.2647 15.35 23.2647 16.5C23.2647 17.75 22.8272 18.8125 21.9522 19.6875C21.0772 20.5625 20.0147 21 18.7647 21H6.76471ZM6.76471 19H18.7647C19.4647 19 20.0564 18.7583 20.5397 18.275C21.023 17.7917 21.2647 17.2 21.2647 16.5C21.2647 15.8 21.023 15.2083 20.5397 14.725C20.0564 14.2417 19.4647 14 18.7647 14H17.2647V12C17.2647 10.6167 16.7772 9.4375 15.8022 8.4625C14.8272 7.4875 13.648 7 12.2647 7C10.8814 7 9.70221 7.4875 8.72721 8.4625C7.75221 9.4375 7.26471 10.6167 7.26471 12H6.76471C5.79804 12 4.97304 12.3417 4.28971 13.025C3.60638 13.7083 3.26471 14.5333 3.26471 15.5C3.26471 16.4667 3.60638 17.2917 4.28971 17.975C4.97304 18.6583 5.79804 19 6.76471 19ZM12.2647 17C12.548 17 12.7855 16.9042 12.9772 16.7125C13.1689 16.5208 13.2647 16.2833 13.2647 16C13.2647 15.7167 13.1689 15.4792 12.9772 15.2875C12.7855 15.0958 12.548 15 12.2647 15C11.9814 15 11.7439 15.0958 11.5522 15.2875C11.3605 15.4792 11.2647 15.7167 11.2647 16C11.2647 16.2833 11.3605 16.5208 11.5522 16.7125C11.7439 16.9042 11.9814 17 12.2647 17ZM11.2647 13.5H13.2647V9H11.2647V13.5Z"/>
</svg>
