<svg viewBox="0 0 24 24" xmlns="http://www.w3.org/2000/svg">
<path d="M21.2083 22.5462L18.3081 19.646C17.5216 20.1703 16.6736 20.5718 15.7642 20.8504C14.8548 21.1289 13.8921 21.2682 12.8762 21.2682C11.5162 21.2682 10.2381 21.0102 9.04198 20.494C7.84583 19.9779 6.80534 19.2774 5.92052 18.3925C5.0357 17.5077 4.3352 16.4672 3.81906 15.2711C3.30292 14.0749 3.04484 12.7969 3.04484 11.4368C3.04484 10.421 3.18412 9.45828 3.46267 8.54887C3.74123 7.63947 4.14268 6.79151 4.66702 6.005L1.74219 3.08017L3.14315 1.6792L22.6093 21.1453L21.2083 22.5462ZM11.8931 19.2528V17.3357C11.3523 17.3357 10.8895 17.1432 10.5044 16.758C10.1194 16.373 9.9268 15.9102 9.9268 15.3694V14.3862L5.20774 9.66717C5.15859 9.96209 5.11352 10.2571 5.07256 10.552C5.0316 10.8469 5.01111 11.1419 5.01111 11.4368C5.01111 13.4195 5.66244 15.1564 6.9651 16.6474C8.26776 18.1386 9.91039 19.007 11.8931 19.2528ZM21.0854 16.8196L19.6599 15.394C20.0039 14.7877 20.2702 14.1528 20.4587 13.4891C20.6471 12.8255 20.7413 12.1414 20.7413 11.4368C20.7413 9.83105 20.2948 8.36453 19.4018 7.0373C18.5087 5.71006 17.3167 4.7515 15.8256 4.16162V4.55488C15.8256 5.09561 15.6331 5.5585 15.248 5.94356C14.8629 6.32862 14.4001 6.52115 13.8593 6.52115H11.8931V7.62718L7.49354 3.22764C8.28005 2.71968 9.12391 2.32234 10.0251 2.03559C10.9264 1.74884 11.8767 1.60547 12.8762 1.60547C14.2362 1.60547 15.5143 1.86354 16.7105 2.37969C17.9066 2.89583 18.9471 3.59632 19.8319 4.48114C20.7167 5.36596 21.4172 6.40645 21.9333 7.6026C22.4495 8.79875 22.7076 10.0768 22.7076 11.4368C22.7076 12.4364 22.5642 13.3867 22.2775 14.2879C21.9907 15.1892 21.5934 16.033 21.0854 16.8196Z" />
</svg>
