<svg viewBox="0 0 24 24" xmlns="http://www.w3.org/2000/svg">
<path d="M13.7 20H19.3C19.1833 20.4333 18.9833 20.7833 18.7 21.05C18.4167 21.3167 18.05 21.4833 17.6 21.55L6.7 22.875C6.15 22.9583 5.65417 22.8292 5.2125 22.4875C4.77084 22.1458 4.51667 21.7 4.45 21.15L3.125 10.225C3.05834 9.675 3.19167 9.18333 3.525 8.75C3.85834 8.31667 4.3 8.06667 4.85 8L6 7.85V9.85L5.1 9.975L6.45 20.9L13.7 20ZM10 18C9.45 18 8.97917 17.8042 8.5875 17.4125C8.19584 17.0208 8 16.55 8 16V5C8 4.45 8.19584 3.97917 8.5875 3.5875C8.97917 3.19583 9.45 3 10 3H21C21.55 3 22.0208 3.19583 22.4125 3.5875C22.8042 3.97917 23 4.45 23 5V16C23 16.55 22.8042 17.0208 22.4125 17.4125C22.0208 17.8042 21.55 18 21 18H10ZM10 16H21V5H10V16ZM15.525 15C16.6583 15 17.6208 14.6083 18.4125 13.825C19.2042 13.0417 19.6417 12.1 19.725 11C18.5917 11 17.6208 11.3917 16.8125 12.175C16.0042 12.9583 15.575 13.9 15.525 15ZM15.525 15C15.475 13.9 15.0458 12.9583 14.2375 12.175C13.4292 11.3917 12.4583 11 11.325 11C11.4083 12.1 11.8458 13.0417 12.6375 13.825C13.4292 14.6083 14.3917 15 15.525 15ZM15.525 12C15.8083 12 16.0458 11.9042 16.2375 11.7125C16.4292 11.5208 16.525 11.2833 16.525 11V10.75L16.775 10.85C17.025 10.95 17.2792 10.975 17.5375 10.925C17.7958 10.875 17.9917 10.7333 18.125 10.5C18.275 10.25 18.325 9.98333 18.275 9.7C18.225 9.41667 18.0583 9.21667 17.775 9.1L17.525 9L17.775 8.9C18.0583 8.78333 18.2208 8.57917 18.2625 8.2875C18.3042 7.99583 18.2583 7.73333 18.125 7.5C17.975 7.25 17.775 7.10417 17.525 7.0625C17.275 7.02083 17.025 7.05 16.775 7.15L16.525 7.25V7C16.525 6.71667 16.4292 6.47917 16.2375 6.2875C16.0458 6.09583 15.8083 6 15.525 6C15.2417 6 15.0042 6.09583 14.8125 6.2875C14.6208 6.47917 14.525 6.71667 14.525 7V7.25L14.275 7.15C14.025 7.05 13.775 7.02083 13.525 7.0625C13.275 7.10417 13.075 7.25 12.925 7.5C12.7917 7.73333 12.7458 7.99583 12.7875 8.2875C12.8292 8.57917 12.9917 8.78333 13.275 8.9L13.525 9L13.275 9.1C12.9917 9.21667 12.825 9.41667 12.775 9.7C12.725 9.98333 12.775 10.25 12.925 10.5C13.0583 10.7333 13.2542 10.875 13.5125 10.925C13.7708 10.975 14.025 10.95 14.275 10.85L14.525 10.75V11C14.525 11.2833 14.6208 11.5208 14.8125 11.7125C15.0042 11.9042 15.2417 12 15.525 12ZM15.525 10C15.2417 10 15.0042 9.90417 14.8125 9.7125C14.6208 9.52083 14.525 9.28333 14.525 9C14.525 8.71667 14.6208 8.47917 14.8125 8.2875C15.0042 8.09583 15.2417 8 15.525 8C15.8083 8 16.0458 8.09583 16.2375 8.2875C16.4292 8.47917 16.525 8.71667 16.525 9C16.525 9.28333 16.4292 9.52083 16.2375 9.7125C16.0458 9.90417 15.8083 10 15.525 10Z"/>
</svg>
