<svg viewBox="0 0 24 24" xmlns="http://www.w3.org/2000/svg">
<path d="M11 22.5C9.61667 22.5 8.31667 22.2375 7.1 21.7125C5.88333 21.1875 4.825 20.475 3.925 19.575C3.025 18.675 2.3125 17.6167 1.7875 16.4C1.2625 15.1833 1 13.8833 1 12.5C1 11.1167 1.2625 9.81667 1.7875 8.6C2.3125 7.38333 3.025 6.325 3.925 5.425C4.825 4.525 5.88333 3.8125 7.1 3.2875C8.31667 2.7625 9.61667 2.5 11 2.5C11.7167 2.5 12.4083 2.57083 13.075 2.7125C13.7417 2.85417 14.3833 3.05833 15 3.325V5.575C14.4167 5.24167 13.7875 4.97917 13.1125 4.7875C12.4375 4.59583 11.7333 4.5 11 4.5C8.78333 4.5 6.89583 5.27917 5.3375 6.8375C3.77917 8.39583 3 10.2833 3 12.5C3 14.7167 3.77917 16.6042 5.3375 18.1625C6.89583 19.7208 8.78333 20.5 11 20.5C13.2167 20.5 15.1042 19.7208 16.6625 18.1625C18.2208 16.6042 19 14.7167 19 12.5C19 11.9667 18.9458 11.45 18.8375 10.95C18.7292 10.45 18.5833 9.96667 18.4 9.5H20.55C20.7 9.98333 20.8125 10.4708 20.8875 10.9625C20.9625 11.4542 21 11.9667 21 12.5C21 13.8833 20.7375 15.1833 20.2125 16.4C19.6875 17.6167 18.975 18.675 18.075 19.575C17.175 20.475 16.1167 21.1875 14.9 21.7125C13.6833 22.2375 12.3833 22.5 11 22.5ZM19 7.5V5.5H17V3.5H19V1.5H21V3.5H23V5.5H21V7.5H19ZM14.5 11.5C14.9167 11.5 15.2708 11.3542 15.5625 11.0625C15.8542 10.7708 16 10.4167 16 10C16 9.58333 15.8542 9.22917 15.5625 8.9375C15.2708 8.64583 14.9167 8.5 14.5 8.5C14.0833 8.5 13.7292 8.64583 13.4375 8.9375C13.1458 9.22917 13 9.58333 13 10C13 10.4167 13.1458 10.7708 13.4375 11.0625C13.7292 11.3542 14.0833 11.5 14.5 11.5ZM7.5 11.5C7.91667 11.5 8.27083 11.3542 8.5625 11.0625C8.85417 10.7708 9 10.4167 9 10C9 9.58333 8.85417 9.22917 8.5625 8.9375C8.27083 8.64583 7.91667 8.5 7.5 8.5C7.08333 8.5 6.72917 8.64583 6.4375 8.9375C6.14583 9.22917 6 9.58333 6 10C6 10.4167 6.14583 10.7708 6.4375 11.0625C6.72917 11.3542 7.08333 11.5 7.5 11.5ZM11 18C12.1333 18 13.1625 17.6792 14.0875 17.0375C15.0125 16.3958 15.6833 15.55 16.1 14.5H5.9C6.31667 15.55 6.9875 16.3958 7.9125 17.0375C8.8375 17.6792 9.86667 18 11 18Z"/>
</svg>
