<svg xmlns="http://www.w3.org/2000/svg" viewBox="0 0 24 24"><path d="M16.4 20.7273C15.4833 20.7273 14.7042 20.4091 14.0625 19.7727C13.4208 19.1364 13.1 18.3636 13.1 17.4545C13.1 16.5455 13.4208 15.7727 14.0625 15.1364C14.7042 14.5 15.4833 14.1818 16.4 14.1818C17.3167 14.1818 18.0958 14.5 18.7375 15.1364C19.3792 15.7727 19.7 16.5455 19.7 17.4545C19.7 18.3636 19.3792 19.1364 18.7375 19.7727C18.0958 20.4091 17.3167 20.7273 16.4 20.7273ZM15.575 13.0909V10.9091H17.225V13.0909H15.575ZM15.575 24V21.8182H17.225V24H15.575ZM20.1125 14.9182L18.93 13.7727L20.4975 12.2182L21.6525 13.3909L20.1125 14.9182ZM12.3025 22.6636L11.1475 21.5182L12.715 19.9636L13.87 21.1091L12.3025 22.6636ZM20.8 18.2727V16.6364H23V18.2727H20.8ZM9.8 18.2727V16.6364H12V18.2727H9.8ZM20.4975 22.6636L18.9575 21.1091L20.1125 19.9636L21.68 21.4909L20.4975 22.6636ZM12.6875 14.9455L11.1475 13.3909L12.3025 12.2455L13.87 13.7727L12.6875 14.9455ZM3.2 21.8182C2.595 21.8182 2.07708 21.6045 1.64625 21.1773C1.21542 20.75 1 20.2364 1 19.6364V4.36364C1 3.76364 1.21542 3.25 1.64625 2.82273C2.07708 2.39545 2.595 2.18182 3.2 2.18182H4.3V0H6.5V2.18182H15.3V0H17.5V2.18182H18.6C19.205 2.18182 19.7229 2.39545 20.1537 2.82273C20.5846 3.25 20.8 3.76364 20.8 4.36364V8.72727H3.2V19.6364H7.6V21.8182H3.2ZM3.2 6.54545H18.6V4.36364H3.2V6.54545Z"/></svg>