<svg viewBox="0 0 24 24" xmlns="http://www.w3.org/2000/svg">
<path d="M16.1 13.8784L14.65 12.4284C14.8 11.6451 14.575 10.9118 13.975 10.2284C13.375 9.54508 12.6 9.27842 11.65 9.42842L10.2 7.97842C10.4833 7.84508 10.7708 7.74508 11.0625 7.67842C11.3542 7.61175 11.6667 7.57842 12 7.57842C13.25 7.57842 14.3125 8.01592 15.1875 8.89092C16.0625 9.76592 16.5 10.8284 16.5 12.0784C16.5 12.4118 16.4667 12.7243 16.4 13.0159C16.3333 13.3076 16.2333 13.5951 16.1 13.8784ZM19.3 17.0284L17.85 15.6284C18.4833 15.1451 19.0458 14.6159 19.5375 14.0409C20.0292 13.4659 20.45 12.8118 20.8 12.0784C19.9667 10.3951 18.7708 9.05758 17.2125 8.06592C15.6542 7.07425 13.9167 6.57842 12 6.57842C11.5167 6.57842 11.0417 6.61175 10.575 6.67842C10.1083 6.74508 9.65 6.84508 9.2 6.97842L7.65 5.42842C8.33333 5.14508 9.03333 4.93258 9.75 4.79092C10.4667 4.64925 11.2167 4.57842 12 4.57842C14.5167 4.57842 16.7583 5.27425 18.725 6.66592C20.6917 8.05758 22.1167 9.86175 23 12.0784C22.6167 13.0618 22.1125 13.9743 21.4875 14.8159C20.8625 15.6576 20.1333 16.3951 19.3 17.0284ZM19.8 23.1784L15.6 19.0284C15.0167 19.2118 14.4292 19.3493 13.8375 19.4409C13.2458 19.5326 12.6333 19.5784 12 19.5784C9.48333 19.5784 7.24167 18.8826 5.275 17.4909C3.30833 16.0993 1.88333 14.2951 1 12.0784C1.35 11.1951 1.79167 10.3743 2.325 9.61592C2.85833 8.85758 3.46667 8.17842 4.15 7.57842L1.4 4.77842L2.8 3.37842L21.2 21.7784L19.8 23.1784ZM5.55 8.97842C5.06667 9.41175 4.625 9.88675 4.225 10.4034C3.825 10.9201 3.48333 11.4784 3.2 12.0784C4.03333 13.7618 5.22917 15.0993 6.7875 16.0909C8.34583 17.0826 10.0833 17.5784 12 17.5784C12.3333 17.5784 12.6583 17.5576 12.975 17.5159C13.2917 17.4743 13.6167 17.4284 13.95 17.3784L13.05 16.4284C12.8667 16.4784 12.6917 16.5159 12.525 16.5409C12.3583 16.5659 12.1833 16.5784 12 16.5784C10.75 16.5784 9.6875 16.1409 8.8125 15.2659C7.9375 14.3909 7.5 13.3284 7.5 12.0784C7.5 11.8951 7.5125 11.7201 7.5375 11.5534C7.5625 11.3868 7.6 11.2118 7.65 11.0284L5.55 8.97842Z"/>
</svg>
