<svg viewBox="0 0 24 24" xmlns="http://www.w3.org/2000/svg">
<path d="M12.2892 17.4097C13.5693 17.4097 14.6575 16.9617 15.5535 16.0656C16.4496 15.1695 16.8977 14.0814 16.8977 12.8012C16.8977 11.5211 16.4496 10.433 15.5535 9.53692C14.6575 8.64083 13.5693 8.19279 12.2892 8.19279C11.0091 8.19279 9.92099 8.64083 9.0249 9.53692C8.12881 10.433 7.68077 11.5211 7.68077 12.8012C7.68077 14.0814 8.12881 15.1695 9.0249 16.0656C9.92099 16.9617 11.0091 17.4097 12.2892 17.4097ZM12.2892 15.5663C11.5211 15.5663 10.8683 15.2975 10.3306 14.7598C9.79298 14.2222 9.52415 13.5693 9.52415 12.8012C9.52415 12.0332 9.79298 11.3803 10.3306 10.8426C10.8683 10.305 11.5211 10.0362 12.2892 10.0362C13.0573 10.0362 13.7102 10.305 14.2478 10.8426C14.7855 11.3803 15.0543 12.0332 15.0543 12.8012C15.0543 13.5693 14.7855 14.2222 14.2478 14.7598C13.7102 15.2975 13.0573 15.5663 12.2892 15.5663ZM12.2892 20.482C9.79724 20.482 7.52715 19.7865 5.47895 18.3954C3.43075 17.0043 1.9458 15.1396 1.02411 12.8012C1.9458 10.4629 3.43075 8.59816 5.47895 7.20709C7.52715 5.81602 9.79724 5.12048 12.2892 5.12048C14.7812 5.12048 17.0513 5.81602 19.0995 7.20709C21.1477 8.59816 22.6326 10.4629 23.5543 12.8012C22.6326 15.1396 21.1477 17.0043 19.0995 18.3954C17.0513 19.7865 14.7812 20.482 12.2892 20.482ZM12.2892 18.4338C14.2179 18.4338 15.9888 17.926 17.6017 16.9104C19.2147 15.8949 20.4479 14.5251 21.3013 12.8012C20.4479 11.0773 19.2147 9.7076 17.6017 8.69204C15.9888 7.67647 14.2179 7.16869 12.2892 7.16869C10.3605 7.16869 8.58966 7.67647 6.9767 8.69204C5.36374 9.7076 4.13055 11.0773 3.27713 12.8012C4.13055 14.5251 5.36374 15.8949 6.9767 16.9104C8.58966 17.926 10.3605 18.4338 12.2892 18.4338Z"/>
</svg>
