<svg viewBox="0 0 18 18" xmlns="http://www.w3.org/2000/svg">
  <path d="M11.9144 15.8509L8.98663 12.9231L9.77694 12.1328L11.9144 14.2703L16.1664 10.0183L16.9567 10.8086L11.9144 15.8509ZM9.125 7.875L15.0097 4.125H3.24031L9.125 7.875ZM9.125 9.04331L3.125 5.20669V12.8942C3.125 12.9616 3.14663 13.0169 3.18988 13.0601C3.23313 13.1034 3.28844 13.125 3.35581 13.125H7.08125L8.20625 14.25H3.35581C2.97694 14.25 2.65625 14.1188 2.39375 13.8563C2.13125 13.5938 2 13.2731 2 12.8942V4.35581C2 3.97694 2.13125 3.65625 2.39375 3.39375C2.65625 3.13125 2.97694 3 3.35581 3H14.8942C15.2731 3 15.5938 3.13125 15.8563 3.39375C16.1188 3.65625 16.25 3.97694 16.25 4.35581V7.83469L15.125 8.95969V5.20669L9.125 9.04331Z"/>
</svg>
