<svg viewBox="0 0 24 24" xmlns="http://www.w3.org/2000/svg">
    <path d="M20.5103 23.1784L14.9103 17.5784H7.73531V10.4034L2.13531 4.80342L3.53531 3.37842L21.9353 21.7784L20.5103 23.1784ZM9.73531 15.5784H12.9103L9.73531 12.4034V15.5784ZM17.7353 14.7534L15.7353 12.7534V9.57842H12.5603L10.5603 7.57842H17.7353V14.7534ZM5.73531 19.5784V21.5784C5.18531 21.5784 4.71448 21.3826 4.32281 20.9909C3.93115 20.5993 3.73531 20.1284 3.73531 19.5784H5.73531ZM3.73531 17.5784V15.5784H5.73531V17.5784H3.73531ZM3.73531 13.5784V11.5784H5.73531V13.5784H3.73531ZM3.73531 9.57842V7.57842H5.73531V9.57842H3.73531ZM7.73531 21.5784V19.5784H9.73531V21.5784H7.73531ZM7.73531 5.57842V3.57842H9.73531V5.57842H7.73531ZM11.7353 21.5784V19.5784H13.7353V21.5784H11.7353ZM11.7353 5.57842V3.57842H13.7353V5.57842H11.7353ZM15.7353 21.5784V19.5784H17.7353V21.5784H15.7353ZM15.7353 5.57842V3.57842H17.7353V5.57842H15.7353ZM19.7353 17.5784V15.5784H21.7353V17.5784H19.7353ZM19.7353 13.5784V11.5784H21.7353V13.5784H19.7353ZM19.7353 9.57842V7.57842H21.7353V9.57842H19.7353ZM19.7353 5.57842V3.57842C20.2853 3.57842 20.7561 3.77425 21.1478 4.16592C21.5395 4.55758 21.7353 5.02842 21.7353 5.57842H19.7353Z"/>
</svg>
