<svg viewBox="0 0 24 24" xmlns="http://www.w3.org/2000/svg">
<path d="M4.83165 21.0602C4.26839 21.0602 3.78621 20.8596 3.38511 20.4585C2.984 20.0574 2.78345 19.5752 2.78345 19.012V6.72276C2.78345 6.15951 2.984 5.67733 3.38511 5.27622C3.78621 4.87511 4.26839 4.67456 4.83165 4.67456H21.2173C21.7805 4.67456 22.2627 4.87511 22.6638 5.27622C23.0649 5.67733 23.2655 6.15951 23.2655 6.72276V19.012C23.2655 19.5752 23.0649 20.0574 22.6638 20.4585C22.2627 20.8596 21.7805 21.0602 21.2173 21.0602H4.83165ZM4.83165 19.012H15.5847V15.4276H4.83165V19.012ZM17.6329 19.012H21.2173V9.79507H17.6329V19.012ZM4.83165 13.3794H15.5847V9.79507H4.83165V13.3794Z"/>
</svg>
