<svg viewBox="0 0 24 24" xmlns="http://www.w3.org/2000/svg">
<path d="M3 20C2.71667 20 2.47917 19.9042 2.2875 19.7125C2.09583 19.5208 2 19.2833 2 19C2 18.8333 2.03333 18.6792 2.1 18.5375C2.16667 18.3958 2.26667 18.2833 2.4 18.2L11 11.75V10C11 9.71667 11.1 9.47917 11.3 9.2875C11.5 9.09583 11.7417 9 12.025 9C12.4417 9 12.7917 8.85 13.075 8.55C13.3583 8.25 13.5 7.89167 13.5 7.475C13.5 7.05833 13.3542 6.70833 13.0625 6.425C12.7708 6.14167 12.4167 6 12 6C11.5833 6 11.2292 6.14583 10.9375 6.4375C10.6458 6.72917 10.5 7.08333 10.5 7.5H8.5C8.5 6.53333 8.84167 5.70833 9.525 5.025C10.2083 4.34167 11.0333 4 12 4C12.9667 4 13.7917 4.3375 14.475 5.0125C15.1583 5.6875 15.5 6.50833 15.5 7.475C15.5 8.25833 15.2708 8.95833 14.8125 9.575C14.3542 10.1917 13.75 10.6167 13 10.85V11.75L21.6 18.2C21.7333 18.2833 21.8333 18.3958 21.9 18.5375C21.9667 18.6792 22 18.8333 22 19C22 19.2833 21.9042 19.5208 21.7125 19.7125C21.5208 19.9042 21.2833 20 21 20H3ZM6 18H18L12 13.5L6 18Z"/>
</svg>
