<svg viewBox="0 0 24 24" xmlns="http://www.w3.org/2000/svg">
<path d="M13.0245 23.1087C11.6249 23.1087 10.3021 22.8399 9.05607 22.3023C7.81008 21.7646 6.72197 21.0307 5.79174 20.1004C4.86152 19.1702 4.12758 18.0821 3.58993 16.8361C3.05227 15.5901 2.78345 14.2673 2.78345 12.8677C2.78345 11.451 3.06081 10.1197 3.61553 8.87373C4.17025 7.62774 4.92126 6.5439 5.86855 5.62221C6.81585 4.70051 7.92102 3.97084 9.18408 3.43319C10.4471 2.89554 11.7955 2.62671 13.2293 2.62671C14.5947 2.62671 15.8834 2.8614 17.0953 3.33078C18.3071 3.80016 19.3696 4.44876 20.2828 5.27657C21.1959 6.10439 21.9213 7.08582 22.459 8.22086C22.9966 9.35591 23.2655 10.5806 23.2655 11.8948C23.2655 13.8577 22.6681 15.364 21.4733 16.4137C20.2785 17.4634 18.8277 17.9882 17.1209 17.9882H15.2263C15.0727 17.9882 14.966 18.0309 14.9062 18.1162C14.8465 18.2016 14.8166 18.2955 14.8166 18.3979C14.8166 18.6027 14.9446 18.8971 15.2007 19.2812C15.4567 19.6652 15.5847 20.1047 15.5847 20.5997C15.5847 21.4531 15.35 22.0846 14.8806 22.4943C14.4113 22.9039 13.7925 23.1087 13.0245 23.1087ZM7.3919 13.8918C7.83568 13.8918 8.20265 13.7467 8.49281 13.4566C8.78297 13.1664 8.92805 12.7994 8.92805 12.3557C8.92805 11.9119 8.78297 11.5449 8.49281 11.2548C8.20265 10.9646 7.83568 10.8195 7.3919 10.8195C6.94813 10.8195 6.58116 10.9646 6.29099 11.2548C6.00083 11.5449 5.85575 11.9119 5.85575 12.3557C5.85575 12.7994 6.00083 13.1664 6.29099 13.4566C6.58116 13.7467 6.94813 13.8918 7.3919 13.8918ZM10.4642 9.79542C10.908 9.79542 11.275 9.65034 11.5651 9.36017C11.8553 9.07001 12.0004 8.70304 12.0004 8.25927C12.0004 7.81549 11.8553 7.44852 11.5651 7.15836C11.275 6.8682 10.908 6.72311 10.4642 6.72311C10.0204 6.72311 9.65346 6.8682 9.3633 7.15836C9.07314 7.44852 8.92805 7.81549 8.92805 8.25927C8.92805 8.70304 9.07314 9.07001 9.3633 9.36017C9.65346 9.65034 10.0204 9.79542 10.4642 9.79542ZM15.5847 9.79542C16.0285 9.79542 16.3955 9.65034 16.6856 9.36017C16.9758 9.07001 17.1209 8.70304 17.1209 8.25927C17.1209 7.81549 16.9758 7.44852 16.6856 7.15836C16.3955 6.8682 16.0285 6.72311 15.5847 6.72311C15.1409 6.72311 14.774 6.8682 14.4838 7.15836C14.1936 7.44852 14.0486 7.81549 14.0486 8.25927C14.0486 8.70304 14.1936 9.07001 14.4838 9.36017C14.774 9.65034 15.1409 9.79542 15.5847 9.79542ZM18.657 13.8918C19.1008 13.8918 19.4678 13.7467 19.7579 13.4566C20.0481 13.1664 20.1932 12.7994 20.1932 12.3557C20.1932 11.9119 20.0481 11.5449 19.7579 11.2548C19.4678 10.9646 19.1008 10.8195 18.657 10.8195C18.2132 10.8195 17.8463 10.9646 17.5561 11.2548C17.2659 11.5449 17.1209 11.9119 17.1209 12.3557C17.1209 12.7994 17.2659 13.1664 17.5561 13.4566C17.8463 13.7467 18.2132 13.8918 18.657 13.8918ZM13.0245 21.0605C13.1781 21.0605 13.3018 21.0179 13.3957 20.9325C13.4896 20.8472 13.5365 20.7362 13.5365 20.5997C13.5365 20.3607 13.4085 20.0791 13.1525 19.7548C12.8964 19.4305 12.7684 18.9441 12.7684 18.2955C12.7684 17.5786 13.0159 17.0068 13.5109 16.5801C14.0059 16.1534 14.6118 15.94 15.3287 15.94H17.1209C18.2474 15.94 19.2117 15.6115 20.014 14.9543C20.8162 14.2972 21.2173 13.2774 21.2173 11.8948C21.2173 9.82955 20.4279 8.10992 18.849 6.73592C17.2702 5.36191 15.397 4.67491 13.2293 4.67491C10.908 4.67491 8.92805 5.46859 7.28949 7.05595C5.65093 8.6433 4.83165 10.5806 4.83165 12.8677C4.83165 15.1378 5.6296 17.0708 7.22549 18.6667C8.82138 20.2626 10.7544 21.0605 13.0245 21.0605Z"/>
</svg>
