<svg viewBox="0 0 24 24" xmlns="http://www.w3.org/2000/svg">
<path d="M12.1898 18.3856C12.5482 18.3856 12.8512 18.2619 13.0987 18.0144C13.3462 17.7669 13.4699 17.4639 13.4699 17.1055C13.4699 16.7471 13.3462 16.4441 13.0987 16.1966C12.8512 15.9491 12.5482 15.8254 12.1898 15.8254C11.8314 15.8254 11.5284 15.9491 11.2809 16.1966C11.0334 16.4441 10.9097 16.7471 10.9097 17.1055C10.9097 17.4639 11.0334 17.7669 11.2809 18.0144C11.5284 18.2619 11.8314 18.3856 12.1898 18.3856ZM11.2681 14.4428H13.1627C13.1627 13.8796 13.2267 13.4358 13.3547 13.1115C13.4827 12.7872 13.8454 12.3434 14.4428 11.7802C14.8866 11.3364 15.2365 10.9139 15.4925 10.5128C15.7486 10.1117 15.8766 9.62955 15.8766 9.0663C15.8766 8.11047 15.5267 7.37653 14.8269 6.86448C14.1271 6.35243 13.2993 6.0964 12.3434 6.0964C11.3705 6.0964 10.5811 6.35243 9.97519 6.86448C9.36926 7.37653 8.94682 7.99099 8.70786 8.70786L10.3976 9.37353C10.483 9.0663 10.675 8.73347 10.9737 8.37503C11.2724 8.01659 11.729 7.83738 12.3434 7.83738C12.8896 7.83738 13.2993 7.98673 13.5723 8.28542C13.8454 8.58412 13.982 8.91268 13.982 9.27112C13.982 9.61249 13.8796 9.93252 13.6748 10.2312C13.4699 10.5299 13.2139 10.8073 12.9067 11.0633C12.1557 11.729 11.6948 12.2325 11.5241 12.5738C11.3535 12.9152 11.2681 13.5382 11.2681 14.4428ZM12.241 22.482C10.8243 22.482 9.49301 22.2132 8.24702 21.6755C7.00103 21.1379 5.91719 20.4082 4.9955 19.4865C4.0738 18.5648 3.34413 17.481 2.80648 16.235C2.26883 14.989 2 13.6577 2 12.241C2 10.8243 2.26883 9.49301 2.80648 8.24702C3.34413 7.00103 4.0738 5.91719 4.9955 4.9955C5.91719 4.0738 7.00103 3.34413 8.24702 2.80648C9.49301 2.26883 10.8243 2 12.241 2C13.6577 2 14.989 2.26883 16.235 2.80648C17.481 3.34413 18.5648 4.0738 19.4865 4.9955C20.4082 5.91719 21.1379 7.00103 21.6755 8.24702C22.2132 9.49301 22.482 10.8243 22.482 12.241C22.482 13.6577 22.2132 14.989 21.6755 16.235C21.1379 17.481 20.4082 18.5648 19.4865 19.4865C18.5648 20.4082 17.481 21.1379 16.235 21.6755C14.989 22.2132 13.6577 22.482 12.241 22.482ZM12.241 20.4338C14.5282 20.4338 16.4654 19.6401 18.0528 18.0528C19.6401 16.4654 20.4338 14.5282 20.4338 12.241C20.4338 9.95385 19.6401 8.01659 18.0528 6.42924C16.4654 4.84188 14.5282 4.0482 12.241 4.0482C9.95385 4.0482 8.01659 4.84188 6.42924 6.42924C4.84188 8.01659 4.0482 9.95385 4.0482 12.241C4.0482 14.5282 4.84188 16.4654 6.42924 18.0528C8.01659 19.6401 9.95385 20.4338 12.241 20.4338Z"/>
</svg>