<svg viewBox="0 0 24 24" xmlns="http://www.w3.org/2000/svg">
<path d="M12 16C10.9 16 9.95833 15.6083 9.175 14.825C8.39167 14.0417 8 13.1 8 12C8 10.9 8.39167 9.95833 9.175 9.175C9.95833 8.39167 10.9 8 12 8C13.1 8 14.0417 8.39167 14.825 9.175C15.6083 9.95833 16 10.9 16 12C16 13.1 15.6083 14.0417 14.825 14.825C14.0417 15.6083 13.1 16 12 16ZM12 14C12.55 14 13.0208 13.8042 13.4125 13.4125C13.8042 13.0208 14 12.55 14 12C14 11.45 13.8042 10.9792 13.4125 10.5875C13.0208 10.1958 12.55 10 12 10C11.45 10 10.9792 10.1958 10.5875 10.5875C10.1958 10.9792 10 11.45 10 12C10 12.55 10.1958 13.0208 10.5875 13.4125C10.9792 13.8042 11.45 14 12 14ZM5 21C4.45 21 3.97917 20.8042 3.5875 20.4125C3.19583 20.0208 3 19.55 3 19V15H5V19H9V21H5ZM15 21V19H19V15H21V19C21 19.55 20.8042 20.0208 20.4125 20.4125C20.0208 20.8042 19.55 21 19 21H15ZM3 9V5C3 4.45 3.19583 3.97917 3.5875 3.5875C3.97917 3.19583 4.45 3 5 3H9V5H5V9H3ZM19 9V5H15V3H19C19.55 3 20.0208 3.19583 20.4125 3.5875C20.8042 3.97917 21 4.45 21 5V9H19Z"/>
</svg>
