<svg viewBox="0 0 18 18" xmlns="http://www.w3.org/2000/svg">
<path d="M8.75 10.25C8.3375 10.25 7.98438 10.1031 7.69063 9.80938C7.39688 9.51563 7.25 9.1625 7.25 8.75C7.25 8.3375 7.39688 7.98438 7.69063 7.69063C7.98438 7.39688 8.3375 7.25 8.75 7.25C9.1625 7.25 9.51563 7.39688 9.80938 7.69063C10.1031 7.98438 10.25 8.3375 10.25 8.75C10.25 9.1625 10.1031 9.51563 9.80938 9.80938C9.51563 10.1031 9.1625 10.25 8.75 10.25ZM8.75 15.5C7.0125 15.5 5.50625 14.9281 4.23125 13.7844C2.95625 12.6406 2.225 11.2125 2.0375 9.5H3.575C3.75 10.8 4.32812 11.875 5.30938 12.725C6.29063 13.575 7.4375 14 8.75 14C10.2125 14 11.4531 13.4906 12.4719 12.4719C13.4906 11.4531 14 10.2125 14 8.75C14 7.2875 13.4906 6.04688 12.4719 5.02813C11.4531 4.00938 10.2125 3.5 8.75 3.5C7.8875 3.5 7.08125 3.7 6.33125 4.1C5.58125 4.5 4.95 5.05 4.4375 5.75H6.5V7.25H2V2.75H3.5V4.5125C4.1375 3.7125 4.91563 3.09375 5.83438 2.65625C6.75313 2.21875 7.725 2 8.75 2C9.6875 2 10.5656 2.17813 11.3844 2.53438C12.2031 2.89063 12.9156 3.37188 13.5219 3.97813C14.1281 4.58438 14.6094 5.29688 14.9656 6.11563C15.3219 6.93438 15.5 7.8125 15.5 8.75C15.5 9.6875 15.3219 10.5656 14.9656 11.3844C14.6094 12.2031 14.1281 12.9156 13.5219 13.5219C12.9156 14.1281 12.2031 14.6094 11.3844 14.9656C10.5656 15.3219 9.6875 15.5 8.75 15.5Z" />
</svg>
