<svg viewBox="0 0 24 24" xmlns="http://www.w3.org/2000/svg">
<path d="M22.6996 19.0004C22.6996 18.8004 22.6996 18.6004 22.6996 18.4004L23.8996 17.4004L22.8996 15.6004L21.3996 16.1004C21.1996 16.0004 21.0996 15.8004 20.8996 15.7004C20.6996 15.6004 20.4996 15.5004 20.2996 15.4004L19.9996 13.9004H17.9996L17.6996 15.4004C17.4996 15.4004 17.2996 15.6004 17.0996 15.7004C16.8996 15.8004 16.6996 15.9004 16.5996 16.0004L15.0996 15.5004L14.0996 17.2004L15.2996 18.2004C15.2996 18.4004 15.2996 18.6004 15.2996 18.9004C15.2996 19.2004 15.2996 19.3004 15.2996 19.5004L14.0996 20.5004L15.0996 22.2004L16.5996 21.7004C16.7996 21.8004 16.9996 21.9004 17.0996 22.0004C17.1996 22.1004 17.4996 22.2004 17.6996 22.3004L17.9996 23.8004H19.9996L20.2996 22.3004C20.4996 22.3004 20.6996 22.1004 20.8996 22.0004C21.0996 22.0004 21.2996 21.8004 21.3996 21.7004L22.8996 22.2004L23.8996 20.5004L22.6996 19.5004C22.6996 19.3004 22.6996 19.1004 22.6996 18.9004V19.0004ZM20.3996 20.4004C19.9996 20.8004 19.4996 21.0004 18.9996 21.0004C18.4996 21.0004 17.9996 20.8004 17.5996 20.4004C17.1996 20.0004 16.9996 19.5004 16.9996 19.0004C16.9996 18.5004 17.1996 18.0004 17.5996 17.6004C17.9996 17.2004 18.4996 17.0004 18.9996 17.0004C19.4996 17.0004 19.9996 17.2004 20.3996 17.6004C20.7996 18.0004 20.9996 18.5004 20.9996 19.0004C20.9996 19.5004 20.7996 20.0004 20.3996 20.4004Z"/>
<path d="M13.3008 19H5.00078V12C5.00078 12 5.00078 12 5.10078 12H5.20078C5.60078 12 6.00078 12 6.40078 11.8C6.80078 11.6 7.10078 11.4 7.40078 11.1C7.70078 11.4 8.00078 11.6 8.40078 11.8C8.80078 12 9.20078 12 9.70078 12C10.2008 12 10.5008 12 10.9008 11.8C11.3008 11.6 11.6008 11.4 11.9008 11.1C12.2008 11.4 12.5008 11.6 12.9008 11.8C13.3008 12 13.7008 12 14.2008 12C14.7008 12 15.0008 12 15.4008 11.8C15.8008 11.6 16.1008 11.4 16.4008 11.1C16.7008 11.4 17.1008 11.7 17.4008 11.8C17.7008 12 18.1008 12 18.6008 12C18.6008 12 18.6008 12 18.8008 12V13.3C19.5008 13.3 20.2008 13.4 20.8008 13.7V11.1C21.2008 10.7 21.5008 10.3 21.7008 9.7C21.9008 9.2 21.9008 8.6 21.7008 7.9L20.7008 4.5C20.5008 4 20.3008 3.7 20.0008 3.4C19.7008 3.1 19.3008 3 18.8008 3H5.10078C4.60078 3 4.30078 3.1 3.90078 3.4C3.50078 3.7 3.30078 4 3.20078 4.5L2.20078 7.9C2.00078 8.6 2.00078 9.1 2.20078 9.7C2.40078 10.2 2.70078 10.7 3.10078 11V19C3.10078 19.5 3.30078 20 3.70078 20.4C4.10078 20.8 4.60078 21 5.10078 21H13.7008C13.5008 20.4 13.3008 19.7 13.3008 19ZM18.9008 5L19.9008 8.3C20.0008 8.6 19.9008 9 19.8008 9.4C19.6008 9.8 19.2008 10 18.8008 10C18.4008 10 18.2008 9.9 18.0008 9.7C17.8008 9.5 17.6008 9.2 17.6008 8.9L17.1008 5.1H19.0008L18.9008 5ZM13.0008 5H14.9008L15.5008 8.5C15.5008 8.9 15.5008 9.2 15.2008 9.5C15.0008 9.8 14.6008 10 14.2008 10C13.8008 10 13.6008 9.9 13.4008 9.6C13.2008 9.3 13.1008 9 13.1008 8.7V5H13.0008ZM8.50078 8.5L9.00078 5H11.0008V8.7C11.0008 9 10.9008 9.4 10.6008 9.6C10.4008 9.9 10.0008 10 9.70078 10C9.40078 10 9.00078 9.8 8.80078 9.5C8.60078 9.2 8.50078 8.8 8.50078 8.5ZM4.20078 9.4C4.00078 9 3.90078 8.7 4.00078 8.3L5.00078 5H7.00078L6.40078 8.8C6.40078 9.1 6.20078 9.4 6.00078 9.6C5.80078 9.8 5.50078 9.9 5.20078 9.9C4.70078 9.9 4.40078 9.7 4.20078 9.3V9.4Z"/>
</svg>
