<svg viewBox="0 0 24 24" xmlns="http://www.w3.org/2000/svg">
<path d="M2.4 22.8C1.74 22.8 1.175 22.565 0.705 22.095C0.235 21.625 0 21.06 0 20.4V3.59995C0 2.93995 0.235 2.37495 0.705 1.90495C1.175 1.43495 1.74 1.19995 2.4 1.19995H21.6C22.26 1.19995 22.825 1.43495 23.295 1.90495C23.765 2.37495 24 2.93995 24 3.59995V20.4C24 21.06 23.765 21.625 23.295 22.095C22.825 22.565 22.26 22.8 21.6 22.8H2.4ZM2.4 20.4H21.6V3.59995H2.4V20.4ZM4.8 18H19.2V15.6H4.8V18ZM4.8 13.2H9.6V5.99995H4.8V13.2ZM12 13.2H19.2V10.8H12V13.2ZM12 8.39995H19.2V5.99995H12V8.39995Z"/>
</svg>
