<svg xmlns="http://www.w3.org/2000/svg" viewBox="0 0 18 18">
<path d="M3 3L4.5 6H6.75L5.25 3H6.75L8.25 6H10.5L9 3H10.5L12 6H14.25L12.75 3H15C15.4125 3 15.7656 3.14687 16.0594 3.44063C16.3531 3.73438 16.5 4.0875 16.5 4.5V13.5C16.5 13.9125 16.3531 14.2656 16.0594 14.5594C15.7656 14.8531 15.4125 15 15 15H3C2.5875 15 2.23438 14.8531 1.94063 14.5594C1.64687 14.2656 1.5 13.9125 1.5 13.5V4.5C1.5 4.0875 1.64687 3.73438 1.94063 3.44063C2.23438 3.14687 2.5875 3 3 3ZM3 7.5V13.5H15V7.5H3Z" fill="currentColor"/>
</svg>