<svg viewBox="0 0 24 24" xmlns="http://www.w3.org/2000/svg">
    <path d="M21.6647 14.5249L14.5147 21.6749C14.3147 21.8749 14.0897 22.0249 13.8397 22.1249C13.5897 22.2249 13.3397 22.2749 13.0897 22.2749C12.8397 22.2749 12.5897 22.2249 12.3397 22.1249C12.0897 22.0249 11.8647 21.8749 11.6647 21.6749L2.83971 12.8499C2.65638 12.6666 2.51471 12.4541 2.41471 12.2124C2.31471 11.9707 2.26471 11.7166 2.26471 11.4499V4.2749C2.26471 3.7249 2.46054 3.25407 2.85221 2.8624C3.24388 2.47074 3.71471 2.2749 4.26471 2.2749H11.4397C11.7064 2.2749 11.9647 2.32907 12.2147 2.4374C12.4647 2.54574 12.6814 2.69157 12.8647 2.8749L21.6647 11.6999C21.8647 11.8999 22.0105 12.1249 22.1022 12.3749C22.1939 12.6249 22.2397 12.8749 22.2397 13.1249C22.2397 13.3749 22.1939 13.6207 22.1022 13.8624C22.0105 14.1041 21.8647 14.3249 21.6647 14.5249ZM13.0897 20.2749L20.2397 13.1249L11.4147 4.2749H4.26471V11.4249L13.0897 20.2749ZM6.76471 8.2749C7.18138 8.2749 7.53554 8.12907 7.82721 7.8374C8.11888 7.54574 8.26471 7.19157 8.26471 6.7749C8.26471 6.35824 8.11888 6.00407 7.82721 5.7124C7.53554 5.42074 7.18138 5.2749 6.76471 5.2749C6.34804 5.2749 5.99388 5.42074 5.70221 5.7124C5.41054 6.00407 5.26471 6.35824 5.26471 6.7749C5.26471 7.19157 5.41054 7.54574 5.70221 7.8374C5.99388 8.12907 6.34804 8.2749 6.76471 8.2749Z"/>
</svg>
