<svg viewBox="0 0 25 24" fill="none" xmlns="http://www.w3.org/2000/svg">
<g id="Group 10">
<g id="no-code-email-builder">
<path d="M4.32227 11.6855L9.84013 9.12207V10.3405L5.66726 12.1682V12.1912L9.84013 14.0189V15.2374L4.32227 12.6739V11.6855Z"/>
<path d="M10.6912 15.6977L13.1513 7.36328H14.3125L11.8524 15.6977H10.6912Z"/>
<path d="M20.4969 12.7087L14.979 15.2378V14.0194L19.2439 12.1917V12.1687L14.979 10.341V9.12256L20.4969 11.6515V12.7087Z"/>
<path d="M12.5 24C5.88316 24 0.5 18.6168 0.5 12C0.5 5.38316 5.88316 0 12.5 0C19.1168 0 24.5 5.38316 24.5 12C24.5 18.6168 19.1168 24 12.5 24ZM12.5 2.01193C6.99259 2.01193 2.51193 6.49259 2.51193 12C2.51193 17.5074 6.99259 21.9881 12.5 21.9881C18.0074 21.9881 22.4881 17.5074 22.4881 12C22.4881 6.49259 18.0074 2.01193 12.5 2.01193Z"/>
<path d="M20.3617 20.8421C20.1043 20.8421 19.8467 20.7437 19.6505 20.5473L4.11366 5.01065C3.7209 4.61789 3.7209 3.98095 4.11366 3.58819C4.50641 3.19521 5.14336 3.19521 5.53611 3.58819L21.0727 19.1248C21.4655 19.5175 21.4655 20.1545 21.0727 20.5473C20.8764 20.7437 20.6191 20.8421 20.3617 20.8421Z"/>
</g>
</g>
</svg>
