<?xml version="1.0" encoding="UTF-8"?><svg id="uuid-618df99d-0afd-4a9f-ad39-275304db3746" xmlns="http://www.w3.org/2000/svg" width="64" height="64" viewBox="0 0 64 64"><path d="M54.122,56.447H9.878c-.276,0-.5-.224-.5-.5v-29.015c0-.276.224-.5.5-.5h44.244c.276,0,.5.224.5.5v29.015c0,.276-.224.5-.5.5ZM10.378,55.447h43.244v-28.015H10.378v28.015Z" fill="#727171"/><path d="M32.082,42.962c-.101,0-.2-.03-.286-.09l-22.204-15.529c-.226-.158-.281-.471-.123-.696.159-.228.47-.281.696-.124l21.916,15.328,21.753-15.327c.226-.158.538-.104.697.121.158.226.104.538-.121.697l-22.04,15.529c-.087.061-.188.091-.288.091Z" fill="#727171"/></svg>