<svg viewBox="0 0 18 18" xmlns="http://www.w3.org/2000/svg">
<path d="M5.36364 17C4.98864 17 4.66761 16.8665 4.40057 16.5994C4.13352 16.3324 4 16.0114 4 15.6364V3.36364C4 2.98864 4.13352 2.66761 4.40057 2.40057C4.66761 2.13352 4.98864 2 5.36364 2H12.1818C12.5568 2 12.8778 2.13352 13.1449 2.40057C13.4119 2.66761 13.5455 2.98864 13.5455 3.36364V15.6364C13.5455 16.0114 13.4119 16.3324 13.1449 16.5994C12.8778 16.8665 12.5568 17 12.1818 17H5.36364ZM5.36364 14.9545V15.6364H12.1818V14.9545H5.36364ZM5.36364 13.5909H12.1818V5.40909H5.36364V13.5909ZM5.36364 4.04545H12.1818V3.36364H5.36364V4.04545Z"/>
</svg>
