<svg id="uuid-a30b8bc7-94e0-4e85-8ec6-3d600addabcd" xmlns="http://www.w3.org/2000/svg" viewBox="0 0 72 72">
  <path d="M47.216,60.496h-23.672l-11.836-11.208-8.1-13.712h6.852l4.984,6.86,6.232,3.736,2.488-2.496h9.968l4.364-3.116h10.588l9.968,8.1,2.488-2.488,6.852,6.852-16.192,17.44-7.48-7.472,2.496-2.496ZM34.752,36.237c9.582,0,17.35-7.768,17.35-17.35S44.334,1.536,34.752,1.536s-17.35,7.768-17.35,17.351,7.768,17.35,17.35,17.35Z" class="sgmaincolor"/>
  <path d="M68.922,52.494l-6.852-6.853c-.281-.281-.779-.281-1.061,0l-2.01,2.01-9.443-7.673c-.134-.108-.301-.168-.473-.168h-10.588c-.156,0-.309.049-.436.14l-4.169,2.976h-9.728c-.199,0-.391.079-.531.221l-2.074,2.081-5.598-3.355-4.894-6.737c-.141-.194-.367-.309-.607-.309H3.608c-.27,0-.518.145-.651.378s-.131.521.006.753l8.1,13.712c.035.06.079.114.13.163l11.836,11.208c.139.132.324.205.516.205h21.861l-1.216,1.216c-.141.141-.22.331-.22.53s.079.39.22.53l7.48,7.472c.141.141.332.22.53.22h.014c.204-.004.397-.091.536-.239l16.191-17.439c.274-.296.266-.756-.02-1.041ZM23.843,59.746l-11.542-10.93-7.378-12.49h5.156l4.759,6.551c.06.082.135.151.221.203l6.086,3.648,2.395,3.596c.139.209.373.334.624.334h14.333c.414,0,.75-.336.75-.75s-.336-.75-.75-.75h-13.931l-1.925-2.891,1.836-1.841h9.656c.156,0,.309-.049.436-.14l4.169-2.976h10.081l9.117,7.408-11.028,11.028h-23.063ZM52.18,69.384l-6.399-6.392,1.964-1.964s.002-.001.003-.002l11.836-11.836s.001-.002.002-.003l1.955-1.955,5.811,5.812-15.171,16.34ZM7.842,28.103V10.035c0-.414.336-.75.75-.75s.75.336.75.75v18.068c0,.414-.336.75-.75.75s-.75-.336-.75-.75ZM2.858,32.468v-13.704c0-.414.336-.75.75-.75s.75.336.75.75v13.704c0,.414-.336.75-.75.75s-.75-.336-.75-.75ZM34.752,36.987c9.98,0,18.1-8.12,18.1-18.1S44.732.786,34.752.786s-18.1,8.12-18.1,18.101,8.12,18.1,18.1,18.1ZM34.752,2.286c9.153,0,16.6,7.447,16.6,16.601s-7.446,16.6-16.6,16.6-16.6-7.447-16.6-16.6S25.599,2.286,34.752,2.286ZM34.515,23.243c-.458,0-.816-.326-.816-.743,0-.414-.336-.75-.75-.75h-4.894c-.414,0-.75.336-.75.75,0,2.816,1.754,5.298,4.42,6.335v1.128c0,.414.336.75.75.75h4.364c.414,0,.75-.336.75-.75v-1.6c2.529-1.084,4.136-3.379,4.136-5.978,0-1.559-.547-3.005-1.576-4.176-1.378-1.604-3.515-2.54-5.711-2.52-.267-.017-.524-.131-.635-.333-.155-.286-.089-.512-.006-.651.142-.238.42-.387.726-.387.448,0,.841.328.841.702,0,.414.336.75.75.75h4.862c.414,0,.75-.336.75-.75,0-2.556-1.641-4.897-4.136-5.977v-1.495c0-.414-.336-.75-.75-.75h-4.364c-.414,0-.75.336-.75.75v1.221c-2.647,1.032-4.389,3.484-4.389,6.259,0,1.751.696,3.407,1.96,4.663,1.377,1.367,3.266,2.129,5.279,2.099.306.018.556.139.677.362.136.246.142.476.019.684-.145.246-.442.405-.757.405ZM36.569,21.435c-.378-.698-1.152-1.144-1.972-1.144-.028,0-.055,0-.082,0-1.604,0-3.08-.59-4.161-1.663-.979-.973-1.518-2.25-1.518-3.599,0-2.292,1.55-4.306,3.857-5.009.315-.096.531-.387.531-.717v-1.004h2.864v1.257c0,.319.202.603.503.708,1.909.667,3.268,2.224,3.569,4.007h-3.438c-.327-.846-1.19-1.452-2.202-1.452-.832,0-1.604.429-2.015,1.12-.393.659-.401,1.437-.022,2.134.371.682,1.13,1.118,1.939,1.118h.033c1.757-.045,3.46.727,4.559,2.004.79.899,1.208,2.003,1.208,3.192,0,2.12-1.426,3.987-3.633,4.757-.301.105-.503.389-.503.708v1.363h-2.864v-.922c0-.312-.194-.592-.486-.702-.051-.019-.103-.032-.155-.04-2.015-.655-3.435-2.322-3.724-4.3h3.473c.319.869,1.177,1.493,2.183,1.493.848,0,1.633-.438,2.049-1.143.394-.668.395-1.459.005-2.166Z"/>
</svg>
