<svg id="uuid-a0ab86ce-39ec-4dce-92b5-96189e92506a" xmlns="http://www.w3.org/2000/svg" viewBox="0 0 72 72">
  <path d="M57.152,48.122v-24.164l-21.152-11.678-21.152,11.678v24.164l21.152,12.559,21.152-12.559Z" class="sgmaincolor"/>
  <path d="M36,72.008c-.128,0-.257-.033-.372-.099L4.78,54.282c-.234-.134-.378-.382-.378-.651V18.377c0-.269.144-.518.378-.651L35.628.099c.23-.132.514-.132.744,0l30.848,17.627c.233.134.378.382.378.651v35.254c0,.27-.145.518-.378.651l-30.848,17.627c-.115.065-.244.099-.372.099ZM5.902,53.196l30.098,17.198,30.098-17.198V18.812L36,1.614,5.902,18.812v34.383ZM66.848,53.631h.01-.01ZM36,61.431c-.132,0-.265-.035-.383-.105l-21.152-12.559c-.228-.135-.367-.38-.367-.645v-24.164c0-.273.148-.524.388-.657l21.152-11.678c.226-.124.499-.124.725,0l21.152,11.678c.239.132.388.384.388.657v24.164c0,.265-.14.51-.367.645l-21.152,12.559c-.118.07-.25.105-.383.105ZM15.598,47.696l20.402,12.113,20.402-12.113v-23.294l-20.402-11.264-20.402,11.264v23.294ZM57.152,48.122h.01-.01ZM43.545,43.62l-7.051,6.169c-.036.032-.079.047-.119.071-.009.005-.017.013-.027.018-.017.009-.031.025-.049.033-.008.003-.016.005-.023.008-.089.035-.181.056-.275.056,0,0,0,0,0,0s0,0,0,0c0,0,0,0,0,0s0,0,0,0c-.094,0-.186-.021-.275-.056-.007-.003-.015-.004-.022-.007-.02-.009-.036-.027-.055-.037-.006-.003-.011-.008-.017-.012-.042-.024-.086-.041-.124-.073l-7.05-6.169c-.312-.272-.344-.747-.071-1.059.273-.311.747-.343,1.058-.07l5.807,5.081v-23.908c0-.414.336-.75.75-.75s.75.336.75.75v23.907l5.807-5.081c.312-.271.785-.241,1.059.07.272.312.241.786-.07,1.059Z"/>
</svg>
