<?xml version="1.0" encoding="UTF-8"?>
<svg id="Layer_1" data-name="Layer 1" xmlns="http://www.w3.org/2000/svg" version="1.1" viewBox="0 0 96 96">
	<g opacity="0"><rect width="96" height="96" fill="#fff" stroke-width="0" /></g>
  	<path d="M55.6,53.6c5.523,0,10,4.477,10,10s-4.477,10-10,10-10-4.477-10-10,4.477-10,10-10Z" fill="#231f20" stroke-width="0" class="sgmaincolor"/>
  	<path d="M91.7,30.4H19.5c-.6,0-1,.4-1,1v51.3c0,.6.4,1,1,1h72.2c.6,0,1-.4,1-1V31.4c0-.6-.4-1-1-1ZM90.7,32.4v11.3H20.5v-11.3h70.2ZM20.5,81.8v-36h70.2v36H20.5ZM74.7,23.8c0-.6-.4-1-1-1H11.9c-.6,0-1,.4-1,1v44.1c0,.6.4,1,1,1s1-.4,1-1V24.8h60.8c.6,0,1-.4,1-1h0ZM67.1,16.2c0-.6-.4-1-1-1H4.3c-.6,0-1,.4-1,1v44.1c0,.6.4,1,1,1s1-.4,1-1V17.2h60.8c.6,0,1-.4,1-1ZM28,40c1,0,1.9-.9,1.9-1.9s-.9-1.9-1.9-1.9-1.9.9-1.9,1.9.9,1.9,1.9,1.9ZM33.7,40c1,0,1.9-.9,1.9-1.9s-.9-1.9-1.9-1.9-1.9.9-1.9,1.9.9,1.9,1.9,1.9ZM39.4,40c1,0,1.9-.9,1.9-1.9s-.9-1.9-1.9-1.9-1.9.9-1.9,1.9.9,1.9,1.9,1.9ZM77.3,15.4l2.9.5h.2c.5,0,.9-.4,1-.8,0-.5-.3-1.1-.8-1.1l-1-.2c.2-.2.5-.3.7-.4,2.6-1.3,5.7-.2,7,2.4,1.3,2.6.2,5.7-2.3,7-1.1.6-2.4.7-3.7.4-.5-.1-1.1.2-1.2.7s.2,1.1.7,1.2c.6.2,1.2.2,1.9.2,1.1,0,2.2-.3,3.2-.7,3.6-1.8,5-6.1,3.2-9.7s-6.1-5-9.7-3.3c-.2.1-.5.2-.7.4v-.5c0-.6-.3-1-.9-1.1-.6,0-1,.4-1.1.9l-.3,3.1c0,.5.3,1,.8,1.1h0l.1-.1ZM55.6,52.6c-6.1,0-11,5-11,11s4.9,11,11,11,11-4.9,11-11-5-11-11-11ZM55.6,72.6c-5,0-9-4.1-9-9s4.1-9,9-9,9,4.1,9,9-4.1,9-9,9ZM61.2,62.6h-4.6v-4.9c0-.6-.4-1-1-1s-1,.4-1,1v5.9c0,.6.4,1,1,1h5.6c.6,0,1-.4,1-1s-.4-1-1-1Z" fill="#231f20" stroke-width="0"/>
</svg>