<?xml version="1.0" encoding="UTF-8"?><svg id="uuid-7b2b0637-f78b-4090-8685-a2a2d792825c" xmlns="http://www.w3.org/2000/svg" viewBox="0 0 96 96"><polygon class="sgmaincolor" points="26.399 53.047 32.182 61.002 39.406 65.34 42.295 62.445 53.865 62.445 58.926 58.829 67.079 58.829 67.22 58.748 67.22 35.022 46.678 23.16 26.128 35.01 26.128 53.047 26.399 53.047" stroke-width="0"/><path d="m54.33,47.092c1.259,2.839.815,7.122-1.301,9.157-3.967,4.06-13.683,2.104-13.652-4.495h5.055c.235,2.23,3.624,2.938,4.903,1.271.465-.605.695-1.413.695-2.422,0-.989-.242-1.746-.727-2.271-1.197-1.331-4.304-.98-4.69,1.029h-4.995v-13.167h14.136v4.54h-9.444v4.177c2.886-2.799,8.638-1.586,10.019,2.18Zm40.04,26.878l-18.8,20.25c-.362.417-1.053.424-1.44.03,0,0-8.67-8.68-8.67-8.68-.39-.39-.39-1.02,0-1.41,0,0,1.18-1.19,1.18-1.19h-25.06c-.26,0-.5-.1-.69-.27l-13.74-13.02c-.06-.06-.12-.14-.17-.22l-9.4-15.9c-.08-.15-.13-.32-.13-.48h-.01l-4.42-2.56c-.31-.17-.5-.5-.5-.86v-20.17c0-.36.19-.69.5-.87l5.48-3.16v-7.01c0-.35.19-.68.5-.86l17.46-10.09c.31-.17.69-.17,1,0l8.49,4.9,8.49-4.9c.31-.17.69-.17,1,0l17.47,10.09c.31.18.5.51.5.86v6.9l5.66,3.27c.31.18.5.51.5.87v20.17c0,.36-.19.69-.5.86l-10.85,6.27v1.04h3c.23,0,.45.08.63.22l.01.01,10.86,8.82,2.25-2.25c.374-.396,1.046-.396,1.42,0,0,0,7.95,7.96,7.95,7.96.38.38.39.99.03,1.38Zm-31.95-16.14h3.8v-22.23c-5.448-3.142-14.193-8.201-19.54-11.29-5.71,3.291-13.77,7.952-19.55,11.28v16.79c.04.03.06.05.08.08.894,1.226,4.606,6.369,5.44,7.48l.22.31,6.38,3.83,2.34-2.34c.18-.19.44-.29.7-.29h11.25c.663-.473,4.123-2.941,4.7-3.36h.01c.341-.368,1.088-.24,1.53-.26,0,0,2.64,0,2.64,0Zm-1.32-37.27c-1.935,1.111-6.588,3.808-8.46,4.88,1.808,1.059,13.032,7.535,15.08,8.72.31.17.5.51.5.86,0,0,0,17.846,0,19.46l9.35-5.4v-19.02s-15.057-8.682-16.47-9.5Zm-13.15-7l6.98,4.03c.31.18.5.51.5.86v3.07l5.17-2.98c.31-.18.69-.18,1,0l9.81,5.66v-5.17l-16.47-9.51-6.99,4.04Zm-27.45,10.74l9.99-5.76c.3-.18.69-.18,1,0,3.039,1.752,7.569,4.377,10.59,6.11l4.1-2.36c.31-.18.69-.17,1,0l3.46,2,2.79-1.61v-3.65c-4.57-2.638-11.909-6.878-16.47-9.51l-16.46,9.51v5.27Zm-.84,27.75h5.47c.01-4.659-.007-12.442,0-17.04,0-.36.19-.69.5-.87,0,0,13.397-7.727,14.45-8.33-2.277-1.322-6.759-3.901-9.09-5.25-4,2.309-12.584,7.254-16.47,9.5v19.02l5.14,2.97Zm48.98,28.92l12.66-12.66-10.44-8.48h-11.61l-4.8,3.43c-.17.12-.38.19-.58.19h-11.16l-2.02,2.02c.078.116,2.14,3.21,2.14,3.21,4.805,0,11.264,0,16.11,0,1.307.016,1.32,1.975,0,2-2.701,0-11.598,0-14.14,0,0,0-2.5,0-2.5,0-.34,0-.65-.17-.83-.45l-2.76-4.14h-.01l-7.03-4.23c-.12-.07-.22-.16-.3-.27-1.755-2.418-3.722-5.118-5.48-7.54h-5.7l8.44,14.27,13.35,12.65h26.66Zm23.61-7.65l-6.57-6.57-2.14,2.14c-.01.02-.02.03-.04.04v.01l-15.92,15.92,7.23,7.24,17.44-18.78Z" stroke-width="0"/></svg>