<svg id="uuid-6135a44e-55d9-4361-b4ee-7ec8d29fc830" xmlns="http://www.w3.org/2000/svg" viewBox="0 0 90 48"><rect x="16.94" y="9.81" width="56.11" height="11.84" rx="1" ry="1"/><path d="M70.2,15.52l-1.64,1.76c-.1.11-.27.11-.37,0l-1.64-1.76c-.15-.16-.03-.42.19-.42h3.27c.22,0,.34.26.19.42Z" class="sgmaincolor"/><path d="M72.05,26.24H17.94c-.55,0-1,.44-1,1v9.91c0,.56.45,1,1,1h54.11c.55,0,1-.44,1-1v-9.91c0-.56-.45-1-1-1Z"/><path d="M70.2,31.99l-1.64,1.76c-.1.1-.27.1-.37,0l-1.64-1.76c-.15-.16-.03-.43.19-.43h3.27c.22,0,.34.27.19.43Z" class="sgmaincolor"/></svg>
