<svg xmlns="http://www.w3.org/2000/svg" viewBox="0 0 96 96"><polygon points="55.9 2 12.8 2 12.8 94 38.5 94 83.2 94 83.2 58 83.2 28.7 55.9 2" class="sgmaincolor"/><path d="M56.3,1H11.8v94h72.4V28.3L56.3,1ZM56.9,4.4l23.8,23.3h-23.8s0-23.3,0-23.3ZM82.2,93H13.8V3h41.1v26.7h27.3v63.3Z"/><path d="M71.7,66.1l-22.8-35.2c-.4-.6-1.3-.6-1.7,0l-22.8,35.2c-.2.3-.2.7,0,1s.5.5.9.5h45.7c.4,0,.7-.2.9-.5.2-.3.2-.7,0-1h-.2ZM68.5,65.6H27.5c-.2,0-.4-.2-.2-.4l20.5-31.6c.1-.2.4-.2.5,0l20.5,31.6c.1.2,0,.4-.2.4h-.1Z"/><path d="M49,56.4v-13.9c0-.5-.5-1-1-1s-1,.5-1,1v13.9c0,.5.5,1,1,1s1-.5,1-1Z"/><path d="M48,63.3c-1.1,0-1.8-.7-2-1.7-.2-1.3,1-2.5,2.3-2.3,1,.1,1.7.9,1.7,2s-.9,2-2,2h0Z"/><path d="M0,28.4c.1.1.2.3.3.5,0-.2-.1-.3-.3-.5Z"/></svg>