<svg xmlns="http://www.w3.org/2000/svg" viewBox="0 0 96 96"><circle cx="15" cy="30" r="12" class="sgmaincolor" stroke-width="0"/><path d="m15,40c5.52,0,10-4.48,10-10s-4.48-10-10-10-10,4.48-10,10,4.48,10,10,10Zm0,2c6.63,0,12-5.37,12-12s-5.37-12-12-12S3,23.37,3,30s5.37,12,12,12Z" fill-rule="evenodd" stroke-width="0"/><path d="m27,66c0,6.63-5.37,12-12,12s-12-5.37-12-12,5.37-12,12-12,12,5.37,12,12Z" class="sgmaincolor" stroke-width="0"/><path d="m15,76c5.52,0,10-4.48,10-10s-4.48-10-10-10-10,4.48-10,10,4.48,10,10,10Zm0,2c6.63,0,12-5.37,12-12s-5.37-12-12-12-12,5.37-12,12,5.37,12,12,12Z" fill-rule="evenodd" stroke-width="0"/><circle cx="48" cy="30" r="12" class="sgmaincolor" stroke-width="0"/><path d="m48,40c5.52,0,10-4.48,10-10s-4.48-10-10-10-10,4.48-10,10,4.48,10,10,10Zm0,2c6.63,0,12-5.37,12-12s-5.37-12-12-12-12,5.37-12,12,5.37,12,12,12Z" fill-rule="evenodd" stroke-width="0"/><circle cx="48" cy="66" r="12" class="sgmaincolor" stroke-width="0"/><path d="m48,76c5.52,0,10-4.48,10-10s-4.48-10-10-10-10,4.48-10,10,4.48,10,10,10Zm0,2c6.63,0,12-5.37,12-12s-5.37-12-12-12-12,5.37-12,12,5.37,12,12,12Z" fill-rule="evenodd" stroke-width="0"/><circle cx="81" cy="30" r="12" class="sgmaincolor" stroke-width="0"/><path d="m81,40c5.52,0,10-4.48,10-10s-4.48-10-10-10-10,4.48-10,10,4.48,10,10,10Zm0,2c6.63,0,12-5.37,12-12s-5.37-12-12-12-12,5.37-12,12,5.37,12,12,12Z" fill-rule="evenodd" stroke-width="0"/><circle cx="81" cy="66" r="12" class="sgmaincolor" stroke-width="0"/><path d="m81,76c5.52,0,10-4.48,10-10s-4.48-10-10-10-10,4.48-10,10,4.48,10,10,10Zm0,2c6.63,0,12-5.37,12-12s-5.37-12-12-12-12,5.37-12,12,5.37,12,12,12Z" fill-rule="evenodd" stroke-width="0"/></svg>