<svg xmlns="http://www.w3.org/2000/svg" viewBox="0 0 96 96">
  <polygon points="48.133 65.002 14.137 41.002 14.137 85.002 82.137 85.002 82.129 42.002 48.133 65.002" class="sgmaincolor"/>
  <path d="m83.129,42.001c0-.031-.016-.058-.019-.089-.006-.072-.022-.14-.044-.21-.02-.062-.042-.118-.073-.175-.015-.028-.018-.06-.036-.086-.024-.035-.059-.054-.086-.085-.025-.029-.037-.065-.065-.091l-6.676-6.13v-7.134c0-.134-.027-.264-.078-.385-.051-.122-.125-.232-.217-.323l-17.996-17.998c-.092-.092-.201-.166-.323-.217-.121-.051-.251-.078-.385-.078H21.136c-.553,0-1,.447-1,1v25.256l-6.599,4.944c-.029.022-.042.058-.069.082-.05.047-.108.082-.149.14-.018.025-.021.054-.035.08-.028.047-.045.094-.064.145-.034.089-.056.176-.063.269-.002.029-.02.054-.02.083v44c0,.553.447,1,1,1h68c.553,0,1-.447,1-1l-.008-43Zm-2.608-.119l-4.391,2.97v-7.002l4.391,4.032Zm-22.389-29.467l14.584,14.586h-14.584v-14.586Zm-2-1.414v17c0,.553.447,1,1,1h16.998v17.204l-17.436,11.796h-16.743l-17.816-12.578V11.001h33.996Zm-2.394,49l-5.594,3.784-5.36-3.784h10.954Zm-33.602-15.99l-4.299-3.035,4.299-3.221v6.256Zm-4.999-1.08l32.419,22.887c.173.121.375.183.577.183.195,0,.391-.058.561-.172l32.436-21.944.007,40.116H15.137v-41.069Zm15.998-1.931c0-.553.447-1,1-1h31.996c.553,0,1,.447,1,1s-.447,1-1,1h-31.996c-.553,0-1-.447-1-1Zm0,9c0-.553.447-1,1-1h31.996c.553,0,1,.447,1,1s-.447,1-1,1h-31.996c-.553,0-1-.447-1-1Z"/>
</svg>
