<svg viewBox="0 0 96 96" xmlns="http://www.w3.org/2000/svg"><path d="m93,80.5H3V12.5h90v68Zm-88-2h86V14.5H5v64Z" stroke-width="0"/><rect x="18" y="23.5" width="62" height="2" stroke-width="0"/><rect x="20" y="36.5" width="32" height="32" class="sgmaincolor" stroke-width="0"/><path d="m18,34.5v36h36v-36H18Zm34,34H20v-32h32v32Z" stroke-width="0"/><rect x="67" y="36.5" width="11" height="11" class="sgmaincolor" stroke-width="0"/><path d="m65,34.5v15h15v-15h-15Zm13,13h-11v-11h11v11Z" stroke-width="0"/><path d="m65,55.5v15h15v-15h-15Zm13,13h-11v-11h11v11Z" stroke-width="0"/><rect x="67" y="57.5" width="11" height="11" class="sgmaincolor" stroke-width="0"/></svg>
