<svg xmlns="http://www.w3.org/2000/svg" viewBox="0 0 96 96"><path d="m89.918,57.315v-18.63h-10.683c-.645-2.166-1.494-4.243-2.552-6.194l7.778-7.778-13.174-13.174-7.778,7.778c-1.951-1.058-4.028-1.907-6.194-2.552V6.082h-18.63v10.683c-2.166.645-4.243,1.494-6.194,2.552l-7.778-7.778-13.174,13.174,7.778,7.778c-1.058,1.951-1.907,4.028-2.552,6.194H6.082v18.63h10.683c.645,2.166,1.495,4.244,2.553,6.195l-7.778,7.778,13.174,13.174,7.778-7.778c1.951,1.057,4.028,1.907,6.193,2.552v10.683h18.63v-10.683c2.166-.645,4.243-1.494,6.194-2.552l7.778,7.778,13.174-13.174-7.778-7.778c1.058-1.951,1.907-4.028,2.552-6.194h10.683Z" class="sgmaincolor"/><path d="m57.315,90.918h-18.631c-.552,0-1-.447-1-1v-9.945c-1.746-.561-3.425-1.252-5.007-2.061l-7.257,7.257c-.391.391-1.023.391-1.414,0l-13.174-13.174c-.391-.391-.391-1.023,0-1.414l7.257-7.257c-.809-1.581-1.5-3.26-2.062-5.009H6.082c-.552,0-1-.448-1-1v-18.631c0-.552.448-1,1-1h9.946c.562-1.749,1.253-3.428,2.062-5.008l-7.257-7.257c-.391-.391-.391-1.023,0-1.414l13.173-13.173c.391-.391,1.023-.391,1.414,0l7.257,7.257c1.582-.809,3.261-1.5,5.008-2.062V6.082c0-.552.448-1,1-1h18.631c.552,0,1,.448,1,1v9.946c1.748.562,3.426,1.252,5.008,2.062l7.257-7.257c.391-.391,1.023-.391,1.414,0l13.173,13.173c.391.391.391,1.023,0,1.414l-7.257,7.257c.809,1.581,1.5,3.26,2.062,5.008h9.946c.552,0,1,.448,1,1v18.631c0,.552-.448,1-1,1h-9.946c-.562,1.749-1.253,3.428-2.062,5.008l7.257,7.257c.391.391.391,1.023,0,1.414l-13.173,13.174c-.375.375-1.039.375-1.414,0l-7.257-7.258c-1.581.809-3.26,1.499-5.008,2.062v9.945c0,.553-.448,1-1,1Zm-17.631-2h16.631v-9.683c0-.442.291-.832.714-.958,2.124-.633,4.143-1.465,6.003-2.473.389-.21.871-.141,1.184.172l7.071,7.072,11.759-11.76-7.071-7.071c-.313-.313-.383-.794-.172-1.184,1.008-1.86,1.84-3.88,2.473-6.003.126-.424.516-.714.958-.714h9.683v-16.631h-9.683c-.442,0-.832-.291-.958-.714-.633-2.124-1.465-4.143-2.473-6.003-.21-.389-.141-.871.172-1.184l7.071-7.071-11.759-11.759-7.071,7.071c-.312.313-.794.383-1.184.172-1.862-1.009-3.882-1.841-6.003-2.473-.424-.126-.714-.516-.714-.958V7.082h-16.631v9.683c0,.442-.291.832-.714.958-2.122.632-4.141,1.464-6.003,2.473-.39.21-.872.141-1.184-.172l-7.071-7.071-11.759,11.759,7.071,7.071c.313.313.383.794.172,1.184-1.008,1.86-1.84,3.88-2.473,6.003-.126.424-.516.714-.958.714H7.082v16.631h9.683c.442,0,.832.291.958.714.633,2.123,1.465,4.143,2.474,6.004.21.389.141.871-.172,1.184l-7.071,7.071,11.76,11.76,7.071-7.071c.312-.312.792-.383,1.184-.172,1.863,1.009,3.882,1.841,6.002,2.473.424.126.714.516.714.958v9.683Z"/><path d="m38.685,67.63c-.162,0-.324-.039-.472-.118-.325-.174-.528-.513-.528-.882V29.37c0-.369.203-.708.528-.882.324-.174.719-.156,1.026.05l27.946,18.63c.278.186.445.498.445.832s-.167.646-.445.832l-27.946,18.63c-.167.111-.361.168-.555.168Zm1-36.392v33.523l25.143-16.762-25.143-16.762Z"/></svg>