<svg id="uuid-12294ab4-09c0-4886-bbee-e637596f1b2a" xmlns="http://www.w3.org/2000/svg" viewBox="0 0 90 48"><path d="M81.22,9.85h-30.36c-.66,0-1.19.53-1.19,1.19s.53,1.19,1.19,1.19h30.36c.66,0,1.19-.53,1.19-1.19s-.53-1.19-1.19-1.19Z" class="sgmaincolor"/><path d="M50.87,19.26h21.11c.66,0,1.19-.53,1.19-1.19s-.53-1.19-1.19-1.19h-21.11c-.66,0-1.19.53-1.19,1.19s.53,1.19,1.19,1.19Z" class="sgmaincolor"/><path d="M8.01,48.01h37V.01H8.01C3.58.01,0,3.59,0,8.01v32c0,4.42,3.58,8,8,8Z"/><rect x="7.59" y="9.9" width="30.26" height="4.69" rx="1" ry="1" class="sgmaincolor"/><path d="M7.59,20.33c0-.56.45-1,1-1h28.26c.55,0,1,.44,1,1v16.82c0,.55-.45,1-1,1H8.59c-.55,0-1-.45-1-1v-16.82Z" class="sgmaincolor"/></svg>
