<svg id="uuid-57c97091-8125-4f38-af01-35f30e0ab135" xmlns="http://www.w3.org/2000/svg" viewBox="0 0 90 48"><path d="M8,48h74c4.4,0,8-3.6,8-8V8C90,3.6,86.4,0,82,0H8C3.6,0,0,3.6,0,8v32C0,44.4,3.6,48,8,48ZM8.86,9.89h30.27c.66,0,1.19.53,1.19,1.19s-.53,1.19-1.19,1.19H8.86c-.66,0-1.19-.53-1.19-1.19s.53-1.19,1.19-1.19ZM8.86,17.03h30.27c.66,0,1.19.53,1.19,1.19s-.53,1.19-1.19,1.19H8.86c-.66,0-1.19-.53-1.19-1.19s.53-1.19,1.19-1.19ZM8.86,24.18h21.14c.66,0,1.19.53,1.19,1.19s-.53,1.19-1.19,1.19H8.86c-.66,0-1.19-.53-1.19-1.19s.53-1.19,1.19-1.19ZM9.94,33.51h9.45c1.26,0,2.27,1.02,2.27,2.27s-1.02,2.27-2.27,2.27h-9.45c-1.26,0-2.27-1.02-2.27-2.27s1.02-2.27,2.27-2.27Z"/><path d="M9.94,38.06h9.45c1.26,0,2.27-1.02,2.27-2.27s-1.02-2.27-2.27-2.27h-9.45c-1.26,0-2.27,1.02-2.27,2.27s1.02,2.27,2.27,2.27Z" fill="#fff"/><path d="M8.86,12.28h30.27c.66,0,1.19-.53,1.19-1.19s-.53-1.19-1.19-1.19H8.86c-.66,0-1.19.53-1.19,1.19s.53,1.19,1.19,1.19Z" fill="#fff"/><path d="M8.86,19.42h30.27c.66,0,1.19-.53,1.19-1.19s-.53-1.19-1.19-1.19H8.86c-.66,0-1.19.53-1.19,1.19s.53,1.19,1.19,1.19Z" fill="#fff"/><path d="M8.86,26.57h21.14c.66,0,1.19-.53,1.19-1.19s-.53-1.19-1.19-1.19H8.86c-.66,0-1.19.53-1.19,1.19s.53,1.19,1.19,1.19Z" fill="#fff"/></svg>
