<?xml version="1.0" encoding="UTF-8"?>
<svg id="uuid-89cf73c2-5226-4af1-aaac-b8166c36322b" xmlns="http://www.w3.org/2000/svg" xmlns:xlink="http://www.w3.org/1999/xlink" viewBox="0 0 64 64">
	<g clip-path="url(#uuid-2eb35cd9-16b4-4df9-a379-74dcba711d7d)">
		<g clip-path="url(#uuid-d82f1d69-6767-4971-bff6-a0981746e2ce)">
			<path d="M54.72,58.63c-.16,0-.31-.06-.44-.17-.28-.24-.3-.67-.06-.94,6.2-7.01,8.83-16.3,7.22-25.5C58.54,15.4,42.63,4.23,25.97,7.13,13.3,9.33,4.08,17.45,1.31,28.86c-.09.36-.45.57-.81.49-.36-.09-.58-.45-.49-.81C2.92,16.61,12.53,8.11,25.74,5.82c17.38-3.02,33.98,8.63,37.01,25.98,1.68,9.59-1.07,19.29-7.54,26.61-.13.15-.31.23-.5.23Z" stroke-width="0" />
			<path d="M54.6,58.68c-.31,0-.58-.21-.65-.52l-1.9-8.44c-.08-.36.14-.72.5-.8.35-.08.72.14.8.5l1.77,7.83,8.12-1.27c.37-.06.71.19.76.55.06.36-.19.71-.55.76l-8.73,1.37s-.07,0-.1,0Z" stroke-width="0" />
			<path d="M19.87,15.98l-11.34,20.52,11.34,19.14h23.52l10.92-19.83-11.34-19.83h-23.1Z" class="sgmaincolor" stroke-width="0" />
			<path d="M31.62,37.62c-.17,0-.33-.06-.46-.19l-12.11-11.64c-.27-.26-.27-.68-.02-.94s.68-.27.94-.02l12.11,11.64c.27.25.27.68.02.94-.13.14-.31.21-.48.21Z" stroke-width="0" />
			<path d="M31.62,37.62c-.22,0-.44-.11-.56-.31-.2-.31-.1-.72.21-.92l10.67-6.76c.31-.2.72-.11.92.21.2.31.1.72-.21.92l-10.67,6.76c-.11.07-.23.1-.36.1Z" stroke-width="0" />
			<path d="M32,38.68c1.1,0,2-.9,2-2s-.9-2-2-2-2,.9-2,2,.9,2,2,2Z" stroke-width="0" />
			<path d="M31.88,22.52c-.37,0-.67-.3-.67-.67v-5.91c0-.37.3-.67.67-.67s.67.3.67.67v5.91c0,.37-.3.67-.67.67Z" stroke-width="0" />
			<path d="M31.88,56.29c-.37,0-.67-.3-.67-.67v-5.36c0-.37.3-.67.67-.67s.67.3.67.67v5.36c0,.37-.3.67-.67.67Z" stroke-width="0" />
			<path d="M54.31,36.48h0l-8.9-.03c-.37,0-.67-.3-.67-.67,0-.37.3-.67.67-.67h0l8.9.03c.37,0,.67.3.67.67,0,.37-.3.67-.67.67Z" stroke-width="0" />
			<path d="M16.94,37.16h-8.38c-.37,0-.67-.3-.67-.67s.3-.67.67-.67h8.38c.37,0,.67.3.67.67s-.3.67-.67.67Z" stroke-width="0" />
			<path d="M43.39,56.29h-23.52c-.24,0-.45-.12-.57-.33l-11.34-19.15c-.12-.2-.12-.46,0-.66l11.34-20.52c.12-.21.34-.34.58-.34h23.1c.24,0,.46.13.58.34l11.34,19.84c.12.2.12.45,0,.65l-10.92,19.83c-.12.21-.34.35-.58.35ZM20.25,54.96h22.74l10.55-19.16-10.96-19.18h-22.32l-10.97,19.85,10.95,18.49Z" stroke-width="0" />
		</g>
	</g>
</svg>
