<svg id="uuid-3651b612-5a60-4d08-a837-04c07e0e4a94" xmlns="http://www.w3.org/2000/svg" viewBox="0 0 90.25 48.25"><polygon points="49.97 36.83 48.54 38.98 49.97 38.98 49.97 36.83" class="sgmaincolor" opacity="0"/><path d="M39.82,36.47c.12-.16.29-.24.5-.24s.38.07.48.19.16.31.16.54c0,.3-.11.62-.33.94-.22.32-.49.63-.81.92-.32.29-.76.67-1.31,1.13.02-.01-.07.06-.26.21v1.08h4.25v-1.18h-2.29c.64-.49,1.16-1,1.58-1.51.41-.52.62-1.08.62-1.68,0-.55-.17-1-.51-1.35-.34-.34-.85-.52-1.52-.52-.39,0-.74.08-1.06.23-.32.15-.58.39-.77.71-.2.32-.3.72-.31,1.2h1.4c0-.29.06-.52.18-.68Z" class="sgmaincolor"/><polygon points="46.52 33.28 45.12 33.28 42.85 42.92 44.25 42.92 46.52 33.28" class="sgmaincolor"/><path d="M51.32,38.98v-3.75h-1.62l-2.68,3.83v1.17h2.85v1.11h1.45v-1.11h.69v-1.25h-.69ZM49.97,38.98h-1.42l1.42-2.15v2.15Z" class="sgmaincolor"/><path d="M11.26,28.06c.2.2.45.29.71.29s.51-.1.71-.29c.39-.39.39-1.02,0-1.41l-2.59-2.59,2.59-2.59c.39-.39.39-1.02,0-1.41s-1.02-.39-1.41,0l-3.29,3.29c-.39.39-.39,1.02,0,1.41l3.29,3.29Z" class="sgmaincolor"/><path d="M77.58,28.06c.2.2.45.29.71.29s.51-.1.71-.29l3.29-3.29c.39-.39.39-1.02,0-1.41l-3.29-3.29c-.39-.39-1.02-.39-1.41,0s-.39,1.02,0,1.41l2.59,2.59-2.59,2.59c-.39.39-.39,1.02,0,1.41Z" class="sgmaincolor"/></svg>
