<svg xmlns="http://www.w3.org/2000/svg" viewBox="0 0 96 96"><polygon points="55.93 2 12.81 2 12.81 94 38.49 94 83.19 94 83.19 58.04 83.19 28.72 55.93 2" class="sgmaincolor"/><path d="M56.3,1H11.8v94h72.4V28.3L56.3,1ZM56.9,4.4l23.8,23.3h-23.8s0-23.3,0-23.3ZM82.2,93H13.8V3h41.1v26.7h27.3v63.3Z"/><path d="M36.55,17.95c.55,0,1-.45,1-1s-.45-1-1-1h-3.21v-4.61h3.21c.55,0,1-.45,1-1s-.45-1-1-1h-3.21V3h-2v6.34h-2.86c-.55,0-1,.44-1,1s.45,1,1,1h2.86v4.61h-2.86c-.55,0-1,.44-1,1s.45,1,1,1h2.86v4.61h-2.86c-.55,0-1,.45-1,1s.45,1,1,1h2.86v4.61h-2.86c-.55,0-1,.45-1,1s.45,1,1,1h2.86v4.61h-2.86c-.55,0-1,.45-1,1s.45,1,1,1h2.86v4.61h-2.86c-.55,0-1,.45-1,1s.45,1,1,1h2.86v4.61h-2.86c-.55,0-1,.45-1,1s.45,1,1,1h2.86v2.46h-3.2c-.55,0-1,.44-1,1v19.96c0,.55.45,1,1,1h8.41c.55,0,1-.45,1-1v-19.96c0-.56-.45-1-1-1h-3.21v-2.46h3.21c.55,0,1-.45,1-1s-.45-1-1-1h-3.21v-4.61h3.21c.55,0,1-.45,1-1s-.45-1-1-1h-3.21v-4.61h3.21c.55,0,1-.45,1-1s-.45-1-1-1h-3.21v-4.61h3.21c.55,0,1-.45,1-1s-.45-1-1-1h-3.21v-4.61h3.21c.55,0,1-.45,1-1s-.45-1-1-1h-3.21v-4.61h3.21ZM35.55,73.42h-6.41v-13.49h6.41v13.49ZM35.55,55.46v2.47h-6.41v-2.47h6.41Z"/><path d="M31.34,68.48v-5.05c0-.55.45-1,1-1s1,.45,1,1v5.05c0,.55-.44,1-1,1s-1-.45-1-1Z"/></svg>