<svg id="uuid-3838702e-5959-4da3-8ad5-714ef249000b" xmlns="http://www.w3.org/2000/svg" viewBox="0 0 90 48"><path d="M9.95,33.52c-1.26,0-2.27,1.02-2.27,2.27s1.02,2.27,2.27,2.27h9.45c1.26,0,2.27-1.02,2.27-2.27s-1.02-2.27-2.27-2.27h-9.45Z" class="sgmaincolor"/><path d="M39.14,9.9H8.87c-.66,0-1.19.53-1.19,1.19s.53,1.19,1.19,1.19h30.27c.66,0,1.19-.53,1.19-1.19s-.53-1.19-1.19-1.19Z" class="sgmaincolor"/><path d="M40.33,18.19c0-.66-.53-1.19-1.19-1.19H8.87c-.66,0-1.19.53-1.19,1.19s.53,1.19,1.19,1.19h30.27c.66,0,1.19-.53,1.19-1.19Z" class="sgmaincolor"/><path d="M31.2,25.28c0-.66-.53-1.19-1.19-1.19H8.87c-.66,0-1.19.53-1.19,1.19s.53,1.19,1.19,1.19h21.14c.66,0,1.19-.53,1.19-1.19Z" class="sgmaincolor"/><path d="M82.01.09h-37v48h37c4.42,0,8-3.58,8-8V8.09c0-4.42-3.58-8-8-8Z"/><path d="M74.33,13.92c1.77,0,3.21,1.43,3.21,3.21s-1.44,3.21-3.21,3.21-3.21-1.44-3.21-3.21,1.43-3.21,3.21-3.21Z" class="sgmaincolor"/><path d="M79.42,35.93h-25.64c-.32,0-.52-.37-.35-.64l8.68-13.69c.16-.25.52-.26.69-.02l5.54,7.61c.15.21.45.23.63.05l2.35-2.33c.17-.16.44-.16.6.02l7.8,8.29c.25.27.06.71-.3.71Z" class="sgmaincolor"/></svg>
