<svg id="uuid-8d0da90d-ef49-4707-baf8-8ca88d6ef57e" xmlns="http://www.w3.org/2000/svg" viewBox="0 0 90 48"><rect x="7.38" y="5.23" width="75.25" height="9.16" rx="2" ry="2" /><rect x="7.38" y="16.58" width="75.25" height="26.08" rx="2" ry="2" /><rect x="40.32" y="8.65" width="9.36" height="2.38" rx="1.19" ry="1.19" class="sgmaincolor"/><rect x="16.78" y="24.14" width="9.36" height="2.38" rx="1.19" ry="1.19" class="sgmaincolor"/><rect x="16.78" y="32.33" width="9.36" height="2.38" rx="1.19" ry="1.19" class="sgmaincolor"/><rect x="40.32" y="24.14" width="9.36" height="2.38" rx="1.19" ry="1.19" class="sgmaincolor"/><rect x="40.32" y="32.33" width="9.36" height="2.38" rx="1.19" ry="1.19" class="sgmaincolor"/><rect x="63.84" y="24.14" width="9.36" height="2.38" rx="1.19" ry="1.19" class="sgmaincolor"/><rect x="63.84" y="32.33" width="9.36" height="2.38" rx="1.19" ry="1.19" class="sgmaincolor"/><rect x="63.84" y="8.65" width="9.36" height="2.38" rx="1.19" ry="1.19" class="sgmaincolor"/><rect x="16.78" y="8.65" width="9.36" height="2.38" rx="1.19" ry="1.19" class="sgmaincolor"/></svg>
