<?xml version="1.0" encoding="UTF-8"?><svg id="uuid-76f8d3f1-6469-47a4-a4ca-eb5eef4b9048" xmlns="http://www.w3.org/2000/svg" xmlns:xlink="http://www.w3.org/1999/xlink" viewBox="0 0 64 64"><defs><clipPath id="uuid-fbd81ecd-fc13-4a58-9620-e59caf1a9f61"><rect x="8" y="1.34" width="47.95" height="61.27" fill="none" stroke-width="0"/></clipPath></defs><rect x="0" width="64" height="64" fill="#fff" opacity="0" stroke-width="0"/><g clip-path="url(#uuid-fbd81ecd-fc13-4a58-9620-e59caf1a9f61)"><path d="M8.67,9.99l4.13,26.65,19.57,25.29,19.55-25.29,3.37-26.65-22.92-7.02-23.7,7.02Z" class="sgmaincolor" stroke-width="0"/><path d="M32.37,62.6c-.21,0-.4-.1-.53-.26l-19.57-25.29c-.07-.09-.11-.19-.13-.31l-4.13-26.65c-.05-.33.15-.65.47-.74l23.7-7.02c.13-.04.26-.04.38,0l22.92,7.02c.31.09.51.4.47.72l-3.37,26.65c-.01.12-.06.23-.13.32l-19.55,25.29c-.13.16-.32.26-.53.26ZM13.43,36.37l18.94,24.48,18.91-24.47,3.27-25.92-22.19-6.8-22.95,6.8,4.01,25.91Z" fill="#000" stroke-width="0"/><path d="M51.92,37.32c-.12,0-.25-.03-.36-.1l-6.75-4.27c-.31-.2-.4-.61-.21-.92s.61-.4.92-.21l6.75,4.27c.31.2.4.61.21.92-.13.2-.34.31-.56.31Z" fill="#000" stroke-width="0"/><path d="M19.57,17.92c-.13,0-.26-.04-.37-.11l-10.9-7.27c-.31-.2-.39-.62-.19-.92.2-.31.62-.39.92-.19l10.9,7.27c.31.2.39.62.19.92-.13.19-.34.3-.56.3Z" fill="#000" stroke-width="0"/><path d="M12.8,37.31c-.22,0-.44-.11-.56-.31-.2-.31-.1-.72.21-.92l6.76-4.28c.31-.2.72-.1.92.21.2.31.1.72-.21.92l-6.76,4.28c-.11.07-.23.1-.36.1Z" fill="#000" stroke-width="0"/><path d="M45.18,17.92c-.21,0-.41-.1-.54-.28-.21-.3-.15-.72.15-.93l10.11-7.27c.3-.21.72-.15.93.15.21.3.15.72-.15.93l-10.11,7.27c-.12.08-.25.12-.39.12Z" fill="#000" stroke-width="0"/><path d="M32.37,62.6c-.37,0-.67-.3-.67-.67v-23.29c0-.37.3-.67.67-.67s.67.3.67.67v23.29c0,.37-.3.67-.67.67Z" fill="#000" stroke-width="0"/><path d="M32.37,62.6c-.21,0-.4-.1-.53-.26l-19.57-25.29c-.07-.09-.11-.19-.13-.31l-4.13-26.65c-.05-.33.15-.65.47-.74l23.7-7.02c.13-.04.26-.04.38,0l22.92,7.02c.31.09.51.4.47.72l-3.37,26.65c-.01.12-.06.23-.13.32l-19.55,25.29c-.13.16-.32.26-.53.26ZM13.43,36.37l18.94,24.48,18.91-24.47,3.27-25.92-22.19-6.8-22.95,6.8,4.01,25.91Z" fill="#000" stroke-width="0"/><path d="M19.57,16.67v21.97s25.61,0,25.61,0v-21.97h-25.61Z" class="sgmaincolor" stroke-width="0"/><path d="M45.17,39.31h-25.62c-.18,0-.35-.07-.47-.2-.12-.13-.2-.29-.19-.47v-21.97c.01-.37.31-.67.68-.67h25.61c.37,0,.67.3.67.67v21.97c0,.37-.3.67-.67.67ZM20.22,37.97h24.29v-20.63h-24.27v20.63Z" fill="#000" stroke-width="0"/><path d="M31.77,34.45c3.74,0,6.77-3.05,6.77-6.82s-3.03-6.82-6.77-6.82-6.77,3.05-6.77,6.82,3.03,6.82,6.77,6.82Z" class="sgmaincolor" stroke-width="0"/><path d="M31.77,35.12c-4.1,0-7.43-3.36-7.43-7.49s3.33-7.49,7.43-7.49,7.43,3.36,7.43,7.49-3.33,7.49-7.43,7.49ZM31.77,21.48c-3.36,0-6.1,2.76-6.1,6.15s2.74,6.15,6.1,6.15,6.1-2.76,6.1-6.15-2.74-6.15-6.1-6.15Z" fill="#000" stroke-width="0"/><path d="M28.7,27.65l1.87,2.49,5.56-5.02" class="sgmaincolor" stroke-width="0"/><path d="M30.57,30.8s-.04,0-.06,0c-.19-.02-.36-.11-.47-.26l-1.87-2.49c-.22-.29-.16-.71.13-.93.29-.22.71-.16.93.13l1.44,1.91,5.02-4.53c.27-.25.69-.23.94.05.25.27.22.69-.05.94l-5.56,5.02c-.12.11-.28.17-.45.17Z" fill="#000" stroke-width="0"/><path d="M26.08,16.67c0-.1-.01-.2-.01-.3v-5.61c0-3.54,2.67-6.42,5.96-6.42s5.96,2.88,5.96,6.42v5.61c0,.1,0,.2-.01.3h2.18c0-.1,0-.2,0-.3v-5.61c0-4.83-3.65-8.77-8.13-8.77s-8.13,3.93-8.13,8.77v5.61c0,.1,0,.2,0,.3h2.18Z" class="sgmaincolor" stroke-width="0"/><path d="M40.15,17.33h-2.18c-.18,0-.36-.08-.49-.21s-.19-.32-.18-.5c0-.08.01-.17.01-.25v-5.61c0-3.17-2.37-5.75-5.29-5.75s-5.29,2.58-5.29,5.75v5.71c0,.06.01.13.01.19,0,.37-.3.67-.67.67h-2.18c-.35,0-.64-.27-.67-.62,0-.12,0-.23,0-.35v-5.61c0-5.2,3.95-9.43,8.8-9.43s8.8,4.23,8.8,9.43v5.91c0,.37-.31.67-.67.67ZM38.66,16h.84v-5.24c0-4.47-3.35-8.1-7.47-8.1s-7.47,3.63-7.47,8.1v5.24h.84v-5.24c0-3.91,2.97-7.09,6.63-7.09s6.63,3.18,6.63,7.09v5.24Z" fill="#000" stroke-width="0"/></g></svg>
