<svg id="uuid-cb00e4e7-f9ae-4154-83d1-0a9b58e76f60" xmlns="http://www.w3.org/2000/svg" viewBox="0 0 90 48"><path d="M51.94,33.45c-1.26,0-2.27,1.02-2.27,2.27s1.02,2.27,2.27,2.27h9.45c1.26,0,2.27-1.02,2.27-2.27s-1.02-2.27-2.27-2.27h-9.45Z" class="sgmaincolor"/><path d="M81.19,9.97h-30.33c-.66,0-1.19.53-1.19,1.19s.53,1.19,1.19,1.19h30.33c.66,0,1.19-.53,1.19-1.19s-.53-1.19-1.19-1.19Z" class="sgmaincolor"/><path d="M81.19,17.04h-30.33c-.66,0-1.19.53-1.19,1.19s.53,1.19,1.19,1.19h30.33c.66,0,1.19-.53,1.19-1.19s-.53-1.19-1.19-1.19Z" class="sgmaincolor"/><path d="M73.09,25.3c0-.66-.53-1.19-1.19-1.19h-21.05c-.66,0-1.19.53-1.19,1.19s.53,1.19,1.19,1.19h21.05c.66,0,1.19-.53,1.19-1.19Z" class="sgmaincolor"/><path d="M43,5.23H9.44c-1.1,0-2,.89-2,2v33.55c0,1.1.9,2,2,2h33.56c1.1,0,2-.9,2-2V7.23c0-1.11-.9-2-2-2Z"/><path d="M33.95,13.94c1.77,0,3.21,1.43,3.21,3.21s-1.44,3.21-3.21,3.21-3.21-1.44-3.21-3.21,1.43-3.21,3.21-3.21Z" class="sgmaincolor"/><path d="M39.04,35.95H13.4c-.32,0-.52-.37-.35-.64l8.68-13.69c.16-.25.52-.26.69-.02l5.54,7.61c.15.21.45.23.63.05l2.35-2.33c.17-.16.44-.16.6.02l7.8,8.29c.25.27.06.71-.3.71Z" class="sgmaincolor"/></svg>
