<svg xmlns="http://www.w3.org/2000/svg" viewBox="0 0 90 48"><g id="uuid-6567419f-2e72-4ac3-9b09-39ffd746164f"><path d="M82,0H8C3.58,0,0,3.58,0,8v32C0,44.42,3.58,48,8,48h74c4.42,0,8-3.58,8-8V8C90,3.58,86.42,0,82,0Z"/><path d="M43.65,9.69H9.1c-.74,0-1.35.53-1.35,1.19s.6,1.19,1.35,1.19h34.55c.74,0,1.35-.53,1.35-1.19s-.6-1.19-1.35-1.19Z" class="sgmaincolor"/><path d="M29.82,17H8.93c-.65,0-1.18.53-1.18,1.19s.53,1.19,1.18,1.19h20.89c.65,0,1.18-.53,1.18-1.19s-.53-1.19-1.18-1.19Z" class="sgmaincolor"/><path d="M43.7,24H9.05c-.72,0-1.3.33-1.3.74v12.51c0,.41.58.74,1.3.74h34.65c.72,0,1.3-.33,1.3-.74v-12.51c0-.41-.58-.74-1.3-.74Z" class="sgmaincolor"/></g></svg>