<svg id="uuid-cbfae9c4-906a-4c4d-b5b0-98cee14084fe" xmlns="http://www.w3.org/2000/svg" viewBox="0 0 90 48">
    <path class="sgmaincolor" d="M63.77,23.93c0-5.18-2.1-9.88-5.5-13.28-3.39-3.4-8.09-5.5-13.27-5.5-10.37,0-18.78,8.41-18.78,18.78s8.41,18.78,18.78,18.78,18.77-8.41,18.77-18.78Z"/>
    <path d="M51.63,14.55c1.51,0,2.73,1.23,2.73,2.74s-1.22,2.73-2.73,2.73-2.74-1.22-2.74-2.73,1.23-2.74,2.74-2.74Z"/>
    <path d="M33.82,32.76l7.4-11.66c.13-.21.44-.22.58-.02l4.72,6.49c.13.17.39.2.54.04l2.01-1.98c.14-.14.37-.14.51.01l6.64,7.07c.22.23.06.6-.26.6h-21.84c-.28,0-.45-.31-.3-.55Z"/>
</svg>
