<svg xmlns="http://www.w3.org/2000/svg" viewBox="0 0 96 96"><path d="m92,39H4v44h88v-44Z" class="sgmaincolor" stroke-width="0"/><path d="m92,16H4c-.55,0-1,.45-1,1v66c0,.55.45,1,1,1h88c.55,0,1-.45,1-1V17c0-.55-.45-1-1-1ZM5,18h86v20H5v-20Zm86,64H5v-42h86v42Z" fill-rule="evenodd" stroke-width="0"/><path d="m22,48c0-.55.45-1,1-1h49c.55,0,1,.45,1,1s-.45,1-1,1H23c-.55,0-1-.45-1-1Z" fill-rule="evenodd" stroke-width="0"/><path d="m22,55c0-.55.45-1,1-1h49c.55,0,1,.45,1,1s-.45,1-1,1H23c-.55,0-1-.45-1-1Z" fill-rule="evenodd" stroke-width="0"/><path d="m22,62c0-.55.45-1,1-1h49c.55,0,1,.45,1,1s-.45,1-1,1H23c-.55,0-1-.45-1-1Z" fill-rule="evenodd" stroke-width="0"/><path d="m22,69c0-.55.45-1,1-1h49c.55,0,1,.45,1,1s-.45,1-1,1H23c-.55,0-1-.45-1-1Z" fill-rule="evenodd" stroke-width="0"/><path d="m75.66,30c-.16,0-.31-.02-.45-.06-.14-.04-.27-.1-.39-.19l-5.5-4.21c-.22-.17-.33-.38-.33-.64s.11-.47.33-.64.5-.25.84-.25.62.08.84.25l4.66,3.57,4.66-3.57c.22-.17.5-.25.84-.25s.62.08.84.25.33.38.33.64-.11.47-.33.64l-5.5,4.21c-.12.09-.25.16-.39.19-.14.04-.29.06-.45.06Z" stroke-width="0"/></svg>