<svg id="uuid-6646f11e-4c4d-4f1d-959b-f85a4b59db8e" xmlns="http://www.w3.org/2000/svg" viewBox="0 0 90 48"><rect x="7.38" y="5.23" width="75.25" height="9.16" rx="2" ry="2"/><path d="M65.04,8.65h6.98c.66,0,1.19.53,1.19,1.19s-.53,1.19-1.19,1.19h-6.98c-.66,0-1.2-.53-1.2-1.19s.54-1.19,1.2-1.19Z" class="sgmaincolor"/><path d="M41.51,8.65h6.98c.66,0,1.19.53,1.19,1.19s-.53,1.19-1.19,1.19h-6.98c-.66,0-1.19-.53-1.19-1.19s.53-1.19,1.19-1.19Z" class="sgmaincolor"/><path d="M17.97,8.65h6.98c.66,0,1.19.53,1.19,1.19s-.53,1.19-1.19,1.19h-6.98c-.66,0-1.19-.53-1.19-1.19s.53-1.19,1.19-1.19Z" class="sgmaincolor"/><rect x="7.38" y="16.58" width="75.25" height="26.08" rx="2" ry="2"/><path d="M65.04,24.14h6.98c.66,0,1.19.53,1.19,1.19s-.53,1.19-1.19,1.19h-6.98c-.66,0-1.2-.53-1.2-1.19s.54-1.19,1.2-1.19Z" class="sgmaincolor"/><path d="M65.04,32.33h6.98c.66,0,1.19.54,1.19,1.2s-.53,1.19-1.19,1.19h-6.98c-.66,0-1.2-.54-1.2-1.19s.54-1.2,1.2-1.2Z" class="sgmaincolor"/><path d="M41.51,24.14h6.98c.66,0,1.19.53,1.19,1.19s-.53,1.19-1.19,1.19h-6.98c-.66,0-1.19-.53-1.19-1.19s.53-1.19,1.19-1.19Z" class="sgmaincolor"/><path d="M41.51,32.33h6.98c.66,0,1.19.54,1.19,1.2s-.53,1.19-1.19,1.19h-6.98c-.66,0-1.19-.54-1.19-1.19s.53-1.2,1.19-1.2Z" class="sgmaincolor"/><path d="M17.97,24.14h6.98c.66,0,1.19.53,1.19,1.19s-.53,1.19-1.19,1.19h-6.98c-.66,0-1.19-.53-1.19-1.19s.53-1.19,1.19-1.19Z" class="sgmaincolor"/><path d="M17.97,32.33h6.98c.66,0,1.19.54,1.19,1.2s-.53,1.19-1.19,1.19h-6.98c-.66,0-1.19-.54-1.19-1.19s.53-1.2,1.19-1.2Z" class="sgmaincolor"/></svg>
