<?xml version="1.0" encoding="UTF-8"?><svg xmlns="http://www.w3.org/2000/svg" viewBox="0 0 96 96"><polygon class="sgmaincolor" points="27.321 52.179 33.094 60.122 40.307 64.45 43.202 61.564 54.755 61.564 59.806 57.956 67.402 57.956 67.421 57.945 67.421 34.256 46.909 22.411 26.395 34.256 26.395 52.179 27.321 52.179" stroke-width="0"/><path d="m45.03,40.28h-2.99v-4.81h8.38v22.06h-5.39v-17.25Zm50.41,31.96c.02.11.02.22,0,.34-.02.06-.03.12-.05.17-.05.12-.11.23-.2.32l-18.77,20.22h-.01c-.05.05-.1.09-.15.13-.06.04-.12.07-.18.1-.12.06-.26.08-.39.09h-.02c-.12,0-.24-.02-.36-.08-.06-.02-.12-.06-.18-.09h-.01c-.05-.03-.1-.08-.15-.12l-8.66-8.67c-.19-.19-.29-.44-.29-.71,0-.14.03-.26.08-.38.02-.06.05-.12.09-.18.03-.05.07-.1.12-.15h.01l1.18-1.17h-25.02c-.26,0-.5-.1-.69-.28l-13.72-12.99v-.01c-.07-.06-.13-.13-.17-.21l-9.39-15.88c-.18-.31-.18-.7,0-1.01.17-.31.51-.5.86-.5h6.03v-16.92c0-.36.19-.69.5-.87l20.51-11.85c.31-.17.69-.17,1,0l20.51,11.85c.31.18.5.51.5.87v22.69h3.65c.11,0,.23.02.33.06.06.02.12.05.18.08.05.02.1.05.14.09l10.84,8.81,2.24-2.25c.05-.04.1-.08.15-.12.39-.24.94-.2,1.27.12l7.94,7.94c.11.11.19.25.24.39.02.05.03.11.04.17ZM27.4,51.19c.29.02.56.16.73.4l5.66,7.78,6.36,3.82,2.34-2.33c.18-.19.44-.3.7-.3h11.23l4.8-3.42c.08-.06.18-.11.28-.14.09-.03.2-.05.3-.05h6.62v-22.12l-19.51-11.26-19.51,11.26v16.36Zm42.1,28.87l12.64-12.64-10.41-8.46h-11.6l-4.79,3.42h-.01c-.17.12-.38.18-.58.18h-11.14l-2.01,2.01,1.08,1.62,1.06,1.59h16.07c.56,0,1,.45,1,1,0,.56-.44,1-1,1h-16.61c-.33,0-.65-.16-.83-.44l-1.1-1.65-1.66-2.49-7.03-4.22c-.11-.07-.21-.17-.29-.27l-.65-.89-4.24-5.83-.59-.81h-5.68l8.42,14.25,13.33,12.63h26.62Zm23.57-7.64l-6.55-6.55-2.18,2.18-.07.07-13.58,13.58-.07.06-2.18,2.18,7.22,7.22,17.41-18.74Z" stroke-width="0"/></svg>