<svg id="uuid-4ba4a464-db00-40f6-a1c8-61e42b7e57c9" xmlns="http://www.w3.org/2000/svg" viewBox="0 0 90 48"><path d="M82,0H8C3.6,0,0,3.6,0,8v8.77h90v-8.77C90,3.6,86.4,0,82,0Z"/><path d="M12.24,13.67c-2,0-3.63-1.63-3.63-3.63s1.63-3.64,3.63-3.64,3.64,1.63,3.64,3.64-1.63,3.63-3.64,3.63Z" class="sgmaincolor"/><path d="M36.8,11.13h-6.98c-.66,0-1.19-.53-1.19-1.19s.53-1.19,1.19-1.19h6.98c.66,0,1.19.53,1.19,1.19s-.53,1.19-1.19,1.19Z" class="sgmaincolor"/><path d="M48.49,11.13h-6.98c-.66,0-1.19-.53-1.19-1.19s.53-1.19,1.19-1.19h6.98c.66,0,1.19.53,1.19,1.19s-.53,1.19-1.19,1.19Z" class="sgmaincolor"/><path d="M60.17,11.13h-6.98c-.65,0-1.19-.53-1.19-1.19s.54-1.19,1.19-1.19h6.98c.66,0,1.2.53,1.2,1.19s-.54,1.19-1.2,1.19Z" class="sgmaincolor"/><path d="M81.02,12.87l-.4.4c-.2.19-.52.19-.71,0l-1.47-1.47c-.38.18-.8.29-1.24.29-1.61,0-2.91-1.3-2.91-2.9s1.3-2.91,2.91-2.91,2.9,1.3,2.9,2.91c0,.58-.17,1.13-.47,1.58l1.39,1.39c.19.2.19.51,0,.71Z" class="sgmaincolor"/></svg>
