<svg id="uuid-d2c4d7f3-4f68-4864-aad5-6c8830447883" xmlns="http://www.w3.org/2000/svg" viewBox="0 0 90.25 48.25"><rect x="31.53" y="10.53" width="27.19" height="27.19" rx="5.5" ry="5.5" fill="#fff" opacity="0"/><path d="M53.22,9.53h-16.18c-3.59,0-6.5,2.92-6.5,6.5v16.19c0,3.58,2.91,6.5,6.5,6.5h16.18c3.59,0,6.5-2.92,6.5-6.5v-16.19c0-3.58-2.91-6.5-6.5-6.5ZM58.72,32.22c0,3.03-2.47,5.5-5.5,5.5h-16.18c-3.04,0-5.5-2.47-5.5-5.5v-16.19c0-3.03,2.46-5.5,5.5-5.5h16.18c3.03,0,5.5,2.47,5.5,5.5v16.19Z" class="sgmaincolor"/></svg>
