<svg id="uuid-975643f3-831f-476e-bb2e-50ecbf005c9d" xmlns="http://www.w3.org/2000/svg" viewBox="0 0 90.25 48.25"><rect x=".13" y=".12" width="90" height="48" class="sgmaincolor" opacity="0"/><path d="M8.85,7.58h72.41c.66,0,1.19.53,1.19,1.19s-.53,1.19-1.19,1.19H8.85c-.66,0-1.19-.53-1.19-1.19s.53-1.19,1.19-1.19Z" class="sgmaincolor" opacity="0"/><path d="M8.85,13.39h51.28c.66,0,1.19.53,1.19,1.19s-.53,1.19-1.19,1.19H8.85c-.66,0-1.19-.53-1.19-1.19s.53-1.19,1.19-1.19Z" class="sgmaincolor" opacity="0"/><path d="M80.35,19.4H9.66c-1.11,0-2,.89-2,2v19.53c0,1.1.89,2,2,2h70.69c1.1,0,2-.9,2-2v-19.53c0-1.11-.9-2-2-2ZM50.33,22.47c1.26,0,2.28,1.02,2.28,2.28s-1.02,2.27-2.28,2.27-2.27-1.02-2.27-2.27,1.02-2.28,2.27-2.28ZM53.94,38.06h-18.16c-.23,0-.37-.26-.25-.45l6.15-9.69c.11-.18.37-.19.49-.02l3.92,5.39c.11.15.32.16.45.04l1.67-1.65c.11-.12.31-.12.42.01l5.52,5.87c.18.19.05.5-.21.5Z" class="sgmaincolor" opacity="0"/><path d="M8.85,9.97h72.41c.66,0,1.19-.53,1.19-1.19s-.53-1.19-1.19-1.19H8.85c-.66,0-1.19.53-1.19,1.19s.53,1.19,1.19,1.19Z" class="sgmaincolor"/><path d="M8.85,15.77h51.28c.66,0,1.19-.53,1.19-1.19s-.53-1.19-1.19-1.19H8.85c-.66,0-1.19.53-1.19,1.19s.53,1.19,1.19,1.19Z" class="sgmaincolor"/><path d="M80.35,19.4H9.66c-1.11,0-2,.89-2,2v19.53c0,1.1.89,2,2,2h70.69c1.1,0,2-.9,2-2v-19.53c0-1.11-.9-2-2-2Z"/><path d="M50.33,22.47c1.26,0,2.28,1.02,2.28,2.28s-1.02,2.27-2.28,2.27-2.27-1.02-2.27-2.27,1.02-2.28,2.27-2.28Z" class="sgmaincolor"/><path d="M53.94,38.06h-18.16c-.23,0-.37-.26-.25-.45l6.15-9.69c.11-.18.37-.19.49-.02l3.92,5.39c.11.15.32.16.45.04l1.67-1.65c.11-.12.31-.12.42.01l5.52,5.87c.18.19.05.5-.21.5Z" class="sgmaincolor"/></svg>
