<?xml version="1.0" encoding="UTF-8"?><svg xmlns="http://www.w3.org/2000/svg" xmlns:xlink="http://www.w3.org/1999/xlink" viewBox="0 0 64 64"><rect width="64" height="64" fill="#fff" opacity="0" stroke-width="0"/><path d="m49.41,11.33s-35.53,3.79-35.55,3.81c-.01,0-12.54,13.77-12.54,13.77l6.54-.59.07,18.6c.43.13,20.71,6.25,20.71,6.25.06.02,26.27-6.22,26.71-6.32l.04-16.94,7.24-.94s-13.18-17.61-13.22-17.63Z" class="sgmaincolor" stroke-width="0"/><path d="m28.65,53.82c-.06,0-.13,0-.19-.03l-20.71-6.24c-.28-.08-.47-.34-.47-.64l-.07-18.61c0-.37.3-.67.66-.67h0c.37,0,.67.3.67.66l.07,18.11,20.06,6.05,26.03-6.16.04-16.41c0-.37.3-.67.67-.67h0c.37,0,.67.3.67.67l-.04,16.94c0,.31-.21.58-.51.65l-26.71,6.32c-.05.01-.1.02-.15.02Z" stroke-width="0"/><path d="m28.65,53.82c-.37,0-.67-.3-.67-.67v-19.64c0-.37.3-.67.67-.67s.67.3.67.67v19.64c0,.37-.3.67-.67.67Z" stroke-width="0"/><path d="m27.98,34.27c-.33,0-.61-.24-.66-.58-.05-.37.21-.7.57-.75l34.65-4.66c.37-.05.7.21.75.57.05.36-.21.7-.57.75l-34.65,4.66s-.06,0-.09,0Z" stroke-width="0"/><path d="m27.98,34.27c-.2,0-.4-.09-.53-.26L13.34,15.54c-.22-.29-.17-.71.12-.93.29-.22.71-.17.93.12l14.11,18.47c.22.29.17.71-.12.93-.12.09-.26.14-.4.14Z" stroke-width="0"/><path d="m1.33,29.57c-.16,0-.32-.06-.45-.17-.27-.25-.29-.67-.04-.94l12.54-13.77c.25-.27.67-.29.94-.04.27.25.29.67.04.94L1.83,29.35c-.13.14-.31.22-.49.22Z" stroke-width="0"/><path d="m13.87,15.8c-.34,0-.63-.25-.66-.6-.04-.37.23-.69.59-.73l35.54-3.81c.38-.04.69.23.73.59.04.37-.23.69-.59.73l-35.54,3.81s-.05,0-.07,0Z" stroke-width="0"/><path d="m62.63,29.62c-.2,0-.4-.09-.53-.27l-13.09-17.46c-.22-.29-.16-.71.13-.93.3-.22.71-.16.93.13l13.09,17.46c.22.29.16.71-.13.93-.12.09-.26.13-.4.13Z" stroke-width="0"/><path d="m1.33,29.57c-.34,0-.63-.26-.66-.61-.03-.37.24-.69.6-.73l6.54-.6c.37-.03.69.24.73.6.03.37-.24.69-.6.73l-6.54.6s-.04,0-.06,0Z" stroke-width="0"/><path d="m7.87,28.97c-.15,0-.3-.05-.42-.15-.28-.23-.33-.65-.09-.94l8.33-10.12c.23-.29.65-.33.94-.09.28.23.33.65.09.94l-8.33,10.12c-.13.16-.32.24-.52.24Z" stroke-width="0"/><path d="m26.36,32.15s-.04,0-.06,0l-13.67-1.29c-.37-.03-.64-.36-.6-.73.03-.37.36-.64.73-.6l13.67,1.29c.37.03.64.36.6.73-.03.35-.32.6-.66.6Z" stroke-width="0"/><path d="m12.75,48.84c-.37,0-.67-.3-.67-.67l-.06-17.98c0-.37.3-.67.66-.67h0c.37,0,.67.3.67.66l.06,17.98c0,.37-.3.67-.66.67h0Z" stroke-width="0"/><path d="m19.97,51.21h0c-.37,0-.67-.3-.67-.67v-19.66c0-.37.31-.67.67-.67h0c.37,0,.67.3.67.67v19.66c0,.37-.31.67-.67.67Z" stroke-width="0"/></svg>