<svg id="uuid-a1c3e0fe-da24-4092-857a-5345da9d343a" xmlns="http://www.w3.org/2000/svg" viewBox="0 0 90 48"><path d="M82.41,11.05c0-.66-.53-1.19-1.19-1.19h-30.36c-.66,0-1.19.53-1.19,1.19s.53,1.19,1.19,1.19h30.36c.66,0,1.19-.53,1.19-1.19Z" class="sgmaincolor"/><path d="M71.97,19.26c.66,0,1.19-.53,1.19-1.19s-.53-1.19-1.19-1.19h-21.11c-.66,0-1.19.53-1.19,1.19s.53,1.19,1.19,1.19h21.11Z" class="sgmaincolor"/><rect x="7.62" y="9.81" width="37.35" height="11.84" rx="1" ry="1"/><path d="M42.37,15.52l-1.64,1.76c-.1.11-.26.11-.36,0l-1.64-1.76c-.15-.16-.04-.42.18-.42h3.28c.22,0,.33.26.18.42Z" class="sgmaincolor"/><rect x="7.62" y="26.24" width="37.35" height="11.91" rx="1" ry="1"/><path d="M42.37,31.99l-1.64,1.76c-.1.1-.26.1-.36,0l-1.64-1.76c-.15-.16-.04-.43.18-.43h3.28c.22,0,.33.27.18.43Z" class="sgmaincolor"/></svg>
