<svg id="uuid-eb115a6a-ea51-4fec-b106-efbac6eb6cb6" xmlns="http://www.w3.org/2000/svg" viewBox="0 0 90 48"><rect x="0" y="0" width="90" height="48" rx="8" ry="8"/><path d="M61.39,38.07h-9.44c-1.26,0-2.28-1.02-2.28-2.27s1.02-2.27,2.28-2.27h9.44c1.26,0,2.28,1.01,2.28,2.27s-1.02,2.27-2.28,2.27Z" class="sgmaincolor"/><path d="M72,26.57h-21.14c-.65,0-1.19-.54-1.19-1.2s.54-1.19,1.19-1.19h21.14c.66,0,1.19.54,1.19,1.19s-.53,1.2-1.19,1.2Z" class="sgmaincolor"/><path d="M81.14,19.43h-30.28c-.65,0-1.19-.54-1.19-1.19s.54-1.2,1.19-1.2h30.28c.65,0,1.19.54,1.19,1.2s-.54,1.19-1.19,1.19Z" class="sgmaincolor"/><path d="M81.14,12.29h-30.28c-.65,0-1.19-.53-1.19-1.19s.54-1.19,1.19-1.19h30.28c.65,0,1.19.53,1.19,1.19s-.54,1.19-1.19,1.19Z" class="sgmaincolor"/></svg>
