<?xml version="1.0" encoding="UTF-8"?><svg id="uuid-ca17afa1-66de-426b-bc61-9077fae5dc50" xmlns="http://www.w3.org/2000/svg" viewBox="0 0 64 64"><rect x="0" width="64" height="64" fill="#fff" opacity="0" stroke-width="0"/><path d="M2.65,36.46l7.17-1.95,2.61,4.55,3.26-5.85,17.61,1.95,6.52-1.95,4.57,9.1,3.26-5.85,13.7,15.6-10.43,3.9-20.87-2.6-9.78,3.9L2.65,36.46Z" class="sgmaincolor" stroke-width="0"/><path d="M12.43,24.17c-.64,0-1.28-.19-1.81-.55-.54-.36-.95-.86-1.2-1.46-.25-.59-.31-1.25-.19-1.88.13-.63.44-1.21.89-1.66.46-.45,1.04-.76,1.67-.89.63-.13,1.29-.06,1.88.18.6.25,1.11.66,1.46,1.2.36.53.55,1.16.55,1.81,0,.86-.34,1.69-.96,2.3-.61.61-1.44.95-2.3.95ZM12.43,18.97c-.39,0-.77.11-1.09.33-.32.21-.57.52-.72.88-.15.36-.19.75-.11,1.13.08.38.26.73.54,1,.27.27.62.46,1,.53.38.08.77.04,1.13-.11.36-.15.66-.4.88-.72.22-.32.33-.7.33-1.08,0-.52-.21-1.01-.57-1.38-.37-.37-.86-.57-1.38-.57Z" fill="#000" stroke-width="0"/><path d="M61.84,51.64l-13.52-15.4,7.74-14.72c.05-.09.07-.2.07-.3v-7.33c0-.17-.07-.33-.18-.45l-7.14-7.33c-.06-.06-.13-.11-.21-.14-.08-.03-.17-.05-.25-.05h-7.15c-.09,0-.17.02-.25.05-.08.03-.15.08-.21.14l-7.14,7.33c-.12.12-.19.29-.18.45v7.33c0,.1.02.2.07.29l5.53,11.28-5.75,1.72-16.49-1.83,4.73-8.45c.05-.1.08-.21.08-.32v-5.75c0-.17-.07-.33-.19-.45l-5.65-5.75c-.06-.06-.13-.11-.21-.14-.08-.03-.17-.05-.25-.05h-5.65c-.09,0-.17.02-.25.05-.08.03-.15.08-.21.14l-5.65,5.75c-.12.12-.19.28-.19.45v5.75c0,.11.03.22.08.32l5.52,9.87-6.43,1.75c-.11.03-.2.08-.28.16-.08.08-.14.17-.17.27-.03.1-.04.22-.02.32.02.11.07.21.14.29l17.61,20.8c.06.07.14.13.22.17.09.04.18.06.27.06.08,0,.16-.01.23-.04l10.28-3.84,20.06,2.58h.06s.02,0,.02,0,.02,0,.03,0c.06,0,.12-.01.18-.03,0,0,.01,0,.02,0h0l10.43-3.9c.1-.04.19-.1.26-.18.07-.08.12-.17.15-.27.03-.1.03-.21,0-.31-.02-.1-.07-.2-.14-.28h0ZM34.7,14.16l6.77-6.94h6.59l6.77,6.94v6.9l-10.41,19.82-9.72-19.81v-6.91ZM32.79,35.76l16.53,19.34-18.29-2.35-15.24-18.36.27-.49,16.73,1.85ZM4.61,18.43l5.27-5.36h5.11l5.27,5.36v5.31l-5.1,9.12s-.03.06-.05.09l-2.68,4.78-7.83-13.99v-5.31ZM20.46,56.49L3.81,36.82l5.75-1.56,2.3,4.12c.06.1.14.19.24.24.1.06.21.09.33.09s.23-.03.33-.09c.1-.06.18-.14.24-.24l2.11-3.77,14.5,17.46-9.15,3.42ZM51.12,55.19l-16.8-19.65,5.26-1.57,4.23,8.63c.05.11.13.2.24.26.1.06.22.1.34.1h.01c.12,0,.24-.03.34-.09.1-.06.18-.15.24-.25l2.7-5.14,12.57,14.31-9.12,3.41Z" fill="#000" stroke-width="0"/><path d="M44.76,22.16c-.9,0-1.79-.27-2.54-.77-.75-.5-1.34-1.21-1.68-2.04-.35-.83-.44-1.75-.26-2.63.18-.88.61-1.69,1.25-2.33.64-.64,1.45-1.07,2.34-1.25.89-.18,1.8-.09,2.64.26.83.34,1.55.93,2.05,1.68.5.75.77,1.63.77,2.53,0,1.21-.48,2.36-1.34,3.22-.86.85-2.02,1.33-3.23,1.33ZM44.76,14.36c-.65,0-1.28.19-1.81.55-.54.36-.95.86-1.2,1.46-.25.59-.31,1.25-.19,1.88.13.63.44,1.21.89,1.66.46.45,1.04.76,1.67.89.63.13,1.29.06,1.88-.18.6-.25,1.11-.66,1.46-1.2s.55-1.16.55-1.81c0-.86-.34-1.69-.96-2.3-.61-.61-1.44-.95-2.3-.95Z" fill="#000" stroke-width="0"/></svg>
