<svg id="uuid-23e7d571-bc69-447b-91b1-7bcda73a89a2" xmlns="http://www.w3.org/2000/svg" viewBox="0 0 90 48"><path d="M22.81,12.24h16.33c.66,0,1.19-.53,1.19-1.19s-.53-1.19-1.19-1.19h-16.33c-.66,0-1.19.53-1.19,1.19s.53,1.19,1.19,1.19Z" class="sgmaincolor"/><path d="M22.81,19.26h11.04c.66,0,1.19-.53,1.19-1.19s-.53-1.19-1.19-1.19h-11.04c-.66,0-1.19.53-1.19,1.19s.53,1.19,1.19,1.19Z" class="sgmaincolor"/><rect x="45.03" y="9.81" width="23.35" height="11.84" rx="1" ry="1"/><path d="M62.07,15.1h3.27c.22,0,.34.26.19.42l-1.64,1.76c-.1.11-.27.11-.37,0l-1.64-1.76c-.15-.16-.03-.42.19-.42Z" class="sgmaincolor"/><rect x="45.03" y="26.24" width="23.35" height="11.91" rx="1" ry="1"/><path d="M62.07,31.56h3.27c.22,0,.34.27.19.43l-1.64,1.76c-.1.1-.27.1-.37,0l-1.64-1.76c-.15-.16-.03-.43.19-.43Z" class="sgmaincolor"/></svg>
