<svg id="uuid-1af137e4-f58e-4d2f-a552-27510c7e4599" xmlns="http://www.w3.org/2000/svg" viewBox="0 0 90 48"><path d="M8.79,12.24h30.36c.66,0,1.19-.53,1.19-1.19s-.53-1.19-1.19-1.19H8.79c-.66,0-1.19.53-1.19,1.19s.53,1.19,1.19,1.19Z" class="sgmaincolor"/><path d="M8.79,19.26h21.11c.66,0,1.19-.53,1.19-1.19s-.53-1.19-1.19-1.19H8.79c-.66,0-1.19.53-1.19,1.19s.53,1.19,1.19,1.19Z" class="sgmaincolor"/><rect x="45.03" y="9.81" width="37.35" height="11.84" rx="1" ry="1"/><path d="M76.31,15.1h3.28c.22,0,.33.26.18.42l-1.64,1.76c-.1.11-.26.11-.36,0l-1.64-1.76c-.15-.16-.04-.42.18-.42Z" class="sgmaincolor"/><rect x="45.03" y="26.24" width="37.35" height="11.91" rx="1" ry="1"/><path d="M76.31,31.56h3.28c.22,0,.33.27.18.43l-1.64,1.76c-.1.1-.26.1-.36,0l-1.64-1.76c-.15-.16-.04-.43.18-.43Z" class="sgmaincolor"/></svg>
