<svg id="uuid-2cf113cd-b64d-43a2-acf3-76664fcd09bc" xmlns="http://www.w3.org/2000/svg" viewBox="0 0 90 48"><rect x="26.32" y="9.81" width="37.35" height="11.84" rx="1" ry="1"/><path d="M61.07,15.52l-1.64,1.76c-.1.11-.27.11-.37,0l-1.64-1.76c-.15-.16-.03-.42.19-.42h3.27c.22,0,.34.26.19.42Z" class="sgmaincolor"/><rect x="26.32" y="26.24" width="37.35" height="11.91" rx="1" ry="1"/><path d="M61.07,31.99l-1.64,1.76c-.1.1-.27.1-.37,0l-1.64-1.76c-.15-.16-.03-.43.19-.43h3.27c.22,0,.34.27.19.43Z" class="sgmaincolor"/></svg>
