<svg xmlns="http://www.w3.org/2000/svg" viewBox="0 0 96 96"><polygon points="55.9 2 12.8 2 12.8 94 38.5 94 83.2 94 83.2 58 83.2 28.7 55.9 2" class="sgmaincolor"/><path d="M56.3,1H11.8v94h72.4V28.3L56.3,1ZM56.9,4.4l23.8,23.3h-23.8s0-23.3,0-23.3ZM82.2,93H13.8V3h41.1v26.7h27.3v63.3Z"/><path d="M71,45.7H25c-.5,0-1-.5-1-1s.5-1,1-1h46c.6,0,1,.5,1,1s-.4,1-1,1h0Z"/><path d="M71,56.7H25c-.5,0-1-.5-1-1s.5-1,1-1h46c.6,0,1,.5,1,1s-.4,1-1,1h0Z"/><path d="M71,67.6H25c-.5,0-1-.4-1-1s.5-1,1-1h46c.6,0,1,.4,1,1s-.4,1-1,1h0Z"/></svg>