<svg xmlns="http://www.w3.org/2000/svg" viewBox="0 0 90 48"><g id="uuid-94cd88bb-ba7a-404c-982a-481720bdf277"><path d="M38.57,11.94H9.43c-.96,0-1.74.74-1.74,1.64v27.59c0,.91.78,1.64,1.74,1.64h29.15c.96,0,1.74-.74,1.74-1.64V13.58c0-.91-.78-1.64-1.74-1.64Z"/><path d="M24,33.25c-.13,0-.26-.02-.37-.07-.11-.05-.23-.12-.35-.21-.36-.32-.81-.75-1.36-1.31-.54-.55-1.07-1.17-1.59-1.86-.51-.69-.95-1.42-1.31-2.21-.36-.78-.54-1.57-.54-2.36,0-1.59.51-2.94,1.54-4.07,1.03-1.13,2.35-1.69,3.97-1.69s2.93.56,3.96,1.69c1.03,1.13,1.55,2.49,1.55,4.07,0,.79-.18,1.58-.55,2.37-.36.79-.8,1.53-1.31,2.22-.51.69-1.03,1.3-1.57,1.85-.54.54-.99.97-1.36,1.29-.12.1-.23.17-.35.22-.12.05-.24.07-.38.07ZM24,26.43c.34,0,.62-.12.85-.36.23-.24.35-.54.35-.89s-.12-.64-.35-.88c-.23-.24-.52-.36-.86-.36s-.62.12-.85.36-.35.54-.35.89.12.64.35.88c.23.24.52.36.86.36Z" class="sgmaincolor"/><path d="M80.57,11.94h-29.21c-.96,0-1.74.74-1.74,1.64v27.59c0,.91.78,1.64,1.74,1.64h29.21c.96,0,1.74-.74,1.74-1.64V13.58c0-.91-.78-1.64-1.74-1.64Z"/><path d="M76.84,16.5h-21.74c-.45,0-.82.27-.82.6v1.61c0,.33.37.6.82.6h21.74c.45,0,.82-.27.82-.6v-1.61c0-.33-.37-.6-.82-.6Z" class="sgmaincolor"/><path d="M76.81,22.81h-21.74c-.45,0-.82.36-.82.81v13.57c0,.45.37.81.82.81h21.74c.45,0,.82-.36.82-.81v-13.57c0-.45-.37-.81-.82-.81Z" class="sgmaincolor"/><path d="M60.42,5.19h-30.54c-.66,0-1.19.53-1.19,1.19s.53,1.19,1.19,1.19h30.54c.66,0,1.19-.53,1.19-1.19s-.53-1.19-1.19-1.19Z"/></g></svg>