<?xml version="1.0" encoding="UTF-8"?><svg id="uuid-1ca24904-01e4-4ec0-a49e-182c5e93d7fd" xmlns="http://www.w3.org/2000/svg" xmlns:xlink="http://www.w3.org/1999/xlink" viewBox="0 0 64 64"><defs><clipPath id="uuid-e2dee5e6-51ef-45bd-b3ec-54f685e14da7"><rect x="7.33" y=".66" width="49.77" height="62.15" fill="none" stroke-width="0"/></clipPath></defs><rect x="0" width="64" height="64" fill="#fff" opacity="0" stroke-width="0"/><g clip-path="url(#uuid-e2dee5e6-51ef-45bd-b3ec-54f685e14da7)"><path d="M8,8.55l4.29,27.49,20.33,26.09,20.32-26.09,3.49-27.49L32.62,1.31l-24.62,7.23Z" class="sgmaincolor" stroke-width="0"/><path d="M52.94,36.71c-.12,0-.24-.03-.35-.1l-8.38-5.27c-.31-.2-.41-.61-.21-.92.2-.31.61-.41.92-.21l8.38,5.27c.31.2.41.61.21.92-.13.2-.34.31-.57.31Z" fill="#000" stroke-width="0"/><path d="M21.67,18.27c-.13,0-.25-.04-.37-.11L7.63,9.1c-.31-.2-.39-.62-.19-.92.2-.31.62-.39.92-.19l13.67,9.06c.31.2.39.62.19.92-.13.19-.34.3-.56.3Z" fill="#000" stroke-width="0"/><path d="M12.29,36.71c-.22,0-.44-.11-.56-.31-.2-.31-.1-.72.21-.92l8.39-5.27c.31-.2.72-.1.92.21.2.31.1.72-.21.92l-8.39,5.27c-.11.07-.23.1-.35.1Z" fill="#000" stroke-width="0"/><path d="M43.55,18.24c-.21,0-.42-.1-.55-.28-.21-.3-.14-.72.16-.93l12.89-9.03c.3-.21.72-.14.93.16.21.3.14.72-.16.93l-12.89,9.03c-.12.08-.25.12-.38.12Z" fill="#000" stroke-width="0"/><path d="M32.62,62.79c-.37,0-.67-.3-.67-.67v-24.05c0-.37.3-.67.67-.67s.67.3.67.67v24.05c0,.37-.3.67-.67.67Z" fill="#000" stroke-width="0"/><path d="M32.62,12.62c-.37,0-.67-.3-.67-.67V1.31c0-.37.3-.67.67-.67s.67.3.67.67v10.64c0,.37-.3.67-.67.67Z" fill="#000" stroke-width="0"/><path d="M32.62,62.79c-.21,0-.4-.09-.53-.26l-20.33-26.09c-.07-.09-.12-.2-.13-.31L7.34,8.65c-.05-.33.15-.65.47-.74L32.43.67c.12-.04.26-.04.38,0l23.81,7.23c.31.09.51.4.47.72l-3.49,27.49c-.01.12-.06.23-.13.33l-20.32,26.09c-.13.16-.32.26-.53.26ZM12.92,35.77l19.7,25.28,19.68-25.27,3.4-26.75-23.08-7.01-23.87,7.01,4.17,26.74Z" fill="#000" stroke-width="0"/><path d="M30.92,29.53c-.16,0-.33-.06-.46-.18-.27-.25-.28-.67-.03-.94l7.23-7.7c.25-.27.68-.28.94-.03.27.25.28.67.03.94l-7.23,7.7c-.13.14-.31.21-.49.21Z" fill="#000" stroke-width="0"/><path d="M30.92,29.53c-.17,0-.35-.07-.48-.2l-3.83-3.96c-.26-.26-.25-.69.02-.94s.69-.25.94.02l3.83,3.96c.26.26.25.69-.02.94-.13.13-.3.19-.46.19Z" fill="#000" stroke-width="0"/><path d="M32.62,38.75c-7.7,0-13.96-6.16-13.96-13.73s6.26-13.73,13.96-13.73,13.96,6.16,13.96,13.73-6.26,13.73-13.96,13.73ZM32.62,12.63c-6.96,0-12.63,5.56-12.63,12.39s5.66,12.39,12.63,12.39,12.63-5.56,12.63-12.39-5.66-12.39-12.63-12.39Z" fill="#000" stroke-width="0"/></g></svg>
