<svg id="uuid-934da7e6-a7ef-49a7-b63e-ad62a339d0e0" xmlns="http://www.w3.org/2000/svg" viewBox="0 0 90 48"><circle cx="12.25" cy="10.04" r="3.63" class="sgmaincolor"/><rect x="74.61" y="9.72" width="7.27" height="1.57" rx=".5" ry=".5" transform="translate(30.34 -52.25) rotate(45)" class="sgmaincolor"/><circle cx="77.2" cy="9.19" r="2.91" class="sgmaincolor"/><path d="M89.88,22.05H.12v-13.83C.12,3.83,3.71.24,8.1.24h73.8c4.39,0,7.98,3.59,7.98,7.98v13.83Z"/><rect x="49.27" y="17.25" width="8.69" height="2.21" rx=".87" ry=".87" class="sgmaincolor"/><rect x="27.59" y="17.25" width="8.69" height="2.21" rx=".87" ry=".87" class="sgmaincolor"/><rect x="38.43" y="17.25" width="8.69" height="2.21" rx=".87" ry=".87" class="sgmaincolor"/><rect x="16.77" y="5.91" width="58.51" height="7.25" rx="1.12" ry="1.12" class="sgmaincolor"/><path d="M22.58,11.95l-1.41-1.41c-.11.09-.24.16-.39.21s-.3.08-.47.08c-.41,0-.75-.14-1.03-.42s-.42-.63-.42-1.03.14-.75.42-1.03.63-.42,1.03-.42.75.14,1.03.42.42.63.42,1.03c0,.16-.03.32-.08.47s-.12.27-.21.39l1.41,1.41-.31.31ZM20.31,10.38c.28,0,.52-.1.71-.29s.29-.43.29-.71-.1-.52-.29-.71-.43-.29-.71-.29-.52.1-.71.29-.29.43-.29.71.1.52.29.71.43.29.71.29Z"/><circle cx="9.63" cy="10.09" r="3.62" class="sgmaincolor"/><path d="M79.78,12.46c-.16,0-.31-.06-.42-.18s-.18-.26-.18-.42v-3.59c0-.16.06-.31.18-.42s.26-.18.42-.18h.6c0-.33.12-.61.35-.85s.52-.35.85-.35.61.12.85.35.35.52.35.85h.6c.16,0,.31.06.42.18s.18.26.18.42v3.59c0,.16-.06.31-.18.42s-.26.18-.42.18h-3.59ZM79.78,11.86h3.59v-3.59h-.6v.6c0,.08-.03.16-.09.21s-.13.09-.21.09-.16-.03-.21-.09-.09-.13-.09-.21v-.6h-1.2v.6c0,.08-.03.16-.09.21s-.13.09-.21.09-.16-.03-.21-.09-.09-.13-.09-.21v-.6h-.6v3.59ZM80.98,7.67h1.2c0-.16-.06-.31-.18-.42s-.26-.18-.42-.18-.31.06-.42.18-.18.26-.18.42ZM79.78,11.86v-3.59,3.59Z" class="sgmaincolor"/></svg>