<svg id="uuid-16d413e5-842d-438b-8007-c9f627ddbb3e" xmlns="http://www.w3.org/2000/svg" viewBox="0 0 90.25 48.25"><path d="M11.26,28.06c.2.2.45.29.71.29s.51-.1.71-.29c.39-.39.39-1.02,0-1.41l-2.59-2.59,2.59-2.59c.39-.39.39-1.02,0-1.41s-1.02-.39-1.41,0l-3.29,3.29c-.39.39-.39,1.02,0,1.41l3.29,3.29Z" class="sgmaincolor"/><path d="M77.58,28.06c.2.2.45.29.71.29s.51-.1.71-.29l3.29-3.29c.39-.39.39-1.02,0-1.41l-3.29-3.29c-.39-.39-1.02-.39-1.41,0s-.39,1.02,0,1.41l2.59,2.59-2.59,2.59c-.39.39-.39,1.02,0,1.41Z" class="sgmaincolor"/><circle cx="45.12" cy="40.14" r="2.04" class="sgmaincolor"/><circle cx="54.12" cy="40.14" r="2.04" class="sgmaincolor"/><circle cx="36.13" cy="40.14" r="2.04" class="sgmaincolor"/></svg>
