<svg id="uuid-bb21a0fe-a6ae-4b37-80f5-71368862b3d0" xmlns="http://www.w3.org/2000/svg" viewBox="0 0 90 48"><rect x="0" y="0" width="90" height="48" rx="8" ry="8"/><path d="M19.39,38.06h-9.45c-1.25,0-2.27-1.02-2.27-2.27s1.02-2.28,2.27-2.28h9.45c1.26,0,2.27,1.02,2.27,2.28s-1.01,2.27-2.27,2.27Z" class="sgmaincolor"/><path d="M30,26.57H8.86c-.66,0-1.19-.54-1.19-1.2s.53-1.19,1.19-1.19h21.14c.66,0,1.19.54,1.19,1.19s-.53,1.2-1.19,1.2Z" class="sgmaincolor"/><path d="M39.13,19.42H8.86c-.66,0-1.19-.54-1.19-1.2s.53-1.19,1.19-1.19h30.27c.66,0,1.2.54,1.2,1.19s-.54,1.2-1.2,1.2Z" class="sgmaincolor"/><path d="M39.13,12.28H8.86c-.66,0-1.19-.54-1.19-1.19s.53-1.2,1.19-1.2h30.27c.66,0,1.2.54,1.2,1.2s-.54,1.19-1.2,1.19Z" class="sgmaincolor"/></svg>
