<svg id="uuid-e6f9974a-23e8-446d-a37e-43e0fa491b88" xmlns="http://www.w3.org/2000/svg" viewBox="0 0 90 48"><rect x="0" y="0" width="90" height="48" rx="8" ry="8"/><path d="M49.72,37.9h-9.45c-1.25,0-2.27-1.02-2.27-2.28s1.02-2.27,2.27-2.27h9.45c1.25,0,2.27,1.02,2.27,2.27s-1.02,2.28-2.27,2.28Z" class="sgmaincolor"/><path d="M55.91,26.49h-21.83c-.65,0-1.19-.54-1.19-1.2s.54-1.19,1.19-1.19h21.83c.65,0,1.19.54,1.19,1.19s-.54,1.2-1.19,1.2Z" class="sgmaincolor"/><path d="M60.28,19.25h-30.55c-.66,0-1.19-.53-1.19-1.19s.53-1.19,1.19-1.19h30.55c.66,0,1.19.53,1.19,1.19s-.53,1.19-1.19,1.19Z" class="sgmaincolor"/><path d="M60.28,12.11h-30.55c-.66,0-1.19-.53-1.19-1.19s.53-1.19,1.19-1.19h30.55c.66,0,1.19.53,1.19,1.19s-.53,1.19-1.19,1.19Z" class="sgmaincolor"/></svg>
