<svg xmlns="http://www.w3.org/2000/svg" viewBox="0 0 96 96"><path d="m89.028,35.211c-2.381-7.597-6.538-14.005-12.4-19.313-5.713-5.173-12.441-8.456-19.931-10.071-2.791-.602-5.676-.917-8.567-.806h-.126c-9.783-.028-18.634,2.934-26.324,8.894-6.014,4.662-10.566,10.557-13.462,17.744-2.111,5.239-3.243,10.586-3.217,16.195.041,8.891,2.464,17.042,7.548,24.394,5.98,8.648,13.978,14.385,24.102,17.181,6.241,1.723,12.445,2.004,18.564.938l1.936,1.936h8.965l17.93-17.93-.392-2.353c4.129-6.054,6.574-12.808,7.188-20.128.472-5.635-.1-11.217-1.813-16.683Z" class="sgmaincolor"/><path d="m89.982,34.912c-2.402-7.663-6.669-14.31-12.682-19.754-5.687-5.149-12.547-8.617-20.392-10.307-3.049-.658-6.013-.938-8.816-.828-.008,0-.016,0-.024,0-.066-.004-.133-.001-.199-.002-9.99,0-19.007,3.062-26.801,9.104-6.232,4.831-10.868,10.941-13.777,18.162-2.239,5.557-3.315,10.978-3.29,16.572.042,9.21,2.642,17.607,7.725,24.958,6.106,8.83,14.403,14.744,24.659,17.576,3.87,1.068,7.758,1.603,11.646,1.603,2.279,0,4.556-.201,6.83-.569l1.584,1.584c.188.188.442.293.707.293h8.965c.265,0,.52-.105.707-.293l17.93-17.929c.229-.229.333-.553.279-.872l-.327-1.965c4.106-6.139,6.52-12.946,7.133-20.268.489-5.836-.135-11.578-1.855-17.066Zm-24.28,56.393h-8.137l-13.757-13.757v-2.758l1.207-1.207h2.758l7.775,7.775c.391.391,1.023.391,1.414,0,.195-.195.293-.451.293-.707s-.098-.512-.293-.707l-24.36-24.36v-2.758l1.207-1.207h2.758l16.292,16.292c.391.391,1.023.391,1.414,0s.391-1.023,0-1.414l-6.016-6.017,2.585-2.586h2.758l4.189,4.189c.391.391,1.023.391,1.414,0,.195-.195.293-.451.293-.707s-.098-.512-.293-.707l-3.775-3.775,2.586-2.586h2.758l4.638,4.638c.391.391,1.023.391,1.414,0,.195-.195.293-.451.293-.707s-.098-.512-.293-.707l-4.224-4.224,2.586-2.586h2.758l13.376,13.376,1.656,9.934-17.273,17.272ZM30.495,45.936c2.268,0,4.162,1.573,4.681,3.683h-1.781c-.265,0-.52.105-.707.293l-1.793,1.793c-.188.188-.293.442-.293.707v3.195c-.036,0-.071.007-.107.007-2.668,0-4.839-2.171-4.839-4.839s2.171-4.839,4.839-4.839Zm17.492-17.469c2.668,0,4.839,2.171,4.839,4.839s-2.171,4.839-4.839,4.839-4.839-2.171-4.839-4.839,2.171-4.839,4.839-4.839Zm17.519,7.193c2.668,0,4.839,2.171,4.839,4.839s-2.171,4.839-4.839,4.839-4.839-2.171-4.839-4.839,2.171-4.839,4.839-4.839Zm24.339,16.152c-.523,6.247-2.438,12.095-5.637,17.454l-.969-5.811c-.034-.206-.132-.395-.279-.542l-13.896-13.896c-.188-.188-.442-.293-.707-.293h-1.692v-1.49c3.22-.553,5.68-3.358,5.68-6.733s-2.46-6.18-5.68-6.733v-11.73c0-.39-.448-.706-1-.706s-1,.316-1,.706v11.681c-3.375.417-5.998,3.296-5.998,6.782s2.623,6.366,5.998,6.782v1.463c-.225.025-.439.11-.601.272l-3.293,3.293h-3.172c-.265,0-.52.105-.707.293l-3.293,3.293h-3.172c-.265,0-.52.105-.707.293l-.594.594v-16.74c3.229-.545,5.7-3.354,5.7-6.736s-2.47-6.191-5.7-6.736v-4.74c0-.276-.448-.5-1-.5s-1,.224-1,.5v4.697c-3.365.425-5.979,3.3-5.979,6.779s2.613,6.353,5.979,6.779v18.697l-.284.284-9.154-9.154c-.125-.125-.284-.197-.452-.242-.473-2.889-2.757-5.17-5.648-5.638v-21.87c0-.459-.448-.832-1-.832s-1,.372-1,.832v21.841c-3.343.446-5.933,3.309-5.933,6.772s2.59,6.326,5.933,6.772v15.476c0,.409.448.741,1,.741s1-.332,1-.741v-15.508c.035-.006.071-.005.106-.011l14.079,14.079h-1.172c-.265,0-.52.105-.707.293l-1.793,1.793c-.188.188-.293.442-.293.707v3.586c0,.265.105.52.293.707l10.993,10.993c-5.392.675-10.804.289-16.177-1.195-9.792-2.704-17.714-8.352-23.546-16.786-4.85-7.013-7.329-15.031-7.37-23.83-.024-5.33,1.004-10.504,3.145-15.816,2.774-6.887,7.198-12.717,13.147-17.328,7.436-5.764,16.039-8.685,25.576-8.685h.133c.022-.005.044,0,.065-.002.034.003.068.004.102,0,2.628-.098,5.432.162,8.318.785,7.496,1.616,14.047,4.924,19.47,9.834,5.746,5.203,9.823,11.552,12.117,18.871,1.642,5.239,2.238,10.723,1.771,16.3Z"/></svg>