<?xml version="1.0" encoding="UTF-8"?><svg xmlns="http://www.w3.org/2000/svg" viewBox="0 0 48 48"><rect width="48" height="48" fill="#fff" opacity="0" stroke-width="0"/><path d="m39.47,5.58c-1.79.02-3.52.65-4.91,1.78-1.39,1.13-2.37,2.7-2.76,4.46-.38-1.79-1.37-3.4-2.79-4.54-1.43-1.14-3.21-1.74-5.03-1.7-1.82-.04-3.6.56-5.03,1.7-1.43,1.14-2.42,2.75-2.79,4.54-.4-1.76-1.37-3.33-2.76-4.46-1.39-1.13-3.12-1.76-4.91-1.78-1.02-.06-2.04.09-3.01.43-.96.34-1.85.88-2.61,1.57-.76.69-1.37,1.53-1.8,2.46-.43.93-.67,1.94-.71,2.97.03,1.69.38,3.35,1.03,4.9l6.05,17.53c2.07,5.8,6.35,6.69,8.56,6.69,1.69.04,3.36-.43,4.78-1.36,1.42-.93,2.53-2.27,3.19-3.84.65,1.57,1.76,2.91,3.19,3.84,1.42.93,3.09,1.4,4.78,1.36,2.21,0,6.5-.89,8.56-6.69l6.2-17.53c0-.3.15-.45.15-.74.45-1.14.7-2.34.74-3.57.02-1.07-.18-2.14-.58-3.13-.4-.99-1-1.89-1.76-2.64-.76-.75-1.66-1.34-2.66-1.73-.99-.39-2.06-.57-3.12-.52Zm2.95,10.85l-6.2,17.53c-.74,2.08-1.92,3.72-4.28,3.72-.99,0-1.95-.35-2.73-.97-.78-.62-1.32-1.48-1.55-2.45l-3.69-11.74-3.69,11.74c-.24.96-.79,1.8-1.57,2.39-.78.59-1.74.9-2.71.87-2.36,0-3.54-1.49-4.28-3.57l-6.2-17.53c-.41-1.1-.66-2.25-.74-3.42,0-1.63,1.48-2.97,3.69-2.97.83,0,1.63.29,2.26.84.63.55,1.03,1.31,1.14,2.13l4.13,13.82h.15l4.13-13.52c.59-1.93,1.62-3.27,3.69-3.27s3.1,1.34,3.69,3.27l4.13,13.52h.15l4.13-13.82c.11-.83.51-1.59,1.14-2.13.63-.55,1.43-.85,2.26-.84.48-.04.97.02,1.43.18.46.16.87.42,1.22.76.35.34.62.75.8,1.2.18.45.26.94.24,1.43-.14.97-.39,1.91-.74,2.82Z" stroke-width="0"/></svg>