<?xml version="1.0" encoding="UTF-8"?><svg id="uuid-756ac00f-0551-438a-b94d-1b9db71373d5" xmlns="http://www.w3.org/2000/svg" xmlns:xlink="http://www.w3.org/1999/xlink" viewBox="0 0 64 64"><rect width="64" height="64" fill="#fff" opacity="0" stroke-width="0"/><path d="m57.83,33.87l-3.27-9.91h-10.92v-13.29H8.84v13.29h8.87c2.44,0,4.7,2.41,4.71,4.85v1.32c0,1.35,1.13,2.49,2.47,2.71.77.12,1.35.77,1.35,1.57,0,.55-.28,1.07-.77,1.38-.26.16-.62.45-.93.45h-12.97c-1.15-.01-2.09-1.11-2.73-2.15v14.44h8.87c0,2.65,2.15,4.78,4.79,4.77,2.63,0,4.76-2.15,4.76-4.77h21.84c0,2.65,2.15,4.78,4.79,4.77,2.63,0,4.76-2.15,4.76-4.77h4.09v-9.55l-4.91-5.11h-.01Z" class="sgmaincolor" stroke-width="0"/><path d="m53.87,53.96c-3,0-5.44-2.44-5.44-5.44s2.44-5.44,5.44-5.44,5.44,2.44,5.44,5.44-2.44,5.44-5.44,5.44Zm0-9.55c-2.26,0-4.11,1.84-4.11,4.11s1.84,4.11,4.11,4.11,4.11-1.84,4.11-4.11-1.84-4.11-4.11-4.11Z" stroke-width="0"/><path d="m22.49,53.96c-3,0-5.44-2.44-5.44-5.44s2.44-5.44,5.44-5.44,5.44,2.44,5.44,5.44-2.44,5.44-5.44,5.44Zm0-9.55c-2.26,0-4.11,1.84-4.11,4.11s1.84,4.11,4.11,4.11,4.11-1.84,4.11-4.11-1.84-4.11-4.11-4.11Z" stroke-width="0"/><path d="m62.75,49.19h-4.09c-.37,0-.67-.3-.67-.67s.3-.67.67-.67h3.43v-8.61l-4.58-4.58c-.07-.07-.13-.16-.16-.26l-3.25-9.78h-10.44c-.37,0-.67-.3-.67-.67s.3-.67.67-.67h10.92c.29,0,.54.18.63.46l3.36,10.09,4.67,4.66c.13.12.2.29.2.47v9.55c0,.37-.3.67-.67.67Z" stroke-width="0"/><path d="m57.97,34.86h-9.55c-.37,0-.67-.3-.67-.67s.3-.67.67-.67h9.55c.37,0,.67.3.67.67s-.3.67-.67.67Z" stroke-width="0"/><path d="m49.1,49.19h-5.46c-.37,0-.67-.3-.67-.67s.3-.67.67-.67h5.46c.37,0,.67.3.67.67s-.3.67-.67.67Z" stroke-width="0"/><path d="m24.54,36.91h-12.97c-2.4-.04-3.89-3.46-4.22-4.3-1.79-.71-2.75-2.9-3.1-3.89h-.03c-1.93,0-3.18-3.49-3.52-4.56-.06-.2-.03-.42.1-.6.13-.17.33-.27.54-.27h16.39c2.75,0,5.35,2.68,5.37,5.52v1.32c0,.98.84,1.88,1.91,2.05,1.08.17,1.87,1.08,1.91,2.21.03.9-.32,1.46-.62,1.78-.57.59-1.36.75-1.75.75Zm-15.64-4.1c.56,1.14,1.59,2.75,2.68,2.77h12.96c.09,0,.52-.06.79-.34.18-.19.26-.45.25-.8-.02-.49-.34-.87-.78-.94-1.72-.27-3.02-1.72-3.03-3.36v-1.32c-.01-2.11-2.01-4.19-4.04-4.19H2.28c.58,1.43,1.4,2.76,1.94,2.76h5.99c.37,0,.67.3.67.67s-.3.67-.67.67h-4.53c.46,1.11,1.34,2.62,2.56,2.76h5.38c.37,0,.67.29.67.66s-.3.67-.67.67h-4.71Z" stroke-width="0"/><path d="m17.71,49.19h-8.87c-.37,0-.67-.3-.67-.67v-14.33c0-.37.3-.67.67-.67s.67.3.67.67v13.66h8.21c.37,0,.67.3.67.67s-.3.67-.67.67Z" stroke-width="0"/><path d="m43.64,49.19h-16.38c-.37,0-.67-.3-.67-.67s.3-.67.67-.67h15.71V11.34H9.51v12.62c0,.37-.3.67-.67.67s-.67-.3-.67-.67v-13.29c0-.37.3-.67.67-.67h34.8c.37,0,.67.3.67.67v37.85c0,.37-.3.67-.67.67Z" stroke-width="0"/></svg>