<svg id="uuid-3b5298b6-5b2a-4c3c-9598-e144b23759db" xmlns="http://www.w3.org/2000/svg" viewBox="0 0 90 48"><path d="M82,0H8C3.6,0,0,3.6,0,8v32C0,44.4,3.6,48,8,48h74c4.4,0,8-3.6,8-8V8C90,3.6,86.4,0,82,0ZM61.4,38.07h-9.45c-1.26,0-2.27-1.02-2.27-2.27s1.02-2.27,2.27-2.27h9.45c1.26,0,2.27,1.02,2.27,2.27s-1.02,2.27-2.27,2.27ZM72.01,26.57h-21.14c-.66,0-1.19-.53-1.19-1.19s.53-1.19,1.19-1.19h21.14c.66,0,1.19.53,1.19,1.19s-.53,1.19-1.19,1.19ZM81.14,19.43h-30.27c-.66,0-1.19-.53-1.19-1.19s.53-1.19,1.19-1.19h30.27c.66,0,1.19.53,1.19,1.19s-.53,1.19-1.19,1.19ZM81.14,12.29h-30.27c-.66,0-1.19-.53-1.19-1.19s.53-1.19,1.19-1.19h30.27c.66,0,1.19.53,1.19,1.19s-.53,1.19-1.19,1.19Z"/><path d="M61.4,33.53h-9.45c-1.26,0-2.27,1.02-2.27,2.27s1.02,2.27,2.27,2.27h9.45c1.26,0,2.27-1.02,2.27-2.27s-1.02-2.27-2.27-2.27Z" fill="#fff"/><path d="M81.14,9.91h-30.27c-.66,0-1.19.53-1.19,1.19s.53,1.19,1.19,1.19h30.27c.66,0,1.19-.53,1.19-1.19s-.53-1.19-1.19-1.19Z" fill="#fff"/><path d="M81.14,17.04h-30.27c-.66,0-1.19.53-1.19,1.19s.53,1.19,1.19,1.19h30.27c.66,0,1.19-.53,1.19-1.19s-.53-1.19-1.19-1.19Z" fill="#fff"/><path d="M72.01,24.18h-21.14c-.66,0-1.19.53-1.19,1.19s.53,1.19,1.19,1.19h21.14c.66,0,1.19-.53,1.19-1.19s-.53-1.19-1.19-1.19Z" fill="#fff"/></svg>
