<svg viewBox="0 0 49 48" xmlns="http://www.w3.org/2000/svg">
<g id="icon">
<path id="3" opacity="0.1" d="M36.3333 15H12.3333C11.2287 15 10.3333 15.8954 10.3333 17V31C10.3333 32.1046 11.2287 33 12.3333 33H36.3333C37.4379 33 38.3333 32.1046 38.3333 31V17C38.3333 15.8954 37.4379 15 36.3333 15Z"/>
<path id="2" opacity="0.1" d="M35.0771 27.099C34.3125 25.7397 32.3554 25.7396 31.5908 27.0989L26.01 37.0194C25.26 38.3526 26.2235 40 27.7531 40H38.9138C40.4434 40 41.4068 38.3527 40.6569 37.0195L35.0771 27.099Z"/>
<path id="1" opacity="0.1" d="M14.3333 24C18.7516 24 22.3333 20.4183 22.3333 16C22.3333 11.5817 18.7516 8 14.3333 8C9.91503 8 6.33331 11.5817 6.33331 16C6.33331 20.4183 9.91503 24 14.3333 24Z"/>
</g>
</svg>
