<?xml version="1.0" encoding="UTF-8"?><svg xmlns="http://www.w3.org/2000/svg" viewBox="0 0 48 48"><rect width="48" height="48" fill="#fff" opacity="0"/><polygon points="5.77 27.4 5.3 27.4 5.3 26.62 5.77 27.4" class="sgmaincolor"/><path d="M5.3,3.9v17h.34l.16.22,3.19,4.47s.09.1.15.13l1.92,1.18.82.5h3.23l.7-.7h6.89c.1,0,.21-.03.29-.09l2.97-2.11h7.16l2.94,2.4.61.5h1.13V3.9H5.3ZM17.2,16.06l2.28,1.43.06.06c.15.15.36.17.54.1.07-.03.13-.07.18-.13.09-.06.16-.14.21-.24.46-1.12.95-2.28,1.34-3.35.42,1.09.87,2.19,1.45,3.23.03.25.24.44.49.44h.06c.09,0,.17-.03.25-.07l1.46-.88c.38-.19.67-.38,1.02-.64-.27,1.66-.55,3.37-.74,5.19q0,.18-.05.28s-.03.08-.04.12h-7.62c-.09-.74-.19-1.48-.4-2.29-.1-.55-.17-1.09-.25-1.63-.07-.54-.14-1.08-.24-1.62Z" class="sgmaincolor"/><path d="M11.06,26.9l.82.5h1.01l.46.29.35.21.5-.5h.91l.5-.5h-4.55ZM11.06,26.9l.82.5.81.5h1.91l.51-.5.5-.5h-4.55ZM11.06,26.9l.82.5h1.01l.46.29.35.21.5-.5h.91l.5-.5h-4.55ZM37.8,3.4H5.3c-.28,0-.5.22-.5.5v17h.84l.16.22V4.4h31.5v22.5h-1.24l.61.5.61.5h.52c.08,0,.16-.02.23-.05.15-.08.26-.24.27-.42V3.9c0-.28-.22-.5-.5-.5ZM11.06,26.9l.82.5h1.01l.46.29.35.21.5-.5h.91l.5-.5h-4.55ZM11.06,26.9l.82.5h1.01l.46.29.35.21.5-.5h.91l.5-.5h-4.55ZM5.77,27.4l-.47-.78-.5-.84v1.62c0,.28.22.5.5.5h.77l-.3-.5Z"/><circle cx="8.2" cy="6.9" r=".9"/><circle cx="11" cy="6.9" r=".9"/><circle cx="13.8" cy="6.9" r=".9"/><rect x="5" y="9.6" width="33.1" height="1"/><path d="M26.4,15.5c-.4.3-.7.5-1.1.7l-1.5.9c-.7-1.2-1.2-2.5-1.7-3.8-.4-.2-.6,0-.7.3-.4,1.1-.9,2.3-1.4,3.5-.07,0-.1.03-.1.1l-.1-.1-2.4-1.5c-.1-.1-.3-.1-.5,0-.2.1-.3.3-.2.5.2,1.1.3,2.2.5,3.3.2.8.3,1.5.4,2.3,0,.2.2.4.4.4h7.8c.2,0,.4-.2.4-.4.1-.2.1-.3.1-.5.2-1.9.5-3.7.8-5.5-.2-.3-.5-.4-.7-.2ZM25.8,21.2q0,.18-.05.28s-.03.08-.04.12h-7.62c-.09-.74-.19-1.48-.4-2.29-.1-.55-.17-1.09-.25-1.63-.07-.54-.14-1.08-.24-1.62l2.28,1.43.06.06c.15.15.36.17.54.1.07-.03.13-.07.18-.13.09-.06.16-.14.21-.24.46-1.12.95-2.28,1.34-3.35.42,1.09.87,2.19,1.45,3.23.03.25.24.44.49.44h.06c.09,0,.17-.03.25-.07l1.46-.88c.38-.19.67-.38,1.02-.64-.27,1.66-.55,3.37-.74,5.19Z" fill="#fff"/><path d="M27.52,15.42c-.2-.3-.49-.49-.79-.52-.26-.03-.5.06-.63.2-.36.27-.64.46-1.06.67l-1.06.63c-.55-1.04-.99-2.18-1.41-3.28-.05-.12-.14-.21-.25-.27-.37-.19-.66-.14-.84-.07-.18.08-.42.25-.55.65-.35.95-.77,1.99-1.21,3.03l-2.02-1.26c-.26-.21-.65-.23-1.02-.05-.44.22-.62.68-.46,1.09.09.53.16,1.05.23,1.57.08.56.16,1.12.27,1.71.2.81.29,1.52.38,2.18,0,.48.42.9.9.9h7.8c.43,0,.82-.35.89-.77.11-.25.11-.43.11-.58.2-1.88.5-3.71.79-5.47.02-.12,0-.25-.07-.36ZM25.71,21.6h-7.62c-.09-.74-.19-1.48-.4-2.29-.1-.55-.17-1.09-.25-1.63-.07-.54-.14-1.08-.24-1.62l2.28,1.43.06.06c.15.15.36.17.54.1.07-.03.13-.07.18-.13.09-.06.16-.14.21-.24.46-1.12.95-2.28,1.34-3.35.42,1.09.87,2.19,1.45,3.23.03.25.24.44.49.44h.06c.09,0,.17-.03.25-.07l1.46-.88c.38-.19.67-.38,1.02-.64-.27,1.66-.55,3.37-.74,5.19q0,.18-.05.28s-.03.08-.04.12Z"/><path d="M25.8,30.1h-9.93l-1.39-2.08.12-.12.51-.5h-.91l-.5.5-.35-.21-.46-.29h-1.01l.81.5.85.52,1.64,2.46c.1.14.25.22.42.22h10.2c.28,0,.5-.22.5-.5s-.22-.5-.5-.5ZM25.8,30.1h-9.93l-1.39-2.08.12-.12.51-.5h-.91l-.5.5-.35-.21-.46-.29h-1.01l.81.5.85.52,1.64,2.46c.1.14.25.22.42.22h10.2c.28,0,.5-.22.5-.5s-.22-.5-.5-.5ZM42.1,27.9l-1.8,1.8-.33-.27-1.94-1.58-.55-.45-.61-.5-3.67-3h-7.5l-3.1,2.2h-7.1l-.8.8-1,1-.35-.21-.46-.29-.82-.5-2.77-1.7-3.5-4.9s-.19.04-.5.05c-.14,0-.31.01-.5.02-1.4.03-3.8.03-3.8.03l3.8,6.36.68,1.14,1.32,2.2,8.4,8h16.8l-.35.35-1.45,1.45,5.3,5.3,11.5-12.4-4.9-4.9ZM15.4,37.6l-8.21-7.82-1.12-1.88-.3-.5-.47-.78-.5-.84-2.92-4.88h3.76l.16.22,3.19,4.47s.09.1.15.13l1.92,1.18.82.5.81.5.85.52,1.64,2.46c.1.14.25.22.42.22h10.2c.28,0,.5-.22.5-.5s-.22-.5-.5-.5h-9.93l-1.39-2.08.12-.12.51-.5.7-.7h6.89c.1,0,.21-.03.29-.09l2.97-2.11h7.16l2.94,2.4.61.5.61.5,2.32,1.9-7.8,7.8H15.4ZM35.49,44.48l-4.58-4.58,1.44-1.45,8.18-8.18c.08-.01.16-.06.22-.12l1.45-1.44,4.2,4.2-10.91,11.57ZM25.8,30.1h-9.93l-1.39-2.08.12-.12.51-.5h-.91l-.5.5-.35-.21-.46-.29h-1.01l.81.5.85.52,1.64,2.46c.1.14.25.22.42.22h10.2c.28,0,.5-.22.5-.5s-.22-.5-.5-.5ZM14.2,27.4l-.11.11s.09.06.13.11l.19.28.07.12.12-.12.51-.5h-.91ZM25.8,30.1h-9.93l-1.39-2.08-.33.33c-.16.17-.42.19-.61.07l1.64,2.46c.1.14.25.22.42.22h10.2c.28,0,.5-.22.5-.5s-.22-.5-.5-.5Z" fill="#fff"/><path d="M14.2,27.4l-.5.5-.35-.21-.46-.29h-1.01l.81.5.85.52c.19.12.45.1.61-.07l.45-.45.51-.5h-.91ZM14.2,27.4l-.5.5-.35-.21-.46-.29h-1.01l.81.5.85.52c.19.12.45.1.61-.07l.45-.45.51-.5h-.91ZM14.2,27.4l-.5.5-.35-.21-.46-.29h-1.01l.81.5.85.52c.19.12.45.1.61-.07l.45-.45.51-.5h-.91ZM47.45,32.55l-4.9-4.9c-.09-.1-.22-.15-.35-.15s-.26.05-.35.15l-1.48,1.48-2.07-1.7-.5-.4-.5-.41-3.68-3.01c-.09-.07-.2-.11-.32-.11h-7.5c-.1,0-.21.03-.29.09l-2.97,2.11h-6.94c-.13,0-.26.05-.35.15l-1.05,1.05-.47.47-.77-.47-3.21-1.97-3.44-4.82c-.1-.13-.25-.21-.41-.21H1c-.18,0-.35.1-.44.25-.08.16-.08.35.01.51l5.8,9.7s.05.07.08.1l8.4,8c.1.09.22.14.35.14h15.59l-.94.95c-.2.19-.2.51,0,.7l5.3,5.3c.09.1.22.15.35.15h.01c.13,0,.26-.06.35-.16l11.6-12.3c.19-.19.18-.5-.01-.69ZM30.91,39.9l1.44-1.45c.15-.14.19-.36.11-.54-.03-.06-.06-.12-.11-.16-.09-.1-.21-.15-.35-.15H15.4l-8.21-7.82-1.12-1.88-.3-.5-.47-.78-.5-.84-2.92-4.88h3.76l.16.22,3.19,4.47s.09.1.15.13l1.92,1.18.82.5.81.5.85.52c.19.12.45.1.61-.07l.45-.45.51-.5.7-.7h6.89c.1,0,.21-.03.29-.09l2.97-2.11h7.16l2.94,2.4.61.5.61.5,2.32,1.9.39.31.09.08c.13.11.3.13.45.08.08-.01.16-.06.22-.12l1.45-1.44,4.2,4.2-10.91,11.57-4.58-4.58ZM14.2,27.4l-.5.5-.35-.21-.46-.29h-1.01l.81.5.85.52c.19.12.45.1.61-.07l.45-.45.51-.5h-.91ZM14.2,27.4l-.5.5-.35-.21-.46-.29h-1.01l.81.5.85.52c.19.12.45.1.61-.07l.45-.45.51-.5h-.91Z"/><line x1="40.4" y1="29.7" x2="32" y2="38.1" fill="none"/><path d="M40.75,30.05l-.22.22-8.18,8.18c-.1.1-.22.15-.35.15s-.26-.05-.35-.15c-.1-.09-.15-.22-.15-.35s.05-.26.15-.35l.15-.15,8.25-8.25c.17-.18.45-.2.64-.04.02,0,.04.02.06.04.2.19.2.51,0,.7Z"/><path d="M26.3,30.6c0,.28-.22.5-.5.5h-10.2c-.17,0-.32-.08-.42-.22l-1.64-2.46-.16-.24c-.06-.09-.08-.18-.08-.28,0-.07.02-.15.05-.21.04-.08.09-.15.17-.2.09-.06.19-.09.28-.09.1,0,.2.03.29.11.05.02.09.06.13.11l.19.28.07.12,1.39,2.08h9.93c.28,0,.5.23.5.5Z"/></svg>