<svg id="uuid-9bc97509-bbfb-42f7-90f0-9ed1cc8ac179" xmlns="http://www.w3.org/2000/svg" viewBox="0 0 90 48">
    <rect class="sgmaincolor" x="26.22" y="5.15" width="37.55" height="37.56" rx="6.26" ry="6.26"/>
    <path d="M51.63,14.55c1.51,0,2.73,1.23,2.73,2.74s-1.22,2.73-2.73,2.73-2.74-1.22-2.74-2.73,1.22-2.74,2.74-2.74Z"
          />
    <path d="M33.82,32.76l7.4-11.66c.13-.21.44-.22.58-.02l4.72,6.49c.13.17.38.2.54.04l2.01-1.98c.14-.14.37-.14.5.01l6.65,7.07c.22.23.05.6-.26.6h-21.84c-.28,0-.45-.31-.3-.55Z"/>
</svg>
