<svg id="uuid-d15526b8-2e61-4f63-ab24-98404f34238e" xmlns="http://www.w3.org/2000/svg" viewBox="0 0 90 48"><path d="M8,48h74c4.4,0,8-3.6,8-8V8C90,3.6,86.4,0,82,0H8C3.6,0,0,3.6,0,8v32C0,44.4,3.6,48,8,48ZM49.72,37.89h-9.45c-1.26,0-2.27-1.02-2.27-2.27s1.02-2.27,2.27-2.27h9.45c1.26,0,2.27,1.02,2.27,2.27s-1.02,2.27-2.27,2.27ZM55.91,26.48h-21.82c-.66,0-1.19-.53-1.19-1.19s.53-1.19,1.19-1.19h21.82c.66,0,1.19.53,1.19,1.19s-.53,1.19-1.19,1.19ZM29.73,9.72h30.54c.66,0,1.19.53,1.19,1.19s-.53,1.19-1.19,1.19h-30.54c-.66,0-1.19-.53-1.19-1.19s.53-1.19,1.19-1.19ZM29.73,16.86h30.54c.66,0,1.19.53,1.19,1.19s-.53,1.19-1.19,1.19h-30.54c-.66,0-1.19-.53-1.19-1.19s.53-1.19,1.19-1.19Z"/><path d="M49.72,33.34h-9.45c-1.26,0-2.27,1.02-2.27,2.27s1.02,2.27,2.27,2.27h9.45c1.26,0,2.27-1.02,2.27-2.27s-1.02-2.27-2.27-2.27Z" fill="#fff"/><path d="M29.73,12.11h30.54c.66,0,1.19-.53,1.19-1.19s-.53-1.19-1.19-1.19h-30.54c-.66,0-1.19.53-1.19,1.19s.53,1.19,1.19,1.19Z" fill="#fff"/><path d="M29.73,19.25h30.54c.66,0,1.19-.53,1.19-1.19s-.53-1.19-1.19-1.19h-30.54c-.66,0-1.19.53-1.19,1.19s.53,1.19,1.19,1.19Z" fill="#fff"/><path d="M55.91,24.1h-21.82c-.66,0-1.19.53-1.19,1.19s.53,1.19,1.19,1.19h21.82c.66,0,1.19-.53,1.19-1.19s-.53-1.19-1.19-1.19Z" fill="#fff"/></svg>
