<svg id="uuid-0de82641-c5b5-4b09-9c62-a92954ddd07a" xmlns="http://www.w3.org/2000/svg" viewBox="0 0 90 48"><rect x="52.03" y="15.73" width="9.36" height="2.38" rx="1.19" ry="1.19" class="sgmaincolor"/><rect x="28.65" y="15.73" width="9.36" height="2.38" rx="1.19" ry="1.19" class="sgmaincolor"/><rect x="40.34" y="15.73" width="9.36" height="2.38" rx="1.19" ry="1.19" class="sgmaincolor"/><path d="M89.88,21.98H.12v-13.83C.12,3.76,3.71.17,8.1.17h73.8c4.39,0,7.98,3.59,7.98,7.98v13.83Z"/><rect x="49.27" y="15.91" width="8.69" height="2.21" rx=".87" ry=".87" class="sgmaincolor"/><rect x="27.59" y="15.91" width="8.69" height="2.21" rx=".87" ry=".87" class="sgmaincolor"/><rect x="38.43" y="15.91" width="8.69" height="2.21" rx=".87" ry=".87" class="sgmaincolor"/><circle cx="42.77" cy="8.2" r="3.62" class="sgmaincolor"/><path d="M81.05,18.74c-.16,0-.31-.06-.42-.18s-.18-.26-.18-.42v-3.59c0-.16.06-.31.18-.42s.26-.18.42-.18h.6c0-.33.12-.61.35-.85s.52-.35.85-.35.61.12.85.35.35.52.35.85h.6c.16,0,.31.06.42.18s.18.26.18.42v3.59c0,.16-.06.31-.18.42s-.26.18-.42.18h-3.59ZM81.05,18.14h3.59v-3.59h-.6v.6c0,.08-.03.16-.09.21s-.13.09-.21.09-.16-.03-.21-.09-.09-.13-.09-.21v-.6h-1.2v.6c0,.08-.03.16-.09.21s-.13.09-.21.09-.16-.03-.21-.09-.09-.13-.09-.21v-.6h-.6v3.59ZM82.25,13.95h1.2c0-.16-.06-.31-.18-.42s-.26-.18-.42-.18-.31.06-.42.18-.18.26-.18.42ZM81.05,18.14v-3.59,3.59Z" class="sgmaincolor"/><path d="M77.32,18.96l-2.08-2.08c-.17.13-.36.24-.57.31s-.44.12-.69.12c-.6,0-1.11-.21-1.53-.62s-.62-.93-.62-1.53.21-1.11.62-1.53.93-.62,1.53-.62,1.11.21,1.53.62.62.93.62,1.53c0,.24-.04.47-.12.69s-.18.41-.31.57l2.08,2.08-.46.46ZM73.98,16.65c.41,0,.77-.14,1.05-.43s.43-.64.43-1.05-.14-.77-.43-1.05-.64-.43-1.05-.43-.77.14-1.05.43-.43.64-.43,1.05.14.77.43,1.05.64.43,1.05.43Z" class="sgmaincolor"/></svg>