<svg id="uuid-f3065cdb-4641-4f98-9312-5b20ca208a1c" xmlns="http://www.w3.org/2000/svg" viewBox="0 0 90 48"><circle cx="12.29" cy="10.11" r="3.63" class="sgmaincolor"/><rect x="45.04" y="8.82" width="9.36" height="2.38" rx="1.19" ry="1.19" class="sgmaincolor"/><rect x="21.67" y="8.82" width="9.36" height="2.38" rx="1.19" ry="1.19" class="sgmaincolor"/><rect x="33.35" y="8.82" width="9.36" height="2.38" rx="1.19" ry="1.19" class="sgmaincolor"/><path d="M6.4.14h77.2c3.47,0,6.28,2.82,6.28,6.28v10.45H.12V6.42C.12,2.96,2.93.14,6.4.14Z"/><circle cx="9.63" cy="9.99" r="3.62" class="sgmaincolor"/><rect x="38.9" y="8.88" width="8.69" height="2.21" rx=".87" ry=".87" class="sgmaincolor"/><rect x="17.22" y="8.88" width="8.69" height="2.21" rx=".87" ry=".87" class="sgmaincolor"/><rect x="28.06" y="8.88" width="8.69" height="2.21" rx=".87" ry=".87" class="sgmaincolor"/><path d="M79.78,12.36c-.16,0-.31-.06-.42-.18s-.18-.26-.18-.42v-3.59c0-.16.06-.31.18-.42s.26-.18.42-.18h.6c0-.33.12-.61.35-.85s.52-.35.85-.35.61.12.85.35.35.52.35.85h.6c.16,0,.31.06.42.18s.18.26.18.42v3.59c0,.16-.06.31-.18.42s-.26.18-.42.18h-3.59ZM79.78,11.76h3.59v-3.59h-.6v.6c0,.08-.03.16-.09.21s-.13.09-.21.09-.16-.03-.21-.09-.09-.13-.09-.21v-.6h-1.2v.6c0,.08-.03.16-.09.21s-.13.09-.21.09-.16-.03-.21-.09-.09-.13-.09-.21v-.6h-.6v3.59ZM80.98,7.57h1.2c0-.16-.06-.31-.18-.42s-.26-.18-.42-.18-.31.06-.42.18-.18.26-.18.42ZM79.78,11.76v-3.59,3.59Z" class="sgmaincolor"/><path d="M76.05,12.58l-2.08-2.08c-.17.13-.36.24-.57.31s-.44.12-.69.12c-.6,0-1.11-.21-1.53-.62s-.62-.93-.62-1.53.21-1.11.62-1.53.93-.62,1.53-.62,1.11.21,1.53.62.62.93.62,1.53c0,.24-.04.47-.12.69s-.18.41-.31.57l2.08,2.08-.46.46ZM72.71,10.27c.41,0,.77-.14,1.05-.43s.43-.64.43-1.05-.14-.77-.43-1.05-.64-.43-1.05-.43-.77.14-1.05.43-.43.64-.43,1.05.14.77.43,1.05.64.43,1.05.43Z" class="sgmaincolor"/></svg>