<?xml version="1.0" encoding="UTF-8"?><svg id="uuid-d058d40e-2750-4371-82e9-13dba493e3cc" xmlns="http://www.w3.org/2000/svg" viewBox="0 0 96 96"><path d="m95,79.3v4.38l-7.65,4.39H8.65l-7.65-4.39v-4.38h6.56V27.77h22.44c0,.33.02.67.04,1,.24,4.06,1.94,7.95,4.78,10.9,3.23,3.35,7.74,5.26,12.39,5.26h.11c9.41-.07,17.21-7.02,18.49-16.16.05-.33.09-.67.11-1h22.52v51.53h6.56Z" class="sgmaincolor"/><path d="m95,78.3h-5.56V27.77c0-.55-.45-1-1-1h-20.45c.17-5.17-1.78-10.25-5.37-13.97-3.59-3.72-8.57-5.87-13.76-5.87h-.21c-11.08.08-20.11,8.79-20.62,19.84H7.56c-.55,0-1,.45-1,1v50.53H1c-.55,0-1,.45-1,1v4.38c0,.36.19.69.5.87l7.65,4.38c.16.09.33.14.5.14h78.7c.17,0,.34-.05.5-.14l7.65-4.38c.31-.18.5-.51.5-.87v-4.38c0-.55-.45-1-1-1Zm-1,4.8l-6.92,3.97H8.92l-6.92-3.97v-2.8h92v2.8ZM8.56,28.77h19.47c.25,4.57,2.16,8.96,5.35,12.28,3.6,3.74,8.64,5.88,13.83,5.88h.12c10.52-.08,19.2-7.92,20.49-18.16h19.62v49.53H8.56V28.77Zm21.46-1.8c0-.07.01-.13.01-.2.5-9.95,8.66-17.77,18.63-17.84.04.02.1,0,.15,0,4.64,0,9.15,1.91,12.37,5.26,3.23,3.35,4.98,7.93,4.8,12.58v.12c-.01.3-.03.59-.06.88-.02.33-.06.67-.11,1-1.28,9.14-9.08,16.09-18.49,16.16h-.11c-4.65,0-9.16-1.91-12.39-5.26-2.84-2.95-4.54-6.84-4.78-10.9-.02-.33-.04-.67-.04-1,0-.27.01-.53.02-.8Z"/><path d="m56.744,84.683h-17.488c-.552,0-1-.447-1-1s.448-1,1-1h17.488c.553,0,1,.447,1,1s-.447,1-1,1Z"/><path d="m34.114,55.712h-14.955c-.552,0-1-.447-1-1s.448-1,1-1h14.955c.552,0,1,.447,1,1s-.448,1-1,1Z"/><path d="m55.478,55.712h-14.955c-.552,0-1-.447-1-1s.448-1,1-1h14.955c.553,0,1,.447,1,1s-.447,1-1,1Z"/><path d="m76.841,55.712h-14.954c-.553,0-1-.447-1-1s.447-1,1-1h14.954c.553,0,1,.447,1,1s-.447,1-1,1Z"/><path d="m34.114,63.206h-14.955c-.552,0-1-.447-1-1s.448-1,1-1h14.955c.552,0,1,.447,1,1s-.448,1-1,1Z"/><path d="m55.478,63.206h-14.955c-.552,0-1-.447-1-1s.448-1,1-1h14.955c.553,0,1,.447,1,1s-.447,1-1,1Z"/><path d="m76.841,63.206h-14.954c-.553,0-1-.447-1-1s.447-1,1-1h14.954c.553,0,1,.447,1,1s-.447,1-1,1Z"/><path d="m34.114,70.701h-14.955c-.552,0-1-.447-1-1s.448-1,1-1h14.955c.552,0,1,.447,1,1s-.448,1-1,1Z"/><path d="m55.478,70.701h-14.955c-.552,0-1-.447-1-1s.448-1,1-1h14.955c.553,0,1,.447,1,1s-.447,1-1,1Z"/><path d="m76.841,70.701h-14.954c-.553,0-1-.447-1-1s.447-1,1-1h14.954c.553,0,1,.447,1,1s-.447,1-1,1Z"/><path d="m48.23,25.291v3.985h6.564c-.664,3.041-3.46,5.133-6.564,4.908-3.713-.403-6.527-3.54-6.527-7.277s2.813-6.873,6.527-7.277c1.714-.029,3.371.616,4.615,1.796l3.128-3.027c-2.09-1.977-4.867-3.062-7.743-3.027-4.237-.163-8.225,2.006-10.392,5.652-2.167,3.647-2.167,8.187,0,11.833,2.167,3.647,6.154,5.815,10.392,5.652,3.013.117,5.934-1.047,8.042-3.204,2.107-2.157,3.204-5.106,3.018-8.117.005-.649-.058-1.297-.188-1.932l-10.872.034Z"/></svg>