<svg id="uuid-af563e1f-ca8d-4f66-8796-f9a8706d6512" xmlns="http://www.w3.org/2000/svg" viewBox="0 0 90 48"><path d="M19.32,33.34h-9.45c-1.26,0-2.27,1.02-2.27,2.27s1.02,2.27,2.27,2.27h9.45c1.26,0,2.27-1.02,2.27-2.27s-1.02-2.27-2.27-2.27Z" class="sgmaincolor"/><path d="M39.12,9.87H8.79c-.66,0-1.19.53-1.19,1.19s.53,1.19,1.19,1.19h30.33c.66,0,1.19-.53,1.19-1.19s-.53-1.19-1.19-1.19Z" class="sgmaincolor"/><path d="M39.12,16.93H8.79c-.66,0-1.19.53-1.19,1.19s.53,1.19,1.19,1.19h30.33c.66,0,1.19-.53,1.19-1.19s-.53-1.19-1.19-1.19Z" class="sgmaincolor"/><path d="M29.83,24H8.79c-.66,0-1.19.53-1.19,1.19s.53,1.19,1.19,1.19h21.05c.66,0,1.19-.53,1.19-1.19s-.53-1.19-1.19-1.19Z" class="sgmaincolor"/><rect x="44.88" y="5.12" width="37.56" height="37.56" rx="2" ry="2"/><circle cx="71.39" cy="17.01" r="3.21" class="sgmaincolor"/><path d="M76.48,35.81h-25.63c-.33,0-.53-.37-.36-.64l8.68-13.69c.16-.25.52-.26.69-.02l5.54,7.61c.15.21.45.23.63.05l2.35-2.32c.17-.17.44-.16.6.01l7.8,8.29c.25.27.06.71-.3.71Z" class="sgmaincolor"/></svg>
