<svg id="uuid-452508d1-0d4b-4d32-8e0e-2c708852d0f9" xmlns="http://www.w3.org/2000/svg" viewBox="0 0 90 48"><path d="M54.52,29.86c-.1.23-.15.49-.15.76v5.53c0,.2.04.39.09.57.04-.15.06-.3.06-.46v-6.39Z" class="sgmaincolor"/><path d="M52.53,16.58h-15.05c-1.1,0-2,.9-2,2v17.67c0,1.1.9,2,2,2h15.05c.94,0,1.73-.66,1.94-1.54-.06-.18-.1-.37-.1-.57v-5.52c0-.27.06-.53.16-.76v-11.28c0-1.1-.9-2-2-2Z"/><path d="M48.5,32.29h-6.99c-.65,0-1.19-.53-1.19-1.19s.54-1.19,1.19-1.19h6.99c.65,0,1.19.53,1.19,1.19s-.54,1.19-1.19,1.19Z" class="sgmaincolor"/><path d="M48.5,23.99h-6.99c-.65,0-1.19-.53-1.19-1.19s.54-1.19,1.19-1.19h6.99c.65,0,1.19.53,1.19,1.19s-.54,1.19-1.19,1.19Z" class="sgmaincolor"/><path d="M54.46,36.71c.24.82,1,1.43,1.9,1.43h15.04c1.1,0,2-.9,2-2v-5.52c0-1.1-.9-2-2-2h-15.04c-.83,0-1.54.51-1.84,1.24v6.39c0,.16-.03.31-.06.46Z"/><path d="M60.27,32.19h6.98c.66,0,1.19.53,1.19,1.19s-.53,1.19-1.19,1.19h-6.98c-.66,0-1.19-.53-1.19-1.19s.53-1.19,1.19-1.19Z" class="sgmaincolor"/><rect x="7.37" y="5.23" width="75.25" height="9.16" rx="2" ry="2"/><path d="M64.88,8.65h6.98c.66,0,1.19.53,1.19,1.19s-.53,1.19-1.19,1.19h-6.98c-.66,0-1.19-.53-1.19-1.19s.53-1.19,1.19-1.19Z" class="sgmaincolor"/><path d="M41.51,8.65h6.99c.65,0,1.19.53,1.19,1.19s-.54,1.19-1.19,1.19h-6.99c-.65,0-1.19-.53-1.19-1.19s.54-1.19,1.19-1.19Z" class="sgmaincolor"/><path d="M17.86,8.65h6.98c.66,0,1.19.53,1.19,1.19s-.53,1.19-1.19,1.19h-6.98c-.66,0-1.19-.53-1.19-1.19s.53-1.19,1.19-1.19Z" class="sgmaincolor"/></svg>
