<svg id="uuid-a447c91c-5cbf-4517-820e-0fc692fba3ed" xmlns="http://www.w3.org/2000/svg" viewBox="0 0 90.25 48.25"><rect x=".12" y=".12" width="90" height="48" class="sgmaincolor" opacity="0"/><path d="M80.43,5.37H9.74c-1.11,0-2,.9-2,2v19.54c0,1.1.89,2,2,2h70.69c1.1,0,2-.9,2-2V7.37c0-1.1-.9-2-2-2ZM50.41,8.45c1.26,0,2.28,1.01,2.28,2.27s-1.02,2.27-2.28,2.27-2.27-1.01-2.27-2.27,1.02-2.27,2.27-2.27ZM54.02,24.04h-18.16c-.23,0-.37-.26-.25-.46l6.15-9.69c.11-.18.37-.18.49-.02l3.92,5.39c.11.15.32.17.45.04l1.66-1.65c.12-.11.31-.11.43.01l5.52,5.88c.18.19.05.5-.21.5Z" class="sgmaincolor" opacity="0"/><path d="M8.93,32.26h72.41c.66,0,1.19.53,1.19,1.19s-.53,1.19-1.19,1.19H8.93c-.66,0-1.19-.53-1.19-1.19s.53-1.19,1.19-1.19Z" class="sgmaincolor" opacity="0"/><path d="M8.93,38.07h51.28c.66,0,1.19.53,1.19,1.19s-.53,1.19-1.19,1.19H8.93c-.66,0-1.19-.53-1.19-1.19s.53-1.19,1.19-1.19Z" class="sgmaincolor" opacity="0"/><path d="M8.93,34.64h72.41c.66,0,1.19-.53,1.19-1.19s-.53-1.19-1.19-1.19H8.93c-.66,0-1.19.53-1.19,1.19s.53,1.19,1.19,1.19Z" class="sgmaincolor"/><path d="M8.93,40.45h51.28c.66,0,1.19-.53,1.19-1.19s-.53-1.19-1.19-1.19H8.93c-.66,0-1.19.53-1.19,1.19s.53,1.19,1.19,1.19Z" class="sgmaincolor"/><path d="M80.43,5.37H9.74c-1.11,0-2,.9-2,2v19.54c0,1.1.89,2,2,2h70.69c1.1,0,2-.9,2-2V7.37c0-1.1-.9-2-2-2Z"/><path d="M50.41,8.45c1.26,0,2.28,1.01,2.28,2.27s-1.02,2.27-2.28,2.27-2.27-1.01-2.27-2.27,1.02-2.27,2.27-2.27Z" class="sgmaincolor"/><path d="M54.02,24.04h-18.16c-.23,0-.37-.26-.25-.46l6.15-9.69c.11-.18.37-.18.49-.02l3.92,5.39c.11.15.32.17.45.04l1.66-1.65c.12-.11.31-.11.43.01l5.52,5.88c.18.19.05.5-.21.5Z" class="sgmaincolor"/></svg>
