<svg id="uuid-902c977e-daf7-4939-9d17-8168ee41c98e" xmlns="http://www.w3.org/2000/svg" viewBox="0 0 90 48"><path d="M67.19,9.85h-16.32c-.66,0-1.19.53-1.19,1.19s.53,1.19,1.19,1.19h16.32c.66,0,1.19-.53,1.19-1.19s-.53-1.19-1.19-1.19Z" class="sgmaincolor"/><path d="M61.9,16.87h-11.03c-.66,0-1.19.53-1.19,1.19s.53,1.19,1.19,1.19h11.03c.66,0,1.19-.53,1.19-1.19s-.53-1.19-1.19-1.19Z" class="sgmaincolor"/><rect x="21.62" y="9.81" width="23.35" height="11.84" rx="1" ry="1"/><path d="M42.36,15.52l-1.64,1.76c-.1.11-.26.11-.36,0l-1.64-1.76c-.15-.16-.04-.42.18-.42h3.28c.22,0,.33.26.18.42Z" class="sgmaincolor"/><path d="M43.97,26.24h-21.35c-.55,0-1,.44-1,1v9.91c0,.56.45,1,1,1h21.35c.55,0,1-.44,1-1v-9.91c0-.56-.45-1-1-1Z"/><path d="M42.36,31.99l-1.64,1.76c-.1.1-.26.1-.36,0l-1.64-1.76c-.15-.16-.04-.43.18-.43h3.28c.22,0,.33.27.18.43Z" class="sgmaincolor"/></svg>
