<svg id="uuid-55f01ec6-f42a-4b45-8ea9-69917208b422" xmlns="http://www.w3.org/2000/svg" viewBox="0 0 90 48"><path d="M33.17,14.74h-3.58l-6.75,18.86h3.23l1.35-3.85h7.89l1.35,3.85h3.25l-6.74-18.86ZM28.3,27.23l3.09-8.75,3.06,8.75h-6.15Z" class="sgmaincolor"/><path d="M54.04,18.67v2.16c-.53-.68-1.22-1.26-2.1-1.72-.88-.46-1.9-.69-3.08-.69-1.3,0-2.49.32-3.56.96-1.07.65-1.92,1.54-2.55,2.7-.62,1.16-.93,2.48-.93,3.98s.31,2.84.93,4.03c.63,1.18,1.47,2.1,2.54,2.76,1.06.66,2.24.99,3.52.99,1.16,0,2.19-.23,3.09-.7.9-.47,1.61-1.06,2.14-1.77v2.23h3.11v-14.93h-3.11ZM53.39,28.81c-.42.77-.98,1.35-1.66,1.75-.69.4-1.43.6-2.23.6s-1.51-.21-2.2-.61c-.7-.41-1.26-1-1.68-1.78-.43-.77-.64-1.68-.64-2.71s.21-1.92.64-2.67c.42-.74.98-1.31,1.66-1.7.69-.39,1.43-.58,2.22-.58s1.54.19,2.23.59c.68.4,1.24.98,1.66,1.74.43.75.64,1.65.64,2.68s-.21,1.93-.64,2.69Z" class="sgmaincolor"/><path d="M64.37,35.39V13.38c0-.66-.54-1.2-1.2-1.2s-1.2.54-1.2,1.2v22.01c0,.66.54,1.2,1.2,1.2s1.2-.54,1.2-1.2Z" class="sgmaincolor"/></svg>
