<svg xmlns="http://www.w3.org/2000/svg" viewBox="0 0 90 48"><g id="uuid-0ee74793-74e1-43bf-955a-4b0b72e4fe7f"><path d="M82,0H8C3.58,0,0,3.58,0,8v32C0,44.42,3.58,48,8,48h74c4.42,0,8-3.58,8-8V8C90,3.58,86.42,0,82,0Z"/><path d="M62.28,9.8H27.72c-.74,0-1.35.45-1.35,1s.6,1,1.35,1h34.55c.74,0,1.35-.45,1.35-1s-.6-1-1.35-1Z" class="sgmaincolor"/><path d="M62.33,24H27.67c-.72,0-1.3.33-1.3.74v12.51c0,.41.58.74,1.3.74h34.65c.72,0,1.3-.33,1.3-.74v-12.51c0-.41-.58-.74-1.3-.74Z" class="sgmaincolor"/><path d="M55.48,16.71h-20.96c-.63,0-1.15.53-1.15,1.19s.51,1.19,1.15,1.19h20.96c.63,0,1.15-.53,1.15-1.19s-.51-1.19-1.15-1.19Z" class="sgmaincolor"/></g></svg>