<svg xmlns="http://www.w3.org/2000/svg" viewBox="0 0 96 96">
  <path d="M77.657,59.925c-.363-.371-.858-.575-1.367-.575-.104,0-.208.009-.312.026-.617.103-1.148.504-1.419,1.074l-2.224,4.666-6.8-22.326,12.797,4.062v-14.839H4v45.107h74.332v-16.507l-.675-.689Z" class="sgmaincolor" />
  <path d="M10.202,44.7c0-.552.448-1,1-1h33.993c.552,0,1,.448,1,1s-.448,1-1,1H11.202c-.552,0-1-.448-1-1ZM11.202,55.566h33.993c.552,0,1-.447,1-1s-.448-1-1-1H11.202c-.552,0-1,.447-1,1s.448,1,1,1ZM11.202,65.434h33.993c.552,0,1-.447,1-1s-.448-1-1-1H11.202c-.552,0-1,.447-1,1s.448,1,1,1ZM93,18.88v13.133c0,.552-.447,1-1,1h-12.668v12.058l8.876,2.817c.748.237,1.273.901,1.338,1.691.064.793-.348,1.535-1.052,1.892l-4.819,2.442,6.372,6.315c.748.751.753,1.979.009,2.737l-4.745,4.843c-.362.371-.848.575-1.364.575s-1.003-.204-1.366-.576l-3.248-3.315v12.628c0,.553-.447,1-1,1H4c-.552,0-1-.447-1-1V18.88c0-.552.448-1,1-1h88c.553,0,1,.448,1,1ZM79.332,47.17h0l-2-.635h0l-11.797-3.744,6.8,22.326,2.224-4.666c.271-.57.802-.972,1.419-1.074.104-.018.209-.026.312-.026.509,0,1.004.204,1.367.575l6.289,6.419,4.682-4.778-6.354-6.324c-.438-.44-.639-1.071-.54-1.688.099-.613.486-1.146,1.036-1.424l4.694-2.379-8.133-2.581ZM77.332,33.013H5v43.107h72.332v-13.669l-1.018-1.039-2.267,4.758c-.344.724-1.087,1.153-1.871,1.094-.795-.06-1.46-.595-1.694-1.364l-6.895-22.636c-.212-.698-.023-1.449.493-1.959.509-.501,1.243-.68,1.921-.464l11.33,3.596v-11.423ZM91,19.88H5v11.133h86v-11.133ZM84.056,27.347c.188.188.441.293.707.293s.52-.105.707-.293l2.387-2.386c.391-.39.391-1.023,0-1.414s-1.023-.391-1.414,0l-1.68,1.679-1.561-1.561c-.391-.391-1.023-.391-1.414,0-.391.39-.391,1.023,0,1.414l2.268,2.268ZM12.526,26.446h40.243c.553,0,1-.448,1-1s-.447-1-1-1H12.526c-.552,0-1,.448-1,1s.448,1,1,1Z" />
</svg>
