<?xml version="1.0" encoding="UTF-8"?><svg id="uuid-f397d734-851f-4129-b9fa-ec46dd46bcff" xmlns="http://www.w3.org/2000/svg" viewBox="0 0 144 144"><polygon points="109.184 23.731 34.816 23.731 15.785 57.914 15.785 63.735 24.021 71.976 29.84 71.967 29.839 120.268 59.802 120.27 84.198 120.282 114.161 120.269 114.141 71.968 119.983 71.968 128.215 63.735 128.215 57.914 109.184 23.731" fill="#000" stroke-width="0" class="sgmaincolor"/><path d="M129.145,57.57c-.01-.026-.019-.052-.031-.077-.01-.021-.015-.044-.026-.065l-19.03-34.183c-.177-.317-.511-.514-.874-.514H34.816c-.363,0-.697.196-.874.514L14.912,57.428c-.011.02-.016.043-.026.064-.012.026-.021.051-.031.078-.041.111-.07.226-.07.344v5.821c0,.266.105.52.293.707l8.232,8.232c.188.188.442.293.707.293h4.821v47.301c0,.553.448,1,1,1h84.322c.553,0,1-.447,1-1v-47.301h4.821c.266,0,.52-.105.707-.293l8.232-8.232c.188-.188.293-.441.293-.707v-5.821c0-.119-.029-.234-.069-.345ZM126.513,56.914h-25.62l-7.507-32.183h15.211l17.917,32.183ZM99.107,63.321l-7.646,7.646h-10.813l-7.647-7.646v-4.407h26.107v4.407ZM71,63.321l-7.646,7.646h-10.814l-7.646-7.646v-4.407h26.107v4.407ZM71,24.731v32.183h-25.84l7.507-32.183h18.333ZM91.332,24.731l7.507,32.183h-25.839V24.731h18.332ZM35.404,24.731h15.21l-7.507,32.183h-25.62l17.917-32.183ZM16.785,63.321v-4.407h26.107v4.407l-7.646,7.646h-10.814l-7.646-7.646ZM99.529,119.269h-55.058v-38.806h55.058v38.806ZM113.161,119.269h-11.632v-39.806c0-.553-.447-1-1-1h-57.058c-.552,0-1,.447-1,1v39.806h-11.632v-46.301h4.821c.265,0,.52-.105.707-.293l7.525-7.525,7.525,7.525c.188.188.442.293.707.293h11.643c.265,0,.52-.105.707-.293l7.525-7.525,7.526,7.525c.188.188.441.293.707.293h11.642c.266,0,.52-.105.707-.293l7.525-7.525,7.525,7.525c.188.188.441.293.707.293h4.821v46.301ZM119.568,70.968h-10.814l-7.646-7.646v-4.407h26.107v4.407l-7.646,7.646ZM56.229,105.007l-2.357-8.615h1.887l1.394,5.885,1.768-5.885h1.457l1.791,5.948,1.37-5.948h1.887l-2.349,8.615h-1.592l-1.847-5.916-1.815,5.916h-1.592ZM68.346,105.007l-2.357-8.615h1.887l1.394,5.885,1.768-5.885h1.457l1.791,5.948,1.37-5.948h1.887l-2.349,8.615h-1.592l-1.847-5.916-1.815,5.916h-1.592ZM80.464,105.007l-2.356-8.615h1.887l1.394,5.885,1.768-5.885h1.457l1.791,5.948,1.369-5.948h1.887l-2.349,8.615h-1.592l-1.848-5.916-1.814,5.916h-1.593ZM90.352,104.8c-.202-.196-.303-.448-.303-.756s.098-.564.295-.769c.196-.204.472-.307.827-.307.361,0,.64.103.836.307s.295.46.295.769c0,.303-.099.553-.295.752s-.475.299-.836.299c-.345,0-.618-.099-.819-.295Z" fill="#000" stroke-width="0"/></svg>