<svg id="uuid-428b87a1-a9c2-4dc6-a661-c5caa417b8c2" xmlns="http://www.w3.org/2000/svg" viewBox="0 0 90 48"><path d="M49.72,33.37h-9.45c-1.26,0-2.27,1.02-2.27,2.27s1.02,2.27,2.27,2.27h9.45c1.26,0,2.27-1.02,2.27-2.27s-1.02-2.27-2.27-2.27Z" class="sgmaincolor"/><path d="M60.27,9.75h-30.54c-.66,0-1.19.53-1.19,1.19s.53,1.19,1.19,1.19h30.54c.66,0,1.19-.53,1.19-1.19s-.53-1.19-1.19-1.19Z" class="sgmaincolor"/><path d="M60.27,16.89h-30.54c-.66,0-1.19.53-1.19,1.19s.53,1.19,1.19,1.19h30.54c.66,0,1.19-.53,1.19-1.19s-.53-1.19-1.19-1.19Z" class="sgmaincolor"/><path d="M55.69,24.03h-21.37c-.66,0-1.19.53-1.19,1.19s.53,1.19,1.19,1.19h21.37c.66,0,1.19-.53,1.19-1.19s-.53-1.19-1.19-1.19Z" class="sgmaincolor"/></svg>
