<?xml version="1.0" encoding="UTF-8"?><svg xmlns="http://www.w3.org/2000/svg" viewBox="0 0 96 96"><polygon class="sgmaincolor" points="26.68 50.179 32.511 58.207 39.798 62.587 42.719 59.667 54.398 59.667 59.507 56.018 67.719 56.018 67.886 55.921 67.886 31.971 47.149 19.997 26.405 31.971 26.405 50.179 26.68 50.179" stroke-width="0"/><path d="m41.6,34.451c1.345-1.181,3.167-1.772,5.47-1.772,1.528,0,2.836.265,3.927.794,1.089.53,1.914,1.252,2.475,2.169.56.917.84,1.945.84,3.086,0,1.345-.336,2.44-1.008,3.285-.673.846-1.457,1.421-2.353,1.727v.122c1.161.387,2.077,1.029,2.75,1.925.672.896,1.008,2.047,1.008,3.453,0,1.263-.29,2.378-.871,3.346-.58.968-1.426,1.727-2.536,2.276s-2.429.825-3.957.825c-2.444,0-4.396-.601-5.852-1.803-1.457-1.202-2.226-3.015-2.307-5.439h5.072c.02.896.275,1.604.764,2.124s1.202.779,2.139.779c.794,0,1.411-.229,1.848-.688.438-.459.658-1.064.658-1.818,0-.978-.312-1.686-.933-2.124-.622-.438-1.615-.657-2.979-.657h-.978v-4.247h.978c1.039,0,1.879-.178,2.521-.535.642-.356.963-.993.963-1.91,0-.733-.205-1.303-.612-1.711-.408-.407-.968-.611-1.681-.611-.774,0-1.35.234-1.726.703-.377.469-.596,1.049-.657,1.742h-5.103c.081-2.18.794-3.86,2.139-5.042Zm53.695,36.849l-18.981,20.437c-.185.199-.442.314-.714.319h-.019c-.133,0-.264-.027-.385-.078-.124-.049-.239-.121-.336-.218l-8.75-8.76c-.19-.19-.3-.44-.3-.71,0-.26.11-.52.3-.71l1.21-1.2h-25.32c-.081,0-.159-.027-.237-.047-.167-.041-.326-.109-.453-.229l-13.866-13.14c-.052-.049-.093-.108-.133-.167-.012-.017-.029-.029-.04-.047l-2.571-4.356-6.915-11.704c-.071-.12-.106-.251-.123-.385-.001-.011-.003-.021-.004-.031-.013-.135,0-.27.043-.401,0,0,0-.002,0-.002l-3.89-2.24c-.3-.18-.5-.51-.5-.87v-20.36c0-.36.2-.69.5-.87l17.63-10.18c.31-.18.69-.18,1,0l10.38,5.99,3.83-2.21c.31-.18.69-.18,1,0l3.83,2.21,10.36-5.99c.31-.18.7-.18,1,0l17.64,10.18c.31.18.5.51.5.87v20.36c0,.36-.19.69-.5.87l-11.59,6.68v.71h3.03s.002,0,.003,0h.015c.229,0,.452.079.631.224l10.968,8.909,2.273-2.273c.198-.198.456-.293.715-.291.003,0,.005-.001.007-.001.266,0,.52.105.707.293l8.03,8.031c.381.38.392.993.025,1.388Zm-19.75,18.305l17.605-18.965-6.627-6.627-2.197,2.2c-.007.007-.017.01-.025.017l-13.851,13.851s-.002.003-.003.004l-2.211,2.212.395.395,6.913,6.913Zm-21.138-28.936s-.004.001-.006.001h-11.253l-2.045,2.039,2.172,3.259h16.247c.553,0,1,.447,1,1s-.447,1-1,1h-16.782c-.334,0-.646-.167-.832-.445l-2.784-4.177-2.285-1.375-4.842-2.906c-.013-.008-.021-.023-.034-.031-.095-.057-.178-.136-.246-.226-.004-.005-.01-.008-.014-.013l-3.887-5.35-.055-.075-.012-.016-1.579-2.173h-5.769l.23.379,8.3,14.05,13.468,12.768h26.927l12.787-12.787-10.551-8.571h-11.718l-4.848,3.462c-.17.121-.373.187-.581.187h-.008Zm-.936-38.179l14.92,8.61c.31.18.5.51.5.87v20.03l10.09-5.82v-19.21l-16.64-9.6-8.87,5.12Zm-10.65,1.16l-15.42,8.9v16.94c.04.03.06.06.09.1l4.48,6.17.21.29,1.02,1.404,6.446,3.87,2.364-2.364c.19-.19.44-.29.71-.29h.009s.003-.001.005-.001h11.347l4.138-2.959.71-.51c.16-.12.37-.18.58-.18h7.38v-22.47l-15.42-8.9-1.99-1.16-2.33-1.34-2.33,1.35-2,1.15Zm-22.31,25.53h4.89v-17.21c0-.36.2-.69.5-.87l14.92-8.61-8.88-5.12-16.63,9.6v19.21l5.2,3Z" stroke-width="0"/></svg>