<?xml version="1.0" encoding="UTF-8"?><svg id="uuid-7556b1b0-c12a-4a3e-81ff-1d294911d1f2" xmlns="http://www.w3.org/2000/svg" xmlns:xlink="http://www.w3.org/1999/xlink" viewBox="0 0 64 64"><defs><clipPath id="uuid-cb76ec30-d5d8-4f5d-80d3-47e3983d3205"><rect x="3.33" y="4.67" width="57.33" height="54.67" fill="none" stroke-width="0"/></clipPath></defs><rect width="64" height="64" fill="#fff" opacity="0" stroke-width="0"/><g clip-path="url(#uuid-cb76ec30-d5d8-4f5d-80d3-47e3983d3205)"><path d="M33.62,48.06h.07l10.68-9.28.57-.53v-14.69l-14.12,9.98-6.14,4.34-6.14-4.34-9.27-6.55-4.85-3.43v24.51h29.2Z" class="sgmaincolor" stroke-width="0"/><path d="M33.69,48.72H4.42c-.37,0-.67-.3-.67-.67v-24.51c0-.25.14-.48.36-.59.22-.11.49-.1.69.05l19.88,14.05,19.88-14.05c.2-.14.47-.16.69-.05.22.11.36.34.36.59v14.69c0,.19-.08.36-.21.49l-.57.53-10.7,9.29c-.12.11-.28.16-.44.16ZM5.09,47.39h28.35l10.83-9.44v-13.12l-19.21,13.58c-.23.16-.54.16-.77,0L5.09,24.84v22.55Z" fill="#000" stroke-width="0"/><path d="M24.68,38.54c-.13,0-.27-.04-.38-.12L4.03,24.09c-.3-.21-.37-.63-.16-.93s.63-.37.93-.16l19.88,14.05,19.88-14.05c.3-.21.72-.14.93.16.21.3.14.72-.16.93l-20.26,14.32c-.12.08-.25.12-.38.12Z" fill="#000" stroke-width="0"/><path d="M44.94,38.54c-.37,0-.67-.3-.67-.67v-13.99l-4.14-3.17c-.29-.22-.35-.64-.12-.94.23-.29.64-.35.93-.12l4.4,3.37c.17.13.26.32.26.53v14.32c0,.37-.3.67-.67.67Z" fill="#000" stroke-width="0"/><path d="M30.02,48.73H4.42c-.37,0-.67-.3-.67-.67v-24.51c0-.22.11-.42.29-.55l4.85-3.34c.31-.21.72-.13.93.17.21.3.13.72-.17.93l-4.56,3.14v23.49h24.93c.37,0,.67.3.67.67s-.3.67-.67.67Z" fill="#000" stroke-width="0"/><path d="M9.27,27.64c-.37,0-.67-.3-.67-.67V5.33c0-.37.3-.67.67-.67h20.7c.18,0,.34.07.47.19l10.57,10.41c.13.12.2.3.2.47v10.85c0,.37-.3.67-.67.67s-.67-.3-.67-.67v-10.57l-10.17-10.03H9.93v20.98c0,.37-.3.67-.67.67Z" fill="#000" stroke-width="0"/><path d="M40.53,16.41h-10.57c-.37,0-.67-.3-.67-.67V5.33c0-.37.3-.67.67-.67s.67.3.67.67v9.75h9.9c.37,0,.67.3.67.67s-.3.67-.67.67Z" fill="#000" stroke-width="0"/><path d="M33.93,23.78H14.99c-.37,0-.67-.3-.67-.67s.3-.67.67-.67h18.93c.37,0,.67.3.67.67s-.3.67-.67.67Z" fill="#000" stroke-width="0"/><path d="M33.93,28.99H14.99c-.37,0-.67-.3-.67-.67s.3-.67.67-.67h18.93c.37,0,.67.3.67.67s-.3.67-.67.67Z" fill="#000" stroke-width="0"/><path d="M30.82,34.19h-12.28c-.37,0-.67-.3-.67-.67s.3-.67.67-.67h12.28c.37,0,.67.3.67.67s-.3.67-.67.67Z" fill="#000" stroke-width="0"/><path d="M55.27,53.41l-20.09-.53-1.49-4.16,14.69-13.68,6.89,18.37Z" class="sgmaincolor" stroke-width="0"/><path d="M55.27,54.08s-.01,0-.02,0l-20.09-.53c-.28,0-.52-.18-.61-.44l-1.49-4.16c-.09-.25-.02-.53.17-.71l14.69-13.68c.16-.15.39-.21.61-.16.22.05.39.21.47.42l6.89,18.37c.08.21.05.44-.08.62-.12.18-.33.28-.54.28ZM35.65,52.23l18.65.5-6.2-16.51-13.64,12.7,1.19,3.32Z" fill="#000" stroke-width="0"/><path d="M32.87,56.43c-.26,0-.51-.16-.62-.42l-2.99-7.4c-.14-.34.03-.73.37-.87.34-.14.73.03.87.37l2.99,7.4c.14.34-.03.73-.37.87-.08.03-.17.05-.25.05Z" fill="#000" stroke-width="0"/><path d="M32.87,56.43c-.15,0-.29-.05-.42-.15-.29-.23-.33-.65-.1-.94l2.31-2.87c.23-.29.65-.33.94-.1.29.23.33.65.1.94l-2.31,2.87c-.13.16-.33.25-.52.25Z" fill="#000" stroke-width="0"/><path d="M33.69,49.4s-.04,0-.07,0l-3.81-.37c-.37-.04-.63-.36-.6-.73.04-.37.36-.63.73-.6l3.81.37c.37.04.63.36.6.73-.03.34-.32.6-.66.6Z" fill="#000" stroke-width="0"/><path d="M49.32,47.03c-.26,0-.52-.16-.62-.42l-3.54-8.91c-.14-.34.03-.73.37-.87s.73.03.87.37l3.54,8.91c.14.34-.03.73-.37.87-.08.03-.16.05-.25.05Z" fill="#000" stroke-width="0"/><path d="M53.11,39.67c-.15,0-.29-.05-.42-.15-.29-.23-.33-.65-.11-.94l2.34-2.93c.23-.29.65-.33.94-.11.29.23.33.65.11.94l-2.34,2.93c-.13.17-.33.25-.52.25Z" fill="#000" stroke-width="0"/><path d="M54.87,43.88c-.27,0-.52-.16-.62-.42-.14-.34.03-.73.38-.87l4.14-1.64c.34-.13.73.03.87.38.14.34-.03.73-.38.87l-4.14,1.64c-.08.03-.16.05-.25.05Z" fill="#000" stroke-width="0"/><path d="M60,48.94s-.09,0-.14-.01l-4.02-.84c-.36-.08-.59-.43-.52-.79.08-.36.44-.59.79-.52l4.02.84c.36.08.59.43.52.79-.07.31-.34.53-.65.53Z" fill="#000" stroke-width="0"/><path d="M55.27,54.08s-.01,0-.02,0l-20.09-.53c-.28,0-.52-.18-.61-.44l-1.49-4.16c-.09-.25-.02-.53.17-.71l14.69-13.68c.16-.15.39-.21.61-.16.22.05.39.21.47.42l6.89,18.37c.08.21.05.44-.08.62-.12.18-.33.28-.54.28ZM35.65,52.23l18.65.5-6.2-16.51-13.64,12.7,1.19,3.32Z" fill="#000" stroke-width="0"/><path d="M39.48,59.33c-.26,0-.51-.16-.62-.42l-2.31-5.71c-.14-.34.03-.73.37-.87.34-.14.73.03.87.37l2.31,5.71c.14.34-.03.73-.37.87-.08.03-.17.05-.25.05Z" fill="#000" stroke-width="0"/><path d="M48.91,55.94c-.28,0-.54-.17-.63-.45l-.69-1.99c-.12-.35.06-.73.41-.85.34-.12.73.06.85.41l.69,1.99c.12.35-.06.73-.41.85-.07.03-.14.04-.22.04Z" fill="#000" stroke-width="0"/><path d="M39.49,59.33c-.27,0-.53-.17-.63-.44-.12-.35.06-.73.4-.85l9.43-3.38c.35-.12.73.06.85.4s-.06.73-.4.85l-9.43,3.38c-.07.03-.15.04-.22.04Z" fill="#000" stroke-width="0"/><path d="M14.55,53.72H4c-.37,0-.67-.3-.67-.67s.3-.67.67-.67h10.55c.37,0,.67.3.67.67s-.3.67-.67.67Z" fill="#000" stroke-width="0"/></g></svg>
