<?xml version="1.0" encoding="UTF-8"?><svg id="uuid-0d863356-4491-456c-be81-4ac348935a2a" xmlns="http://www.w3.org/2000/svg" viewBox="0 0 48 48"><path d="m3.41,23.99c0,3.86,1.09,7.65,3.14,10.93,2.05,3.28,4.98,5.91,8.46,7.6L5.19,15.61c-1.18,2.64-1.79,5.5-1.79,8.39Z" stroke-width="0"/><path d="m37.9,22.97c-.03-2.02-.61-3.98-1.69-5.68-1.11-1.39-1.81-3.06-2.03-4.83-.02-.94.32-1.86.97-2.54.65-.69,1.54-1.09,2.48-1.12h.27c-2.2-2.01-4.81-3.53-7.65-4.43-2.84-.9-5.85-1.18-8.8-.81s-5.8,1.38-8.33,2.96c-2.53,1.58-4.69,3.69-6.32,6.18h1.32c2.16,0,5.49-.26,5.49-.26.21,0,.41.09.57.23.15.15.25.34.26.55.02.21-.04.42-.17.59-.13.17-.31.28-.52.32,0,0-1.11.14-2.36.2l7.5,22.3,4.5-13.5-3.21-8.79c-1.11,0-2.16-.19-2.16-.19-.21-.04-.39-.15-.52-.32-.13-.17-.19-.38-.17-.59.02-.21.11-.41.26-.55.15-.15.35-.23.57-.23,0,0,3.41.26,5.43.26s5.49-.26,5.49-.26c.21,0,.41.09.57.23.15.15.25.34.26.55.02.21-.04.42-.17.59-.13.17-.31.28-.52.32,0,0-1.12.14-2.35.19l7.5,22.13,2.06-6.86c.8-2.14,1.31-4.37,1.5-6.65Z" stroke-width="0"/><path d="m24.36,25.8l-6.18,18c4.15,1.22,8.58,1.11,12.66-.33-.06-.09-.11-.19-.15-.28l-6.33-17.39Z" stroke-width="0"/><path d="m42,14.11c.09.7.14,1.41.14,2.11-.02,2.53-.53,5.04-1.5,7.38l-6.28,18.18c4.63-2.71,8.01-7.12,9.44-12.28,1.43-5.17.79-10.69-1.79-15.39Z" stroke-width="0"/><path d="m24,0c-4.75,0-9.39,1.41-13.33,4.04C6.72,6.68,3.64,10.43,1.83,14.82.01,19.2-.46,24.03.46,28.68c.93,4.66,3.21,8.93,6.57,12.29,3.36,3.36,7.63,5.64,12.29,6.57,4.66.93,9.48.45,13.87-1.37,4.39-1.82,8.13-4.89,10.77-8.84,2.64-3.95,4.04-8.59,4.04-13.33,0-6.37-2.53-12.47-7.03-16.97C36.47,2.53,30.37,0,24,0Zm0,46.9c-4.53,0-8.96-1.34-12.73-3.85-3.77-2.51-6.71-6.09-8.44-10.28-1.74-4.19-2.19-8.79-1.31-13.24.88-4.44,3.06-8.53,6.27-11.73,3.2-3.2,7.28-5.39,11.73-6.27,4.44-.89,9.05-.43,13.24,1.3,4.19,1.73,7.76,4.67,10.28,8.44,2.52,3.77,3.86,8.2,3.86,12.73,0,6.07-2.42,11.89-6.71,16.19-4.29,4.29-10.11,6.71-16.18,6.72Z" stroke-width="0"/></svg>
