<svg id="uuid-c1352e9b-c2ea-49e9-81de-cac80cd021c5" xmlns="http://www.w3.org/2000/svg" viewBox="0 0 90 48"><path d="M52.02,33.55c-1.26,0-2.27,1.02-2.27,2.27s1.02,2.27,2.27,2.27h9.45c1.26,0,2.27-1.02,2.27-2.27s-1.02-2.27-2.27-2.27h-9.45Z" class="sgmaincolor"/><path d="M81.21,9.93h-30.27c-.66,0-1.19.53-1.19,1.19s.53,1.19,1.19,1.19h30.27c.66,0,1.19-.53,1.19-1.19s-.53-1.19-1.19-1.19Z" class="sgmaincolor"/><path d="M82.4,18.22c0-.66-.53-1.19-1.19-1.19h-30.27c-.66,0-1.19.53-1.19,1.19s.53,1.19,1.19,1.19h30.27c.66,0,1.19-.53,1.19-1.19Z" class="sgmaincolor"/><path d="M73.27,25.31c0-.66-.53-1.19-1.19-1.19h-21.14c-.66,0-1.19.53-1.19,1.19s.53,1.19,1.19,1.19h21.14c.66,0,1.19-.53,1.19-1.19Z" class="sgmaincolor"/><path d="M45,48V0H8C3.58,0,0,3.59,0,8v32C0,44.42,3.58,48,8,48h37Z"/><circle cx="31.06" cy="17.7" r="3.21" class="sgmaincolor"/><path d="M10.17,35.86l8.68-13.68c.15-.25.51-.26.69-.02l5.53,7.61c.15.2.45.23.63.05l2.36-2.33c.16-.16.43-.16.59.01l7.8,8.3c.25.27.06.7-.3.7H10.52c-.33,0-.53-.36-.35-.64Z" class="sgmaincolor"/></svg>
