<svg width="16" height="24" viewBox="0 0 16 24" fill="none" xmlns="http://www.w3.org/2000/svg">
<path d="M8.0005 23.3125L6.5865 21.8985L8.5315 19.9535L8.0015 19.9885C6.8465 20.0595 5.7975 19.8705 4.8545 19.4225C3.9115 18.9745 3.0865 18.3975 2.3795 17.6905C1.0705 16.3835 0.298502 14.8275 0.0625025 13.0245C-0.173498 11.2215 0.174502 9.52455 1.1055 7.93355L2.5905 9.41855C2.0485 10.5735 1.8865 11.7785 2.1045 13.0335C2.3225 14.2885 2.8855 15.3695 3.7925 16.2775C4.3225 16.8075 4.9385 17.2235 5.6395 17.5235C6.3405 17.8245 7.1155 17.9745 7.9645 17.9745H8.3185L6.5865 16.2425L8.0005 14.8285L12.2435 19.0715L8.0005 23.3145V23.3125ZM14.8945 16.0655L13.4095 14.5805C13.9515 13.4255 14.1135 12.2205 13.8955 10.9655C13.6775 9.71055 13.1145 8.62955 12.2075 7.72155C11.6775 7.19155 11.0615 6.77555 10.3605 6.47555C9.6595 6.17555 8.8845 6.02455 8.0355 6.02455H7.6815L9.4135 7.75655L7.9995 9.17055L3.7575 4.92855L8.0005 0.685547L9.4145 2.09955L7.4695 4.04455L7.9995 4.00955C9.1545 4.00955 10.2035 4.21555 11.1465 4.62855C12.0895 5.04155 12.9145 5.60055 13.6215 6.30755C14.9295 7.61555 15.7015 9.17155 15.9375 10.9745C16.1735 12.7775 15.8255 14.4745 14.8945 16.0655Z" class="sgmaincolor" />
</svg>
