<svg viewBox="0 0 21 20" fill="none" xmlns="http://www.w3.org/2000/svg">
<g id="Group 11">
<path id="segmentation" d="M9.77344 19.9498C7.20677 19.6998 5.0651 18.6248 3.34844 16.7248C1.63177 14.8248 0.773438 12.5831 0.773438 9.9998C0.773438 7.41647 1.63177 5.1748 3.34844 3.2748C5.0651 1.3748 7.20677 0.299805 9.77344 0.0498047V3.0498C8.0401 3.28314 6.60677 4.05814 5.47344 5.3748C4.3401 6.69147 3.77344 8.23314 3.77344 9.9998C3.77344 11.7665 4.3401 13.3081 5.47344 14.6248C6.60677 15.9415 8.0401 16.7165 9.77344 16.9498V19.9498ZM11.7734 19.9498V16.9498C13.3401 16.7498 14.6651 16.0998 15.7484 14.9998C16.8318 13.8998 17.4901 12.5665 17.7234 10.9998H20.7234C20.4901 13.3831 19.5359 15.4123 17.8609 17.0873C16.1859 18.7623 14.1568 19.7165 11.7734 19.9498ZM17.7234 8.9998C17.4901 7.43314 16.8318 6.0998 15.7484 4.9998C14.6651 3.8998 13.3401 3.2498 11.7734 3.0498V0.0498047C14.1568 0.283138 16.1859 1.2373 17.8609 2.9123C19.5359 4.5873 20.4901 6.61647 20.7234 8.9998H17.7234Z"/>
</g>
</svg>
