<svg width="24" height="32" viewBox="0 0 24 32" fill="none" xmlns="http://www.w3.org/2000/svg">
<path fill-rule="evenodd" clip-rule="evenodd" d="M7.43792 24.9902C3.60395 23.7622 0.868451 20.1142 0.197661 16.2914C-1.6532 5.73969 9.8127 -3.78085 21.264 1.50577C21.3996 3.87571 20.2758 7.24818 17.192 8.26175C32.4986 17.7261 19.412 37.1138 3.37097 30.7387C0.444704 29.277 2.00688 26.6051 5.13574 28.1527C8.62981 29.3327 13.17 29.3327 16.031 27.7856C17.8983 26.8231 19.4969 25.4281 20.6877 23.722C21.1141 23.0875 21.4837 22.4182 21.7924 21.7213C22.0349 21.1619 22.8166 18.8554 22.2099 18.6035C22.058 18.5412 21.9781 18.7176 21.9365 18.8829C21.5433 20.3856 20.7911 21.7752 19.7418 22.9372C18.4771 24.3812 16.8469 25.4739 15.0147 26.1057C12.7271 26.922 10.0761 27.025 6.43061 26.2441C6.67146 25.9889 7.1543 25.279 7.43454 24.9902H7.43792ZM18.0051 2.45374C18.065 2.79902 18.0997 3.14805 18.1087 3.49817C18.1721 4.26574 18.0522 5.03723 17.7586 5.7516C17.465 6.46598 17.0057 7.10364 16.4171 7.61415C16.1599 7.86657 15.8673 8.12892 15.542 8.40119C19.865 11.0335 22.1227 16.7902 19.6134 20.8136C16.2269 26.2347 9.51557 25.0023 5.84986 21.2903C2.01138 17.4047 2.5201 12.3772 5.27698 8.65086C6.76703 6.72664 8.69127 5.16601 10.8993 4.09096C13.1073 3.01591 15.5393 2.45557 18.0051 2.45374Z" fill="#96CB4C"/>
<path fill-rule="evenodd" clip-rule="evenodd" d="M4.97664 14.3547C5.79937 6.30796 15.2512 4.71514 18.7639 15.4388C21.5984 26.4618 3.67163 24.0627 4.97664 14.3547ZM12.6862 19.6458C20.1505 19.9125 16.5737 12.4362 11.6733 10.7838C6.81625 9.14637 4.11564 19.6452 12.6862 19.6458Z" fill="#333230"/>
</svg>
