<?xml version="1.0" encoding="UTF-8"?>
<svg id="uuid-ea19da8e-c63a-4bed-90f3-5adda4c3f9ea" xmlns="http://www.w3.org/2000/svg" viewBox="0 0 48 48">
	<polygon points="10.23 11.99 11.37 13.49 5.51 20.62 2.08 20.93 10.23 11.99" />
	<polygon points="9.92 35.78 9.88 23.07 14.33 23.48 14.32 37.1 9.92 35.78" />
	<path d="M18.55,22.89l-3.6-.34h-.11s-.01-.01-.01-.01l-5.32-.5h-.08c-.09-.02-.17,0-.25.02-.05.02-.1.05-.14.1-.02.01-.04.03-.06.06-.02.02-.03.05-.04.07-.01.01-.02.02-.02.04-.02.04-.03.08-.03.13-.01.02-.01.04-.01.06l.04,12.96-2.61-.79-.04-13.42,5.73-6.95,6.55,8.57Z" />
	<path d="M20.77,25.57s.05.01.07.01v13.5l-5.52-1.67v-13.82s4.04.38,4.04.38l1.04,1.35.04.06c.07.08.15.14.24.17.02.02.06.03.09.02Z" />
	<polygon points="21.85 25.45 40.9 22.89 40.88 34.6 21.85 39.1 21.85 25.45" />
	<path d="M45.92,21.2l-4.47.6-.21.03h-.02s-19.87,2.68-19.87,2.68h-.1c-.06.02-.11.04-.16.08l-.03-.05-1.06-1.38-7.59-9.94s-.01,0-.01-.02l-1.19-1.57,25.48-2.73,9.23,12.3Z" />
</svg>
