<svg xmlns="http://www.w3.org/2000/svg" viewBox="0 0 22 23">
<path d="M22 11.2C22 5.12487 17.0751 0.199951 11 0.199951C4.92492 0.199951 0 5.12487 0 11.2C0 16.3585 3.55168 20.6872 8.34284 21.8761V14.5615H6.07464V11.2H8.34284V9.75147C8.34284 6.00751 10.0373 4.27215 13.713 4.27215C14.41 4.27215 15.6125 4.40899 16.1044 4.54539V7.59239C15.8448 7.56511 15.3938 7.55147 14.8337 7.55147C13.0302 7.55147 12.3332 8.23479 12.3332 10.0111V11.2H15.9262L15.3089 14.5615H12.3332V22.1194C17.78 21.4616 22.0004 16.824 22.0004 11.2H22Z"/>
</svg>
