<svg xmlns="http://www.w3.org/2000/svg" viewBox="0 0 20 21">
<g clip-path="url(#clip0_849_2556)">
<path d="M18.5236 0.600098H1.47639C1.08483 0.600098 0.709301 0.755646 0.432425 1.03252C0.155548 1.3094 0 1.68492 0 2.07649V19.1237C0 19.5153 0.155548 19.8908 0.432425 20.1677C0.709301 20.4446 1.08483 20.6001 1.47639 20.6001H18.5236C18.9152 20.6001 19.2907 20.4446 19.5676 20.1677C19.8445 19.8908 20 19.5153 20 19.1237V2.07649C20 1.68492 19.8445 1.3094 19.5676 1.03252C19.2907 0.755646 18.9152 0.600098 18.5236 0.600098ZM5.96111 17.6376H2.95417V8.08621H5.96111V17.6376ZM4.45556 6.7626C4.11447 6.76068 3.7816 6.65776 3.49895 6.46684C3.21629 6.27591 2.99653 6.00554 2.8674 5.68984C2.73826 5.37414 2.70554 5.02726 2.77336 4.69298C2.84118 4.3587 3.0065 4.05199 3.24846 3.81158C3.49042 3.57117 3.79818 3.40782 4.13289 3.34215C4.4676 3.27648 4.81426 3.31143 5.12913 3.44259C5.44399 3.57375 5.71295 3.79524 5.90205 4.07911C6.09116 4.36298 6.19194 4.69651 6.19167 5.0376C6.19488 5.26596 6.15209 5.49263 6.06584 5.7041C5.97959 5.91557 5.85165 6.10751 5.68964 6.26849C5.52763 6.42946 5.33487 6.55617 5.12285 6.64106C4.91083 6.72595 4.68389 6.76728 4.45556 6.7626ZM17.0444 17.6459H14.0389V12.4279C14.0389 10.889 13.3847 10.414 12.5403 10.414C11.6486 10.414 10.7736 11.0862 10.7736 12.4668V17.6459H7.76667V8.09315H10.6583V9.41677H10.6972C10.9875 8.82926 12.0042 7.8251 13.5556 7.8251C15.2333 7.8251 17.0458 8.82093 17.0458 11.7376L17.0444 17.6459Z"/>
</g>
</svg>
