<?xml version="1.0" encoding="UTF-8"?><svg id="uuid-d037bbf5-b306-4c76-9234-89b03636199c" xmlns="http://www.w3.org/2000/svg" width="64" height="64" viewBox="0 0 64 64"><path d="M27.084,43.346c-.101,0-.2-.03-.286-.09L4.594,27.728c-.227-.158-.282-.471-.124-.696.16-.229.472-.28.696-.124l21.917,15.327,21.753-15.326c.227-.157.538-.104.697.121.158.226.104.538-.121.697l-22.04,15.528c-.087.061-.188.091-.288.091Z" fill="#727171"/><path d="M48.179,27.432c-.156,0-.312-.074-.409-.212-.158-.226-.104-.538.121-.697l6.212-4.377c.226-.158.537-.104.697.121.158.226.104.538-.121.697l-6.212,4.377c-.088.062-.188.091-.288.091Z" fill="#727171"/><path d="M16.405,27.432c-.1,0-.199-.029-.286-.09l-6.259-4.377c-.227-.158-.282-.471-.124-.696.16-.229.472-.28.696-.124l6.259,4.377c.227.158.282.471.124.696-.098.14-.253.214-.41.214Z" fill="#727171"/><path d="M49.124,56.447H4.88c-.276,0-.5-.224-.5-.5v-29.015c0-.276.224-.5.5-.5h44.244c.276,0,.5.224.5.5v29.015c0,.276-.224.5-.5.5ZM5.38,55.447h43.244v-28.015H5.38v28.015Z" fill="#727171"/><path d="M54.391,51.619h-5.267c-.276,0-.5-.224-.5-.5s.224-.5.5-.5h4.767v-28.015H10.647v4.275c0,.276-.224.5-.5.5s-.5-.224-.5-.5v-4.775c0-.276.224-.5.5-.5h44.244c.276,0,.5.224.5.5v29.015c0,.276-.224.5-.5.5Z" fill="#727171"/><path d="M53.99,22.346c-.156,0-.312-.074-.409-.212-.158-.226-.104-.538.121-.697l6.213-4.377c.226-.158.537-.104.697.121.158.226.104.538-.121.697l-6.213,4.377c-.088.062-.188.091-.288.091Z" fill="#727171"/><path d="M22.218,22.346c-.1,0-.199-.029-.286-.09l-6.259-4.377c-.227-.158-.282-.471-.124-.696.159-.228.472-.28.696-.124l6.259,4.377c.227.158.282.471.124.696-.098.14-.253.214-.41.214Z" fill="#727171"/><path d="M60.203,46.533h-5.268c-.276,0-.5-.224-.5-.5s.224-.5.5-.5h4.768v-28.015H16.459v4.275c0,.276-.224.5-.5.5s-.5-.224-.5-.5v-4.775c0-.276.224-.5.5-.5h44.244c.276,0,.5.224.5.5v29.015c0,.276-.224.5-.5.5Z" fill="#727171"/></svg>