<?xml version="1.0" encoding="UTF-8"?><svg id="uuid-1d669a81-f21f-4fbd-af70-eeb05c014565" xmlns="http://www.w3.org/2000/svg" width="64" height="64" viewBox="0 0 64 64"><path d="M29.449,43.346c-.101,0-.2-.03-.286-.09L6.958,27.728c-.227-.158-.282-.471-.124-.696.159-.229.473-.28.696-.124l21.917,15.327,21.753-15.326c.226-.157.537-.104.697.121.158.226.104.538-.121.697l-22.04,15.528c-.087.061-.188.091-.288.091Z" fill="#727171"/><path d="M50.543,27.432c-.156,0-.312-.074-.409-.212-.158-.226-.104-.538.121-.697l6.212-4.377c.226-.158.537-.104.697.121.158.226.104.538-.121.697l-6.212,4.377c-.088.062-.188.091-.288.091Z" fill="#727171"/><path d="M18.77,27.432c-.1,0-.199-.029-.286-.09l-6.258-4.377c-.227-.159-.282-.471-.124-.696.159-.229.473-.28.696-.124l6.258,4.377c.227.159.282.471.124.696-.098.14-.253.214-.41.214Z" fill="#727171"/><path d="M51.489,56.447H7.244c-.276,0-.5-.224-.5-.5v-29.015c0-.276.224-.5.5-.5h44.244c.276,0,.5.224.5.5v29.015c0,.276-.224.5-.5.5ZM7.744,55.447h43.244v-28.015H7.744v28.015Z" fill="#727171"/><path d="M56.755,51.619h-5.267c-.276,0-.5-.224-.5-.5s.224-.5.5-.5h4.767v-28.015H13.012v4.275c0,.276-.224.5-.5.5s-.5-.224-.5-.5v-4.775c0-.276.224-.5.5-.5h44.243c.276,0,.5.224.5.5v29.015c0,.276-.224.5-.5.5Z" fill="#727171"/></svg>