<svg viewBox="0 0 960 960" xmlns="http://www.w3.org/2000/svg"><path d="M200 840C178 840 159.167 832.167 143.5 816.5C127.833 800.833 120 782 120 760V200C120 178 127.833 159.167 143.5 143.5C159.167 127.833 178 120 200 120H760C782 120 800.833 127.833 816.5 143.5C832.167 159.167 840 178 840 200V760C840 782 832.167 800.833 816.5 816.5C800.833 832.167 782 840 760 840H200ZM200 760H760V200H200V760Z"/><path d="M344.347 712.018C335.008 706.626 329.058 698.22 326.497 686.798C323.935 675.376 325.582 664.594 331.438 654.452L558.766 260.709C564.519 250.11 573.007 243.179 584.23 239.914C595.454 236.65 605.735 237.714 615.074 243.106C624.413 248.497 630.475 256.869 633.259 268.221C636.044 279.573 634.285 290.39 627.983 300.672L400.655 694.415C394.8 704.557 386.312 711.488 375.191 715.209C364.07 718.931 353.788 717.867 344.347 712.018Z"/></svg>