<svg viewBox="0 0 24 24" xmlns="http://www.w3.org/2000/svg">
<path d="M12 2C6.48571 2 2 6.48571 2 12C2 17.5143 6.48571 22 12 22C17.5143 22 22 17.5132 22 12C22 6.48677 17.5132 2 12 2ZM3.00952 12C3.00952 10.6963 3.28889 9.45926 3.78836 8.34074L8.07725 20.091C5.07831 18.6339 3.00952 15.5587 3.00952 12ZM12 20.9915C11.1175 20.9915 10.2656 20.8624 9.46032 20.6254L12.1577 12.7873L14.9206 20.3587C14.9386 20.4032 14.9608 20.4444 14.9852 20.4825C14.0508 20.8116 13.0466 20.9926 12 20.9926V20.9915ZM13.2392 7.78413C13.7799 7.75556 14.2677 7.69841 14.2677 7.69841C14.7524 7.64127 14.6952 6.9291 14.2106 6.95767C14.2106 6.95767 12.7545 7.07196 11.8138 7.07196C10.9302 7.07196 9.4455 6.95767 9.4455 6.95767C8.96085 6.9291 8.9037 7.66984 9.38836 7.69841C9.38836 7.69841 9.84656 7.75556 10.3312 7.78413L11.7323 11.6222L9.76402 17.5227L6.48995 7.78413C7.03175 7.75556 7.51852 7.69841 7.51852 7.69841C8.00317 7.64127 7.94497 6.9291 7.46138 6.95767C7.46138 6.95767 6.00529 7.07196 5.06561 7.07196C4.89735 7.07196 4.69841 7.06772 4.48677 7.06138C6.09524 4.62116 8.85926 3.00952 12 3.00952C14.3407 3.00952 16.472 3.90476 18.0709 5.37037C18.0317 5.36825 17.9947 5.36296 17.9545 5.36296C17.0709 5.36296 16.4444 6.13228 16.4444 6.95873C16.4444 7.69947 16.872 8.32698 17.328 9.06773C17.6698 9.66667 18.0688 10.436 18.0688 11.5471C18.0688 12.3164 17.7725 13.2095 17.3852 14.454L16.4878 17.4497L13.2392 7.78518V7.78413ZM19.8889 7.68677C20.5905 8.9672 20.9905 10.437 20.9905 12C20.9905 15.3175 19.1926 18.2127 16.5196 19.7714L19.2656 11.8317C19.7788 10.5492 19.9492 9.52381 19.9492 8.61164C19.9492 8.28042 19.927 7.97355 19.8889 7.68677Z" />
</svg>
